<?xml version="1.0" encoding="UTF-8" standalone="no"?>
<svg
   xmlns:dc="http://purl.org/dc/elements/1.1/"
   xmlns:cc="http://creativecommons.org/ns#"
   xmlns:rdf="http://www.w3.org/1999/02/22-rdf-syntax-ns#"
   xmlns:svg="http://www.w3.org/2000/svg"
   xmlns="http://www.w3.org/2000/svg"
   xmlns:sodipodi="http://sodipodi.sourceforge.net/DTD/sodipodi-0.dtd"
   xmlns:inkscape="http://www.inkscape.org/namespaces/inkscape"
   style="font-style:normal;font-weight:normal;font-size:12px;font-family:Dialog;color-interpolation:auto;fill:#000000;fill-opacity:1;stroke:#000000;stroke-width:1;stroke-linecap:square;stroke-linejoin:miter;stroke-miterlimit:10;stroke-dasharray:none;stroke-dashoffset:0;stroke-opacity:1;color-rendering:auto;image-rendering:auto;shape-rendering:auto;text-rendering:auto"
   width="1006.6983"
   height="841.54688"
   version="1.1"
   id="svg335"
   sodipodi:docname="EFP_vs_jf669.svg"
   inkscape:version="1.0.2 (e86c870879, 2021-01-15)"
   inkscape:export-filename="/home/tlh24/ao-bergamo/matlab/EFP_vs_jf669.png"
   inkscape:export-xdpi="120"
   inkscape:export-ydpi="120">
  <metadata
     id="metadata339">
    <rdf:RDF>
      <cc:Work
         rdf:about="">
        <dc:format>image/svg+xml</dc:format>
        <dc:type
           rdf:resource="http://purl.org/dc/dcmitype/StillImage" />
        <dc:title></dc:title>
      </cc:Work>
    </rdf:RDF>
  </metadata>
  <sodipodi:namedview
     pagecolor="#ffffff"
     bordercolor="#666666"
     borderopacity="1"
     objecttolerance="10"
     gridtolerance="10"
     guidetolerance="10"
     inkscape:pageopacity="0"
     inkscape:pageshadow="2"
     inkscape:window-width="3840"
     inkscape:window-height="2095"
     id="namedview337"
     showgrid="false"
     inkscape:zoom="1.7051762"
     inkscape:cx="498.08049"
     inkscape:cy="407.32756"
     inkscape:window-x="0"
     inkscape:window-y="41"
     inkscape:window-maximized="1"
     inkscape:current-layer="svg335"
     lock-margins="true"
     fit-margin-top="20"
     fit-margin-left="20"
     fit-margin-right="20"
     fit-margin-bottom="20" />
  <!--Generated by the Batik Graphics2D SVG Generator-->
  <defs
     id="genericDefs">
    <defs
       id="defs1">
      <clipPath
         clipPathUnits="userSpaceOnUse"
         id="clipPath1">
        <path
           d="M 0,0 H 1120 V 836 H 0 Z"
           id="path3" />
      </clipPath>
    </defs>
  </defs>
  <g
     style="color-interpolation:linearRGB;fill:#262626;stroke:#262626;stroke-width:0.6667;stroke-linecap:butt;stroke-linejoin:round;color-rendering:optimizeQuality;image-rendering:optimizeQuality;text-rendering:geometricPrecision"
     id="g19"
     transform="translate(-28.4352,-16.125)">
    <line
       y2="744"
       style="fill:none"
       x1="146"
       x2="1014"
       y1="744"
       id="line17" />
  </g>
  <g
     style="color-interpolation:sRGB;fill:#00bd13;fill-opacity:1;stroke:#0072bd;color-rendering:optimizeSpeed;image-rendering:optimizeSpeed;shape-rendering:crispEdges;text-rendering:optimizeSpeed"
     id="g23"
     transform="translate(-28.4352,-16.125)">
    <path
       style="fill:#00bd13;fill-opacity:1;stroke:none"
       d="M 245.9137,744 V 291.1731 H 195.9568 V 744 Z m 218.5611,0 V 191.6891 H 414.518 V 744 Z m 218.5611,0 V 232.0999 H 633.0792 V 744 Z m 218.5612,0 V 144.5406 H 851.6403 V 744 Z"
       id="path21" />
  </g>
  <g
     style="color-interpolation:linearRGB;stroke-width:0.6667;stroke-linecap:butt;color-rendering:optimizeQuality;image-rendering:optimizeQuality;text-rendering:geometricPrecision"
     id="g33"
     transform="translate(-28.4352,-16.125)">
    <path
       d="M 195.9568,744 V 291.1731 h 49.9569 V 744 Z"
       style="fill:none;fill-rule:evenodd"
       id="path25" />
    <path
       d="M 414.518,744 V 191.6891 h 49.9568 V 744 Z"
       style="fill:none;fill-rule:evenodd"
       id="path27" />
    <path
       d="M 633.0792,744 V 232.0999 h 49.9567 V 744 Z"
       style="fill:none;fill-rule:evenodd"
       id="path29" />
    <path
       d="M 851.6403,744 V 144.5406 h 49.9568 V 744 Z"
       style="fill:none;fill-rule:evenodd"
       id="path31" />
  </g>
  <g
     style="color-interpolation:sRGB;fill:#d91919;fill-opacity:1;stroke:#d95319;color-rendering:optimizeSpeed;image-rendering:optimizeSpeed;shape-rendering:crispEdges;text-rendering:optimizeSpeed"
     id="g37"
     transform="translate(-28.4352,-16.125)">
    <path
       style="fill:#d91919;fill-opacity:1;stroke:none"
       d="m 308.3597,744 v -0.1096 H 258.4029 V 744 Z m 218.5611,0 V 447.1221 H 476.964 V 744 Z m 218.5612,0 V 299.9294 H 695.5252 V 744 Z m 218.5612,0 V 97.367 H 914.0864 V 744 Z"
       id="path35" />
  </g>
  <path
     d="m 229.9677,727.875 v -0.1096 h 49.9568 v 0.1096 z"
     style="color-interpolation:linearRGB;fill:none;fill-rule:evenodd;stroke-width:0.6667;stroke-linecap:butt;color-rendering:optimizeQuality;image-rendering:optimizeQuality;text-rendering:geometricPrecision"
     id="path39" />
  <path
     d="M 448.5288,727.875 V 430.9971 h 49.9568 V 727.875 Z"
     style="color-interpolation:linearRGB;fill:none;fill-rule:evenodd;stroke-width:0.6667;stroke-linecap:butt;color-rendering:optimizeQuality;image-rendering:optimizeQuality;text-rendering:geometricPrecision"
     id="path41" />
  <path
     d="M 667.09,727.875 V 283.8044 h 49.9568 V 727.875 Z"
     style="color-interpolation:linearRGB;fill:none;fill-rule:evenodd;stroke-width:0.6667;stroke-linecap:butt;color-rendering:optimizeQuality;image-rendering:optimizeQuality;text-rendering:geometricPrecision"
     id="path43" />
  <path
     d="M 885.6512,727.875 V 81.242 h 49.9568 v 646.633 z"
     style="color-interpolation:linearRGB;fill:none;fill-rule:evenodd;stroke-width:0.6667;stroke-linecap:butt;color-rendering:optimizeQuality;image-rendering:optimizeQuality;text-rendering:geometricPrecision"
     id="path45" />
  <line
     x1="223.7231"
     x2="223.7231"
     y1="727.76538"
     style="color-interpolation:linearRGB;fill:none;stroke:#7e2f8e;stroke-width:0.6667;stroke-linecap:butt;stroke-linejoin:round;color-rendering:optimizeQuality;image-rendering:optimizeQuality;text-rendering:geometricPrecision"
     y2="727.84363"
     id="line129" />
  <line
     x1="223.7231"
     x2="223.7231"
     y1="727.76538"
     style="color-interpolation:linearRGB;fill:none;stroke:#7e2f8e;stroke-width:0.6667;stroke-linecap:butt;stroke-linejoin:round;color-rendering:optimizeQuality;image-rendering:optimizeQuality;text-rendering:geometricPrecision"
     y2="727.68732"
     id="line137" />
  <g
     transform="translate(223.7231,727.8436)"
     style="color-interpolation:linearRGB;fill:#7e2f8e;stroke:#7e2f8e;color-rendering:optimizeQuality;image-rendering:optimizeQuality;text-rendering:geometricPrecision"
     id="g151">
    <path
       style="stroke:none"
       d="M -4,0 H 4"
       id="path149" />
  </g>
  <g
     transform="translate(223.7231,727.8436)"
     style="color-interpolation:linearRGB;fill:#7e2f8e;stroke:#7e2f8e;stroke-width:0.6667;stroke-linecap:butt;color-rendering:optimizeQuality;image-rendering:optimizeQuality;text-rendering:geometricPrecision"
     id="g155">
    <path
       style="fill:none"
       d="M -4,0 H 4"
       id="path153" />
  </g>
  <g
     transform="translate(223.7231,727.6873)"
     style="color-interpolation:linearRGB;fill:#7e2f8e;stroke:#7e2f8e;color-rendering:optimizeQuality;image-rendering:optimizeQuality;text-rendering:geometricPrecision"
     id="g183">
    <path
       style="stroke:none"
       d="M -4,0 H 4"
       id="path181" />
  </g>
  <g
     transform="translate(223.7231,727.6873)"
     style="color-interpolation:linearRGB;fill:#7e2f8e;stroke:#7e2f8e;stroke-width:0.6667;stroke-linecap:butt;color-rendering:optimizeQuality;image-rendering:optimizeQuality;text-rendering:geometricPrecision"
     id="g187">
    <path
       style="fill:none"
       d="M -4,0 H 4"
       id="path185" />
  </g>
  <g
     id="g1402"
     transform="translate(-58.4352,-16.125)"
     style="stroke:#000000;stroke-width:2.6;stroke-miterlimit:10;stroke-dasharray:none;stroke-opacity:1">
    <line
       x1="252.15829"
       x2="252.15829"
       y1="291.1731"
       style="color-interpolation:linearRGB;fill:none;stroke:#000000;stroke-width:2.6;stroke-linecap:butt;stroke-linejoin:round;stroke-miterlimit:10;stroke-dasharray:none;stroke-opacity:1;color-rendering:optimizeQuality;image-rendering:optimizeQuality;text-rendering:geometricPrecision"
       y2="330.17801"
       id="line47" />
    <line
       x1="470.71939"
       x2="470.71939"
       y1="191.6891"
       style="color-interpolation:linearRGB;fill:none;stroke:#000000;stroke-width:2.6;stroke-linecap:butt;stroke-linejoin:round;stroke-miterlimit:10;stroke-dasharray:none;stroke-opacity:1;color-rendering:optimizeQuality;image-rendering:optimizeQuality;text-rendering:geometricPrecision"
       y2="234.8754"
       id="line49" />
    <line
       x1="689.28058"
       x2="689.28058"
       y1="232.0999"
       style="color-interpolation:linearRGB;fill:none;stroke:#000000;stroke-width:2.6;stroke-linecap:butt;stroke-linejoin:round;stroke-miterlimit:10;stroke-dasharray:none;stroke-opacity:1;color-rendering:optimizeQuality;image-rendering:optimizeQuality;text-rendering:geometricPrecision"
       y2="274.85999"
       id="line51" />
    <line
       x1="907.84167"
       x2="907.84167"
       y1="144.5406"
       style="color-interpolation:linearRGB;fill:none;stroke:#000000;stroke-width:2.6;stroke-linecap:butt;stroke-linejoin:round;stroke-miterlimit:10;stroke-dasharray:none;stroke-opacity:1;color-rendering:optimizeQuality;image-rendering:optimizeQuality;text-rendering:geometricPrecision"
       y2="169.8304"
       id="line53" />
    <line
       x1="252.15829"
       x2="252.15829"
       y1="291.1731"
       style="color-interpolation:linearRGB;fill:none;stroke:#000000;stroke-width:2.6;stroke-linecap:butt;stroke-linejoin:round;stroke-miterlimit:10;stroke-dasharray:none;stroke-opacity:1;color-rendering:optimizeQuality;image-rendering:optimizeQuality;text-rendering:geometricPrecision"
       y2="252.1682"
       id="line55" />
    <line
       x1="470.71939"
       x2="470.71939"
       y1="191.6891"
       style="color-interpolation:linearRGB;fill:none;stroke:#000000;stroke-width:2.6;stroke-linecap:butt;stroke-linejoin:round;stroke-miterlimit:10;stroke-dasharray:none;stroke-opacity:1;color-rendering:optimizeQuality;image-rendering:optimizeQuality;text-rendering:geometricPrecision"
       y2="148.50281"
       id="line57" />
    <line
       x1="689.28058"
       x2="689.28058"
       y1="232.0999"
       style="color-interpolation:linearRGB;fill:none;stroke:#000000;stroke-width:2.6;stroke-linecap:butt;stroke-linejoin:round;stroke-miterlimit:10;stroke-dasharray:none;stroke-opacity:1;color-rendering:optimizeQuality;image-rendering:optimizeQuality;text-rendering:geometricPrecision"
       y2="189.33971"
       id="line59" />
    <line
       x1="907.84167"
       x2="907.84167"
       y1="144.5406"
       style="color-interpolation:linearRGB;fill:none;stroke:#000000;stroke-width:2.6;stroke-linecap:butt;stroke-linejoin:round;stroke-miterlimit:10;stroke-dasharray:none;stroke-opacity:1;color-rendering:optimizeQuality;image-rendering:optimizeQuality;text-rendering:geometricPrecision"
       y2="119.2507"
       id="line61" />
    <g
       transform="translate(252.1583,330.178)"
       style="color-interpolation:linearRGB;fill:#edb120;stroke:#000000;stroke-width:2.6;stroke-miterlimit:10;stroke-dasharray:none;stroke-opacity:1;color-rendering:optimizeQuality;image-rendering:optimizeQuality;text-rendering:geometricPrecision"
       id="g69">
      <path
         style="stroke:#000000;stroke-width:2.6;stroke-miterlimit:10;stroke-dasharray:none;stroke-opacity:1"
         d="M -4,0 H 4"
         id="path67" />
    </g>
    <g
       transform="translate(252.1583,330.178)"
       style="color-interpolation:linearRGB;fill:#edb120;stroke:#000000;stroke-width:2.6;stroke-linecap:butt;stroke-miterlimit:10;stroke-dasharray:none;stroke-opacity:1;color-rendering:optimizeQuality;image-rendering:optimizeQuality;text-rendering:geometricPrecision"
       id="g73">
      <path
         style="fill:none;stroke:#000000;stroke-width:2.6;stroke-miterlimit:10;stroke-dasharray:none;stroke-opacity:1"
         d="M -4,0 H 4"
         id="path71" />
    </g>
    <g
       transform="translate(470.7194,234.8754)"
       style="color-interpolation:linearRGB;fill:#edb120;stroke:#000000;stroke-width:2.6;stroke-miterlimit:10;stroke-dasharray:none;stroke-opacity:1;color-rendering:optimizeQuality;image-rendering:optimizeQuality;text-rendering:geometricPrecision"
       id="g77">
      <path
         style="stroke:#000000;stroke-width:2.6;stroke-miterlimit:10;stroke-dasharray:none;stroke-opacity:1"
         d="M -4,0 H 4"
         id="path75" />
    </g>
    <g
       transform="translate(470.7194,234.8754)"
       style="color-interpolation:linearRGB;fill:#edb120;stroke:#000000;stroke-width:2.6;stroke-linecap:butt;stroke-miterlimit:10;stroke-dasharray:none;stroke-opacity:1;color-rendering:optimizeQuality;image-rendering:optimizeQuality;text-rendering:geometricPrecision"
       id="g81">
      <path
         style="fill:none;stroke:#000000;stroke-width:2.6;stroke-miterlimit:10;stroke-dasharray:none;stroke-opacity:1"
         d="M -4,0 H 4"
         id="path79" />
    </g>
    <g
       transform="translate(689.2806,274.86)"
       style="color-interpolation:linearRGB;fill:#edb120;stroke:#000000;stroke-width:2.6;stroke-miterlimit:10;stroke-dasharray:none;stroke-opacity:1;color-rendering:optimizeQuality;image-rendering:optimizeQuality;text-rendering:geometricPrecision"
       id="g85">
      <path
         style="stroke:#000000;stroke-width:2.6;stroke-miterlimit:10;stroke-dasharray:none;stroke-opacity:1"
         d="M -4,0 H 4"
         id="path83" />
    </g>
    <g
       transform="translate(689.2806,274.86)"
       style="color-interpolation:linearRGB;fill:#edb120;stroke:#000000;stroke-width:2.6;stroke-linecap:butt;stroke-miterlimit:10;stroke-dasharray:none;stroke-opacity:1;color-rendering:optimizeQuality;image-rendering:optimizeQuality;text-rendering:geometricPrecision"
       id="g89">
      <path
         style="fill:none;stroke:#000000;stroke-width:2.6;stroke-miterlimit:10;stroke-dasharray:none;stroke-opacity:1"
         d="M -4,0 H 4"
         id="path87" />
    </g>
    <g
       transform="translate(907.8417,169.8304)"
       style="color-interpolation:linearRGB;fill:#edb120;stroke:#000000;stroke-width:2.6;stroke-miterlimit:10;stroke-dasharray:none;stroke-opacity:1;color-rendering:optimizeQuality;image-rendering:optimizeQuality;text-rendering:geometricPrecision"
       id="g93">
      <path
         style="stroke:#000000;stroke-width:2.6;stroke-miterlimit:10;stroke-dasharray:none;stroke-opacity:1"
         d="M -4,0 H 4"
         id="path91" />
    </g>
    <g
       transform="translate(907.8417,169.8304)"
       style="color-interpolation:linearRGB;fill:#edb120;stroke:#000000;stroke-width:2.6;stroke-linecap:butt;stroke-miterlimit:10;stroke-dasharray:none;stroke-opacity:1;color-rendering:optimizeQuality;image-rendering:optimizeQuality;text-rendering:geometricPrecision"
       id="g97">
      <path
         style="fill:none;stroke:#000000;stroke-width:2.6;stroke-miterlimit:10;stroke-dasharray:none;stroke-opacity:1"
         d="M -4,0 H 4"
         id="path95" />
    </g>
    <g
       transform="translate(252.1583,252.1682)"
       style="color-interpolation:linearRGB;fill:#edb120;stroke:#000000;stroke-width:2.6;stroke-miterlimit:10;stroke-dasharray:none;stroke-opacity:1;color-rendering:optimizeQuality;image-rendering:optimizeQuality;text-rendering:geometricPrecision"
       id="g101">
      <path
         style="stroke:#000000;stroke-width:2.6;stroke-miterlimit:10;stroke-dasharray:none;stroke-opacity:1"
         d="M -4,0 H 4"
         id="path99" />
    </g>
    <g
       transform="translate(252.1583,252.1682)"
       style="color-interpolation:linearRGB;fill:#edb120;stroke:#000000;stroke-width:2.6;stroke-linecap:butt;stroke-miterlimit:10;stroke-dasharray:none;stroke-opacity:1;color-rendering:optimizeQuality;image-rendering:optimizeQuality;text-rendering:geometricPrecision"
       id="g105">
      <path
         style="fill:none;stroke:#000000;stroke-width:2.6;stroke-miterlimit:10;stroke-dasharray:none;stroke-opacity:1"
         d="M -4,0 H 4"
         id="path103" />
    </g>
    <g
       transform="translate(470.7194,148.5028)"
       style="color-interpolation:linearRGB;fill:#edb120;stroke:#000000;stroke-width:2.6;stroke-miterlimit:10;stroke-dasharray:none;stroke-opacity:1;color-rendering:optimizeQuality;image-rendering:optimizeQuality;text-rendering:geometricPrecision"
       id="g109">
      <path
         style="stroke:#000000;stroke-width:2.6;stroke-miterlimit:10;stroke-dasharray:none;stroke-opacity:1"
         d="M -4,0 H 4"
         id="path107" />
    </g>
    <g
       transform="translate(470.7194,148.5028)"
       style="color-interpolation:linearRGB;fill:#edb120;stroke:#000000;stroke-width:2.6;stroke-linecap:butt;stroke-miterlimit:10;stroke-dasharray:none;stroke-opacity:1;color-rendering:optimizeQuality;image-rendering:optimizeQuality;text-rendering:geometricPrecision"
       id="g113">
      <path
         style="fill:none;stroke:#000000;stroke-width:2.6;stroke-miterlimit:10;stroke-dasharray:none;stroke-opacity:1"
         d="M -4,0 H 4"
         id="path111" />
    </g>
    <g
       transform="translate(689.2806,189.3397)"
       style="color-interpolation:linearRGB;fill:#edb120;stroke:#000000;stroke-width:2.6;stroke-miterlimit:10;stroke-dasharray:none;stroke-opacity:1;color-rendering:optimizeQuality;image-rendering:optimizeQuality;text-rendering:geometricPrecision"
       id="g117">
      <path
         style="stroke:#000000;stroke-width:2.6;stroke-miterlimit:10;stroke-dasharray:none;stroke-opacity:1"
         d="M -4,0 H 4"
         id="path115" />
    </g>
    <g
       transform="translate(689.2806,189.3397)"
       style="color-interpolation:linearRGB;fill:#edb120;stroke:#000000;stroke-width:2.6;stroke-linecap:butt;stroke-miterlimit:10;stroke-dasharray:none;stroke-opacity:1;color-rendering:optimizeQuality;image-rendering:optimizeQuality;text-rendering:geometricPrecision"
       id="g121">
      <path
         style="fill:none;stroke:#000000;stroke-width:2.6;stroke-miterlimit:10;stroke-dasharray:none;stroke-opacity:1"
         d="M -4,0 H 4"
         id="path119" />
    </g>
    <g
       transform="translate(907.8417,119.2507)"
       style="color-interpolation:linearRGB;fill:#edb120;stroke:#000000;stroke-width:2.6;stroke-miterlimit:10;stroke-dasharray:none;stroke-opacity:1;color-rendering:optimizeQuality;image-rendering:optimizeQuality;text-rendering:geometricPrecision"
       id="g125">
      <path
         style="stroke:#000000;stroke-width:2.6;stroke-miterlimit:10;stroke-dasharray:none;stroke-opacity:1"
         d="M -4,0 H 4"
         id="path123" />
    </g>
    <path
       style="color-interpolation:linearRGB;fill:none;stroke:#000000;stroke-width:2.6;stroke-linecap:butt;stroke-miterlimit:10;stroke-dasharray:none;stroke-opacity:1;color-rendering:optimizeQuality;image-rendering:optimizeQuality;text-rendering:geometricPrecision"
       d="m 903.8417,119.2507 h 8"
       id="path127" />
    <g
       transform="translate(907.8417,118.3212)"
       style="color-interpolation:linearRGB;fill:#7e2f8e;stroke:#000000;stroke-width:2.6;stroke-miterlimit:10;stroke-dasharray:none;stroke-opacity:1;color-rendering:optimizeQuality;image-rendering:optimizeQuality;text-rendering:geometricPrecision"
       id="g175">
      <path
         style="stroke:#000000;stroke-width:2.6;stroke-miterlimit:10;stroke-dasharray:none;stroke-opacity:1"
         d="M -4,0 H 4"
         id="path173" />
    </g>
    <g
       transform="translate(907.8417,118.3212)"
       style="color-interpolation:linearRGB;fill:#7e2f8e;stroke:#000000;stroke-width:2.6;stroke-linecap:butt;stroke-miterlimit:10;stroke-dasharray:none;stroke-opacity:1;color-rendering:optimizeQuality;image-rendering:optimizeQuality;text-rendering:geometricPrecision"
       id="g179" />
    <g
       transform="translate(689.2806,275.5656)"
       style="color-interpolation:linearRGB;fill:#7e2f8e;stroke:#000000;stroke-width:2.6;stroke-miterlimit:10;stroke-dasharray:none;stroke-opacity:1;color-rendering:optimizeQuality;image-rendering:optimizeQuality;text-rendering:geometricPrecision"
       id="g199">
      <path
         style="stroke:#000000;stroke-width:2.6;stroke-miterlimit:10;stroke-dasharray:none;stroke-opacity:1"
         d="M -4,0 H 4"
         id="path197" />
    </g>
    <g
       transform="translate(689.2806,275.5656)"
       style="color-interpolation:linearRGB;fill:#7e2f8e;stroke:#000000;stroke-width:2.6;stroke-linecap:butt;stroke-miterlimit:10;stroke-dasharray:none;stroke-opacity:1;color-rendering:optimizeQuality;image-rendering:optimizeQuality;text-rendering:geometricPrecision"
       id="g203">
      <path
         style="fill:none;stroke:#000000;stroke-width:2.6;stroke-miterlimit:10;stroke-dasharray:none;stroke-opacity:1"
         d="M -4,0 H 4"
         id="path201" />
    </g>
  </g>
  <line
     y2="727.875"
     style="color-interpolation:linearRGB;fill:none;stroke:#262626;stroke-width:2.067;stroke-linejoin:round;stroke-miterlimit:10;stroke-dasharray:none;color-rendering:optimizeQuality;image-rendering:optimizeQuality;text-rendering:geometricPrecision"
     x1="117.5648"
     x2="985.56482"
     y1="727.875"
     id="line213" />
  <line
     y2="719.19501"
     style="color-interpolation:linearRGB;fill:none;stroke:#262626;stroke-width:2.067;stroke-linejoin:round;stroke-miterlimit:10;stroke-dasharray:none;color-rendering:optimizeQuality;image-rendering:optimizeQuality;text-rendering:geometricPrecision"
     x1="223.7231"
     x2="223.7231"
     y1="727.875"
     id="line217" />
  <line
     y2="719.19501"
     style="color-interpolation:linearRGB;fill:none;stroke:#262626;stroke-width:2.067;stroke-linejoin:round;stroke-miterlimit:10;stroke-dasharray:none;color-rendering:optimizeQuality;image-rendering:optimizeQuality;text-rendering:geometricPrecision"
     x1="442.28418"
     x2="442.28418"
     y1="727.875"
     id="line219" />
  <line
     y2="719.19501"
     style="color-interpolation:linearRGB;fill:none;stroke:#262626;stroke-width:2.067;stroke-linejoin:round;stroke-miterlimit:10;stroke-dasharray:none;color-rendering:optimizeQuality;image-rendering:optimizeQuality;text-rendering:geometricPrecision"
     x1="660.8454"
     x2="660.8454"
     y1="727.875"
     id="line221" />
  <line
     y2="719.19501"
     style="color-interpolation:linearRGB;fill:none;stroke:#262626;stroke-width:2.067;stroke-linejoin:round;stroke-miterlimit:10;stroke-dasharray:none;color-rendering:optimizeQuality;image-rendering:optimizeQuality;text-rendering:geometricPrecision"
     x1="879.40649"
     x2="879.40649"
     y1="727.875"
     id="line223" />
  <g
     style="color-interpolation:linearRGB;fill:#262626;stroke:#262626;stroke-width:2.267;stroke-linejoin:round;stroke-miterlimit:10;stroke-dasharray:none;color-rendering:optimizeQuality;image-rendering:optimizeQuality;text-rendering:geometricPrecision"
     id="g287"
     transform="translate(-28.4352,-16.125)">
    <line
       y2="63"
       style="fill:none;stroke-width:2.267;stroke-miterlimit:10;stroke-dasharray:none"
       x1="146"
       x2="146"
       y1="744"
       id="line251" />
    <line
       y2="63"
       style="fill:none;stroke-width:2.267;stroke-miterlimit:10;stroke-dasharray:none"
       x1="1014"
       x2="1014"
       y1="744"
       id="line253" />
    <line
       y2="744"
       style="fill:none;stroke-width:2.267;stroke-miterlimit:10;stroke-dasharray:none"
       x1="146"
       x2="154.67999"
       y1="744"
       id="line255" />
    <line
       y2="646.71429"
       style="fill:none;stroke-width:2.267;stroke-miterlimit:10;stroke-dasharray:none"
       x1="146"
       x2="154.67999"
       y1="646.71429"
       id="line257" />
    <line
       y2="549.42859"
       style="fill:none;stroke-width:2.267;stroke-miterlimit:10;stroke-dasharray:none"
       x1="146"
       x2="154.67999"
       y1="549.42859"
       id="line259" />
    <line
       y2="452.14291"
       style="fill:none;stroke-width:2.267;stroke-miterlimit:10;stroke-dasharray:none"
       x1="146"
       x2="154.67999"
       y1="452.14291"
       id="line261" />
    <line
       y2="354.85709"
       style="fill:none;stroke-width:2.267;stroke-miterlimit:10;stroke-dasharray:none"
       x1="146"
       x2="154.67999"
       y1="354.85709"
       id="line263" />
    <line
       y2="257.57141"
       style="fill:none;stroke-width:2.267;stroke-miterlimit:10;stroke-dasharray:none"
       x1="146"
       x2="154.67999"
       y1="257.57141"
       id="line265" />
    <line
       y2="160.28571"
       style="fill:none;stroke-width:2.267;stroke-miterlimit:10;stroke-dasharray:none"
       x1="146"
       x2="154.67999"
       y1="160.28571"
       id="line267" />
    <line
       y2="63"
       style="fill:none;stroke-width:2.267;stroke-miterlimit:10;stroke-dasharray:none"
       x1="146"
       x2="154.67999"
       y1="63"
       id="line269" />
    <line
       y2="744"
       style="fill:none;stroke-width:2.267;stroke-miterlimit:10;stroke-dasharray:none"
       x1="1014"
       x2="1005.32"
       y1="744"
       id="line271" />
    <line
       y2="646.71429"
       style="fill:none;stroke-width:2.267;stroke-miterlimit:10;stroke-dasharray:none"
       x1="1014"
       x2="1005.32"
       y1="646.71429"
       id="line273" />
    <line
       y2="549.42859"
       style="fill:none;stroke-width:2.267;stroke-miterlimit:10;stroke-dasharray:none"
       x1="1014"
       x2="1005.32"
       y1="549.42859"
       id="line275" />
    <line
       y2="452.14291"
       style="fill:none;stroke-width:2.267;stroke-miterlimit:10;stroke-dasharray:none"
       x1="1014"
       x2="1005.32"
       y1="452.14291"
       id="line277" />
    <line
       y2="354.85709"
       style="fill:none;stroke-width:2.267;stroke-miterlimit:10;stroke-dasharray:none"
       x1="1014"
       x2="1005.32"
       y1="354.85709"
       id="line279" />
    <line
       y2="257.57141"
       style="fill:none;stroke-width:2.267;stroke-miterlimit:10;stroke-dasharray:none"
       x1="1014"
       x2="1005.32"
       y1="257.57141"
       id="line281" />
    <line
       y2="160.28571"
       style="fill:none;stroke-width:2.267;stroke-miterlimit:10;stroke-dasharray:none"
       x1="1014"
       x2="1005.32"
       y1="160.28571"
       id="line283" />
    <line
       y2="63"
       style="fill:none;stroke-width:2.267;stroke-miterlimit:10;stroke-dasharray:none"
       x1="1014"
       x2="1005.32"
       y1="63"
       id="line285" />
  </g>
  <g
     transform="translate(110.8981,727.875)"
     style="font-size:20px;font-family:SansSerif;color-interpolation:linearRGB;fill:#262626;stroke:#262626;color-rendering:optimizeQuality;image-rendering:optimizeQuality;text-rendering:geometricPrecision"
     id="g291">
    <path
       style="stroke:none"
       d="m -6.6406,-6.2812 q -1.5313,0 -2.2969,1.5 -0.7656,1.5 -0.7656,4.5 0,3 0.7656,4.5 0.7656,1.5 2.2969,1.5 1.5312,0 2.2968,-1.5 0.7657,-1.5 0.7657,-4.5 0,-3 -0.7657,-4.5 -0.7656,-1.5 -2.2968,-1.5 z m 0,-1.5626 q 2.4531,0 3.7422,1.9376 1.289,1.9374 1.289,5.625 0,3.6874 -1.289,5.625 -1.2891,1.9374 -3.7422,1.9374 -2.4532,0 -3.75,-1.9374 -1.2969,-1.9376 -1.2969,-5.625 0,-3.6876 1.2969,-5.625 1.2968,-1.9376 3.75,-1.9376 z"
       id="path289" />
  </g>
  <g
     transform="translate(110.8981,630.5893)"
     style="font-size:20px;font-family:SansSerif;color-interpolation:linearRGB;fill:#262626;stroke:#262626;color-rendering:optimizeQuality;image-rendering:optimizeQuality;text-rendering:geometricPrecision"
     id="g295">
    <path
       style="stroke:none"
       d="m -25.6406,-6.2812 q -1.5313,0 -2.2969,1.5 -0.7656,1.5 -0.7656,4.5 0,3 0.7656,4.5 0.7656,1.5 2.2969,1.5 1.5312,0 2.2968,-1.5 0.7657,-1.5 0.7657,-4.5 0,-3 -0.7657,-4.5 -0.7656,-1.5 -2.2968,-1.5 z m 0,-1.5626 q 2.4531,0 3.7422,1.9376 1.289,1.9374 1.289,5.625 0,3.6874 -1.289,5.625 -1.2891,1.9374 -3.7422,1.9374 -2.4532,0 -3.75,-1.9374 -1.2969,-1.9376 -1.2969,-5.625 0,-3.6876 1.2969,-5.625 1.2968,-1.9376 3.75,-1.9376 z m 8.5058,12.3594 h 2.0625 V 7 h -2.0625 z m 6.3731,-12.0937 h 7.75 v 1.6562 h -5.9375 v 3.5781 q 0.4219,-0.1562 0.8515,-0.2265 0.4297,-0.0703 0.8672,-0.0703 2.4375,0 3.8672,1.3359 1.4297,1.3359 1.4297,3.6328 0,2.3438 -1.4687,3.6485 -1.4688,1.3046 -4.1407,1.3046 -0.9062,0 -1.8593,-0.1562 -0.9532,-0.1562 -1.9688,-0.4688 V 4.6719 q 0.875,0.4843 1.8125,0.7187 0.9375,0.2344 1.9844,0.2344 1.6875,0 2.6719,-0.8906 0.9843,-0.8906 0.9843,-2.4063 0,-1.5312 -0.9843,-2.4219 -0.9844,-0.8906 -2.6719,-0.8906 -0.7969,0 -1.5781,0.1797 -0.7813,0.1797 -1.6094,0.5547 z"
       id="path293" />
  </g>
  <g
     transform="translate(110.8981,533.3036)"
     style="font-size:20px;font-family:SansSerif;color-interpolation:linearRGB;fill:#262626;stroke:#262626;color-rendering:optimizeQuality;image-rendering:optimizeQuality;text-rendering:geometricPrecision"
     id="g299">
    <path
       style="stroke:none"
       d="m -10.5156,5.3438 h 3.2187 v -11.125 l -3.5,0.7031 V -6.875 l 3.4844,-0.7031 h 1.9687 V 5.3438 H -2.125 V 7 h -8.3906 z"
       id="path297" />
  </g>
  <g
     transform="translate(110.8981,436.0179)"
     style="font-size:20px;font-family:SansSerif;color-interpolation:linearRGB;fill:#262626;stroke:#262626;color-rendering:optimizeQuality;image-rendering:optimizeQuality;text-rendering:geometricPrecision"
     id="g303">
    <path
       style="stroke:none"
       d="m -29.5156,5.3438 h 3.2187 v -11.125 l -3.5,0.7031 V -6.875 l 3.4844,-0.7031 h 1.9687 V 5.3438 h 3.2188 V 7 h -8.3906 z m 12.3808,-0.8282 h 2.0625 V 7 h -2.0625 z m 6.3731,-12.0937 h 7.75 v 1.6562 h -5.9375 v 3.5781 q 0.4219,-0.1562 0.8515,-0.2265 0.4297,-0.0703 0.8672,-0.0703 2.4375,0 3.8672,1.3359 1.4297,1.3359 1.4297,3.6328 0,2.3438 -1.4687,3.6485 -1.4688,1.3046 -4.1407,1.3046 -0.9062,0 -1.8593,-0.1562 -0.9532,-0.1562 -1.9688,-0.4688 V 4.6719 q 0.875,0.4843 1.8125,0.7187 0.9375,0.2344 1.9844,0.2344 1.6875,0 2.6719,-0.8906 0.9843,-0.8906 0.9843,-2.4063 0,-1.5312 -0.9843,-2.4219 -0.9844,-0.8906 -2.6719,-0.8906 -0.7969,0 -1.5781,0.1797 -0.7813,0.1797 -1.6094,0.5547 z"
       id="path301" />
  </g>
  <g
     transform="translate(110.8981,338.7321)"
     style="font-size:20px;font-family:SansSerif;color-interpolation:linearRGB;fill:#262626;stroke:#262626;color-rendering:optimizeQuality;image-rendering:optimizeQuality;text-rendering:geometricPrecision"
     id="g307">
    <path
       style="stroke:none"
       d="m -9.1562,5.3438 h 6.875 V 7 h -9.25 V 5.3438 q 1.125,-1.1719 3.0624,-3.125 1.9376,-1.9532 2.4376,-2.5313 0.9374,-1.0625 1.3124,-1.7969 0.375,-0.7344 0.375,-1.4531 0,-1.1563 -0.8124,-1.8906 -0.8126,-0.7344 -2.125,-0.7344 -0.9219,0 -1.9532,0.3203 -1.0312,0.3203 -2.2031,0.9766 V -6.875 q 1.1875,-0.4844 2.2266,-0.7266 1.039,-0.2422 1.8984,-0.2422 2.2656,0 3.6094,1.1329 1.3437,1.1328 1.3437,3.0234 0,0.9063 -0.3359,1.7109 -0.3359,0.8047 -1.2266,1.8985 -0.2343,0.2812 -1.5469,1.6328 -1.3124,1.3515 -3.6874,3.7891 z"
       id="path305" />
  </g>
  <g
     transform="translate(110.8981,241.4464)"
     style="font-size:20px;font-family:SansSerif;color-interpolation:linearRGB;fill:#262626;stroke:#262626;color-rendering:optimizeQuality;image-rendering:optimizeQuality;text-rendering:geometricPrecision"
     id="g311">
    <path
       style="stroke:none"
       d="m -28.1562,5.3438 h 6.875 V 7 h -9.25 V 5.3438 q 1.125,-1.1719 3.0624,-3.125 1.9376,-1.9532 2.4376,-2.5313 0.9374,-1.0625 1.3124,-1.7969 0.375,-0.7344 0.375,-1.4531 0,-1.1563 -0.8124,-1.8906 -0.8126,-0.7344 -2.125,-0.7344 -0.9219,0 -1.9532,0.3203 -1.0312,0.3203 -2.2031,0.9766 V -6.875 q 1.1875,-0.4844 2.2266,-0.7266 1.039,-0.2422 1.8984,-0.2422 2.2656,0 3.6094,1.1329 1.3437,1.1328 1.3437,3.0234 0,0.9063 -0.3359,1.7109 -0.3359,0.8047 -1.2266,1.8985 -0.2343,0.2812 -1.5469,1.6328 -1.3124,1.3515 -3.6874,3.7891 z m 11.0214,-0.8282 h 2.0625 V 7 h -2.0625 z m 6.3731,-12.0937 h 7.75 v 1.6562 h -5.9375 v 3.5781 q 0.4219,-0.1562 0.8515,-0.2265 0.4297,-0.0703 0.8672,-0.0703 2.4375,0 3.8672,1.3359 1.4297,1.3359 1.4297,3.6328 0,2.3438 -1.4687,3.6485 -1.4688,1.3046 -4.1407,1.3046 -0.9062,0 -1.8593,-0.1562 -0.9532,-0.1562 -1.9688,-0.4688 V 4.6719 q 0.875,0.4843 1.8125,0.7187 0.9375,0.2344 1.9844,0.2344 1.6875,0 2.6719,-0.8906 0.9843,-0.8906 0.9843,-2.4063 0,-1.5312 -0.9843,-2.4219 -0.9844,-0.8906 -2.6719,-0.8906 -0.7969,0 -1.5781,0.1797 -0.7813,0.1797 -1.6094,0.5547 z"
       id="path309" />
  </g>
  <g
     transform="translate(110.8981,144.1607)"
     style="font-size:20px;font-family:SansSerif;color-interpolation:linearRGB;fill:#262626;stroke:#262626;color-rendering:optimizeQuality;image-rendering:optimizeQuality;text-rendering:geometricPrecision"
     id="g315">
    <path
       style="stroke:none"
       d="m -4.8906,-0.8594 q 1.4218,0.2969 2.2187,1.2578 0.7969,0.961 0.7969,2.3672 0,2.1563 -1.4844,3.336 -1.4844,1.1796 -4.2187,1.1796 -0.9219,0 -1.8907,-0.1796 -0.9687,-0.1797 -2,-0.5391 V 4.6562 q 0.8126,0.4844 1.7891,0.7266 0.9766,0.2422 2.0391,0.2422 1.8594,0 2.8281,-0.7344 0.9687,-0.7344 0.9687,-2.125 0,-1.2968 -0.8984,-2.0234 Q -5.6406,0.0156 -7.25,0.0156 h -1.7031 v -1.625 h 1.7812 q 1.4531,0 2.2188,-0.5781 0.7656,-0.5781 0.7656,-1.6719 0,-1.125 -0.7891,-1.7265 -0.789,-0.6016 -2.2734,-0.6016 -0.8125,0 -1.7422,0.1797 -0.9297,0.1797 -2.039,0.539 v -1.75 q 1.125,-0.3124 2.1015,-0.4687 0.9766,-0.1563 1.8516,-0.1563 2.25,0 3.5547,1.0235 1.3046,1.0234 1.3046,2.7578 0,1.2031 -0.6953,2.0391 -0.6953,0.8359 -1.9765,1.164 z"
       id="path313" />
  </g>
  <g
     transform="translate(110.8981,46.875)"
     style="font-size:20px;font-family:SansSerif;color-interpolation:linearRGB;fill:#262626;stroke:#262626;color-rendering:optimizeQuality;image-rendering:optimizeQuality;text-rendering:geometricPrecision"
     id="g319">
    <path
       style="stroke:none"
       d="m -23.8906,-0.8594 q 1.4218,0.2969 2.2187,1.2578 0.7969,0.961 0.7969,2.3672 0,2.1563 -1.4844,3.336 -1.4844,1.1796 -4.2187,1.1796 -0.9219,0 -1.8907,-0.1796 -0.9687,-0.1797 -2,-0.5391 V 4.6562 q 0.8126,0.4844 1.7891,0.7266 0.9766,0.2422 2.0391,0.2422 1.8594,0 2.8281,-0.7344 0.9687,-0.7344 0.9687,-2.125 0,-1.2968 -0.8984,-2.0234 -0.8984,-0.7266 -2.5078,-0.7266 h -1.7031 v -1.625 h 1.7812 q 1.4531,0 2.2188,-0.5781 0.7656,-0.5781 0.7656,-1.6719 0,-1.125 -0.7891,-1.7265 -0.789,-0.6016 -2.2734,-0.6016 -0.8125,0 -1.7422,0.1797 -0.9297,0.1797 -2.039,0.539 v -1.75 q 1.125,-0.3124 2.1015,-0.4687 0.9766,-0.1563 1.8516,-0.1563 2.25,0 3.5547,1.0235 1.3046,1.0234 1.3046,2.7578 0,1.2031 -0.6953,2.0391 -0.6953,0.8359 -1.9765,1.164 z m 6.7558,5.375 h 2.0625 V 7 h -2.0625 z m 6.3731,-12.0937 h 7.75 v 1.6562 h -5.9375 v 3.5781 q 0.4219,-0.1562 0.8515,-0.2265 0.4297,-0.0703 0.8672,-0.0703 2.4375,0 3.8672,1.3359 1.4297,1.3359 1.4297,3.6328 0,2.3438 -1.4687,3.6485 -1.4688,1.3046 -4.1407,1.3046 -0.9062,0 -1.8593,-0.1562 -0.9532,-0.1562 -1.9688,-0.4688 V 4.6719 q 0.875,0.4843 1.8125,0.7187 0.9375,0.2344 1.9844,0.2344 1.6875,0 2.6719,-0.8906 0.9843,-0.8906 0.9843,-2.4063 0,-1.5312 -0.9843,-2.4219 -0.9844,-0.8906 -2.6719,-0.8906 -0.7969,0 -1.5781,0.1797 -0.7813,0.1797 -1.6094,0.5547 z"
       id="path317" />
  </g>
  <g
     transform="translate(117.5648,41.875)"
     style="font-size:20px;font-family:mwb_cmsy10;color-interpolation:linearRGB;fill:#262626;stroke:#262626;color-rendering:optimizeQuality;image-rendering:optimizeQuality;text-rendering:geometricPrecision"
     id="g323">
    <path
       style="stroke:none"
       d="m 2.9375,-0.5781 q 0,-0.1563 0.0937,-0.2813 L 7.2031,-5 3.0312,-9.1562 q -0.0937,-0.1094 -0.0937,-0.2657 0,-0.1562 0.1172,-0.2812 0.1172,-0.125 0.2891,-0.125 0.1406,0 0.2968,0.125 l 4.1406,4.1406 4.125,-4.1406 q 0.1719,-0.125 0.2969,-0.125 0.1563,0 0.2735,0.1172 0.1172,0.1171 0.1172,0.289 0,0.1563 -0.0938,0.2657 L 8.3438,-5 12.5,-0.8594 q 0.0938,0.125 0.0938,0.2813 0,0.1719 -0.1172,0.289 -0.1172,0.1172 -0.2735,0.1172 -0.1562,0 -0.2969,-0.1562 L 7.7812,-4.4375 3.6406,-0.3281 Q 3.5,-0.1719 3.3438,-0.1719 q -0.1719,0 -0.2891,-0.1328 -0.1172,-0.1328 -0.1172,-0.2734 z"
       id="path321" />
  </g>
  <g
     transform="translate(133.5648,41.875)"
     style="font-size:20px;font-family:SansSerif;color-interpolation:linearRGB;fill:#262626;stroke:#262626;color-rendering:optimizeQuality;image-rendering:optimizeQuality;text-rendering:geometricPrecision"
     id="g327">
    <path
       style="stroke:none"
       d="m 2.4844,-1.6562 h 3.2187 v -11.125 l -3.5,0.7031 v -1.7969 l 3.4844,-0.7031 H 7.6562 V -1.6562 H 10.875 V 0 H 2.4844 Z m 16.5996,-11.625 q -1.5313,0 -2.2969,1.5 -0.7656,1.5 -0.7656,4.5 0,3 0.7656,4.5 0.7656,1.5 2.2969,1.5 1.5312,0 2.2969,-1.5 0.7656,-1.5 0.7656,-4.5 0,-3 -0.7656,-4.5 -0.7657,-1.5 -2.2969,-1.5 z m 0,-1.5626 q 2.4531,0 3.7422,1.9376 1.289,1.9374 1.289,5.625 0,3.6874 -1.289,5.625 -1.2891,1.9374 -3.7422,1.9374 -2.4531,0 -3.75,-1.9374 -1.2969,-1.9376 -1.2969,-5.625 0,-3.6876 1.2969,-5.625 1.2969,-1.9376 3.75,-1.9376 z"
       id="path325" />
  </g>
  <g
     transform="translate(159.5648,31.875)"
     style="font-size:16px;font-family:SansSerif;color-interpolation:linearRGB;fill:#262626;stroke:#262626;color-rendering:optimizeQuality;image-rendering:optimizeQuality;text-rendering:geometricPrecision"
     id="g331">
    <path
       style="stroke:none"
       d="m 1.7656,-0.25 v -1.4375 q 0.5938,0.2813 1.2032,0.4297 0.6093,0.1484 1.1874,0.1484 1.5626,0 2.3907,-1.0468 0.8281,-1.0469 0.9375,-3.1876 -0.4532,0.6719 -1.1485,1.0313 -0.6953,0.3594 -1.539,0.3594 -1.75,0 -2.7657,-1.0625 -1.0156,-1.0625 -1.0156,-2.8906 0,-1.7969 1.0625,-2.8829 1.0625,-1.0859 2.8281,-1.0859 2.0157,0 3.086,1.5469 1.0703,1.5469 1.0703,4.5 0,2.7656 -1.3125,4.414 -1.3125,1.6485 -3.5156,1.6485 -0.5938,0 -1.2032,-0.125 Q 2.4219,-0.0156 1.7656,-0.25 Z m 3.1406,-4.9375 q 1.0626,0 1.6797,-0.7266 0.6172,-0.7265 0.6172,-1.9921 0,-1.2657 -0.6172,-1.9922 -0.6171,-0.7266 -1.6797,-0.7266 -1.0624,0 -1.6874,0.7266 -0.625,0.7265 -0.625,1.9922 0,1.2656 0.625,1.9921 0.625,0.7266 1.6874,0.7266 z"
       id="path329" />
  </g>
  <g
     id="g1438"
     transform="translate(3.5647997,-16.125)"
     style="stroke:#000000;stroke-width:2.6;stroke-miterlimit:10;stroke-dasharray:none;stroke-opacity:1">
    <line
       x1="470.71939"
       x2="470.71939"
       y1="447.1221"
       style="color-interpolation:linearRGB;fill:none;stroke:#000000;stroke-width:2.6;stroke-linecap:butt;stroke-linejoin:round;stroke-miterlimit:10;stroke-dasharray:none;stroke-opacity:1;color-rendering:optimizeQuality;image-rendering:optimizeQuality;text-rendering:geometricPrecision"
       y2="461.22"
       id="line131" />
    <line
       x1="689.28058"
       x2="689.28058"
       y1="299.92941"
       style="color-interpolation:linearRGB;fill:none;stroke:#000000;stroke-width:2.6;stroke-linecap:butt;stroke-linejoin:round;stroke-miterlimit:10;stroke-dasharray:none;stroke-opacity:1;color-rendering:optimizeQuality;image-rendering:optimizeQuality;text-rendering:geometricPrecision"
       y2="324.29309"
       id="line133" />
    <line
       x1="907.84167"
       x2="907.84167"
       y1="97.366997"
       style="color-interpolation:linearRGB;fill:none;stroke:#000000;stroke-width:2.6;stroke-linecap:butt;stroke-linejoin:round;stroke-miterlimit:10;stroke-dasharray:none;stroke-opacity:1;color-rendering:optimizeQuality;image-rendering:optimizeQuality;text-rendering:geometricPrecision"
       y2="118.3212"
       id="line135" />
    <line
       x1="470.71939"
       x2="470.71939"
       y1="447.1221"
       style="color-interpolation:linearRGB;fill:none;stroke:#000000;stroke-width:2.6;stroke-linecap:butt;stroke-linejoin:round;stroke-miterlimit:10;stroke-dasharray:none;stroke-opacity:1;color-rendering:optimizeQuality;image-rendering:optimizeQuality;text-rendering:geometricPrecision"
       y2="433.0242"
       id="line139" />
    <line
       x1="689.28058"
       x2="689.28058"
       y1="299.92941"
       style="color-interpolation:linearRGB;fill:none;stroke:#000000;stroke-width:2.6;stroke-linecap:butt;stroke-linejoin:round;stroke-miterlimit:10;stroke-dasharray:none;stroke-opacity:1;color-rendering:optimizeQuality;image-rendering:optimizeQuality;text-rendering:geometricPrecision"
       y2="275.56561"
       id="line141" />
    <line
       x1="907.84167"
       x2="907.84167"
       y1="97.366997"
       style="color-interpolation:linearRGB;fill:none;stroke:#000000;stroke-width:2.6;stroke-linecap:butt;stroke-linejoin:round;stroke-miterlimit:10;stroke-dasharray:none;stroke-opacity:1;color-rendering:optimizeQuality;image-rendering:optimizeQuality;text-rendering:geometricPrecision"
       y2="76.412903"
       id="line143" />
    <g
       transform="translate(470.7194,461.22)"
       style="color-interpolation:linearRGB;fill:#7e2f8e;stroke:#000000;stroke-width:2.6;stroke-miterlimit:10;stroke-dasharray:none;stroke-opacity:1;color-rendering:optimizeQuality;image-rendering:optimizeQuality;text-rendering:geometricPrecision"
       id="g159">
      <path
         style="stroke:#000000;stroke-width:2.6;stroke-miterlimit:10;stroke-dasharray:none;stroke-opacity:1"
         d="M -4,0 H 4"
         id="path157" />
    </g>
    <g
       transform="translate(470.7194,461.22)"
       style="color-interpolation:linearRGB;fill:#7e2f8e;stroke:#000000;stroke-width:2.6;stroke-linecap:butt;stroke-miterlimit:10;stroke-dasharray:none;stroke-opacity:1;color-rendering:optimizeQuality;image-rendering:optimizeQuality;text-rendering:geometricPrecision"
       id="g163">
      <path
         style="fill:none;stroke:#000000;stroke-width:2.6;stroke-miterlimit:10;stroke-dasharray:none;stroke-opacity:1"
         d="M -4,0 H 4"
         id="path161" />
    </g>
    <g
       transform="translate(689.2806,324.2931)"
       style="color-interpolation:linearRGB;fill:#7e2f8e;stroke:#000000;stroke-width:2.6;stroke-miterlimit:10;stroke-dasharray:none;stroke-opacity:1;color-rendering:optimizeQuality;image-rendering:optimizeQuality;text-rendering:geometricPrecision"
       id="g167">
      <path
         style="stroke:#000000;stroke-width:2.6;stroke-miterlimit:10;stroke-dasharray:none;stroke-opacity:1"
         d="M -4,0 H 4"
         id="path165" />
    </g>
    <g
       transform="translate(689.2806,324.2931)"
       style="color-interpolation:linearRGB;fill:#7e2f8e;stroke:#000000;stroke-width:2.6;stroke-linecap:butt;stroke-miterlimit:10;stroke-dasharray:none;stroke-opacity:1;color-rendering:optimizeQuality;image-rendering:optimizeQuality;text-rendering:geometricPrecision"
       id="g171">
      <path
         style="fill:none;stroke:#000000;stroke-width:2.6;stroke-miterlimit:10;stroke-dasharray:none;stroke-opacity:1"
         d="M -4,0 H 4"
         id="path169" />
    </g>
    <g
       transform="translate(470.7194,433.0242)"
       style="color-interpolation:linearRGB;fill:#7e2f8e;stroke:#000000;stroke-width:2.6;stroke-miterlimit:10;stroke-dasharray:none;stroke-opacity:1;color-rendering:optimizeQuality;image-rendering:optimizeQuality;text-rendering:geometricPrecision"
       id="g191">
      <path
         style="stroke:#000000;stroke-width:2.6;stroke-miterlimit:10;stroke-dasharray:none;stroke-opacity:1"
         d="M -4,0 H 4"
         id="path189" />
    </g>
    <g
       transform="translate(470.7194,433.0242)"
       style="color-interpolation:linearRGB;fill:#7e2f8e;stroke:#000000;stroke-width:2.6;stroke-linecap:butt;stroke-miterlimit:10;stroke-dasharray:none;stroke-opacity:1;color-rendering:optimizeQuality;image-rendering:optimizeQuality;text-rendering:geometricPrecision"
       id="g195">
      <path
         style="fill:none;stroke:#000000;stroke-width:2.6;stroke-miterlimit:10;stroke-dasharray:none;stroke-opacity:1"
         d="M -4,0 H 4"
         id="path193" />
    </g>
    <g
       transform="translate(907.8417,76.4129)"
       style="color-interpolation:linearRGB;fill:#7e2f8e;stroke:#000000;stroke-width:2.6;stroke-miterlimit:10;stroke-dasharray:none;stroke-opacity:1;color-rendering:optimizeQuality;image-rendering:optimizeQuality;text-rendering:geometricPrecision"
       id="g207">
      <path
         style="stroke:#000000;stroke-width:2.6;stroke-miterlimit:10;stroke-dasharray:none;stroke-opacity:1"
         d="M -4,0 H 4"
         id="path205" />
    </g>
    <g
       transform="translate(907.8417,76.4129)"
       style="color-interpolation:linearRGB;fill:#7e2f8e;stroke:#000000;stroke-width:2.6;stroke-linecap:butt;stroke-miterlimit:10;stroke-dasharray:none;stroke-opacity:1;color-rendering:optimizeQuality;image-rendering:optimizeQuality;text-rendering:geometricPrecision"
       id="g211">
      <path
         style="fill:none;stroke:#000000;stroke-width:2.6;stroke-miterlimit:10;stroke-dasharray:none;stroke-opacity:1"
         d="M -4,0 H 4"
         id="path209" />
    </g>
    <g
       transform="translate(689.2806,275.46266)"
       style="color-interpolation:linearRGB;fill:#7e2f8e;stroke:#000000;stroke-width:2.6;stroke-linecap:butt;stroke-miterlimit:10;stroke-dasharray:none;stroke-opacity:1;color-rendering:optimizeQuality;image-rendering:optimizeQuality;text-rendering:geometricPrecision"
       id="g1406">
      <path
         style="fill:none;stroke:#000000;stroke-width:2.6;stroke-miterlimit:10;stroke-dasharray:none;stroke-opacity:1"
         d="M -4,0 H 4"
         id="path1404" />
    </g>
    <g
       transform="translate(907.8417,118.33193)"
       style="color-interpolation:linearRGB;fill:#7e2f8e;stroke:#000000;stroke-width:2.6;stroke-linecap:butt;stroke-miterlimit:10;stroke-dasharray:none;stroke-opacity:1;color-rendering:optimizeQuality;image-rendering:optimizeQuality;text-rendering:geometricPrecision"
       id="g1410">
      <path
         style="fill:none;stroke:#000000;stroke-width:2.6;stroke-miterlimit:10;stroke-dasharray:none;stroke-opacity:1"
         d="M -4,0 H 4"
         id="path1408" />
    </g>
  </g>
  <text
     xml:space="preserve"
     style="font-style:normal;font-weight:normal;font-size:35.4657px;line-height:1.25;font-family:sans-serif;fill:#000000;fill-opacity:1;stroke:none;stroke-width:0.886644"
     x="418.3757"
     y="814.44684"
     id="text1442"><tspan
       sodipodi:role="line"
       id="tspan1440"
       x="418.3757"
       y="814.44684"
       style="stroke-width:0.886644">EGFP : JF669</tspan></text>
  <text
     xml:space="preserve"
     style="font-style:normal;font-weight:normal;font-size:33.6072px;line-height:1.25;font-family:sans-serif;fill:#000000;fill-opacity:1;stroke:none;stroke-width:0.840181"
     x="196.70616"
     y="763.38062"
     id="text1446"><tspan
       sodipodi:role="line"
       id="tspan1444"
       x="196.70616"
       y="763.38062"
       style="stroke-width:0.840181">1:0</tspan></text>
  <text
     xml:space="preserve"
     style="font-style:normal;font-weight:normal;font-size:33.6072px;line-height:1.25;font-family:sans-serif;fill:#000000;fill-opacity:1;stroke:none;stroke-width:0.840181"
     x="402.35928"
     y="767.21899"
     id="text1450"><tspan
       sodipodi:role="line"
       id="tspan1448"
       x="402.35928"
       y="767.21899"
       style="stroke-width:0.840181">1:0.5</tspan></text>
  <text
     xml:space="preserve"
     style="font-style:normal;font-weight:normal;font-size:33.6072px;line-height:1.25;font-family:sans-serif;fill:#000000;fill-opacity:1;stroke:none;stroke-width:0.840181"
     x="618.86316"
     y="765.98346"
     id="text1454"><tspan
       sodipodi:role="line"
       id="tspan1452"
       x="618.86316"
       y="765.98346"
       style="stroke-width:0.840181">1:1</tspan></text>
  <text
     xml:space="preserve"
     style="font-style:normal;font-weight:normal;font-size:33.6072px;line-height:1.25;font-family:sans-serif;fill:#000000;fill-opacity:1;stroke:none;stroke-width:0.840181"
     x="853.62164"
     y="769.83765"
     id="text1458"><tspan
       sodipodi:role="line"
       id="tspan1456"
       x="853.62164"
       y="769.83765"
       style="stroke-width:0.840181">1:2</tspan></text>
  <text
     xml:space="preserve"
     style="font-style:normal;font-weight:normal;font-size:33.6072px;line-height:1.25;font-family:sans-serif;fill:#000000;fill-opacity:1;stroke:none;stroke-width:0.840181"
     x="-524.74841"
     y="45.533596"
     id="text1472"
     transform="rotate(-90)"><tspan
       sodipodi:role="line"
       id="tspan1470"
       x="-524.74841"
       y="45.533596"
       style="stroke-width:0.840181">Photons / 10 frames</tspan></text>
</svg>
