<?xml version="1.0" encoding="UTF-8" standalone="no"?>
<svg
   xmlns:dc="http://purl.org/dc/elements/1.1/"
   xmlns:cc="http://creativecommons.org/ns#"
   xmlns:rdf="http://www.w3.org/1999/02/22-rdf-syntax-ns#"
   xmlns:svg="http://www.w3.org/2000/svg"
   xmlns="http://www.w3.org/2000/svg"
   xmlns:sodipodi="http://sodipodi.sourceforge.net/DTD/sodipodi-0.dtd"
   xmlns:inkscape="http://www.inkscape.org/namespaces/inkscape"
   version="1.1"
   id="svg2"
   xml:space="preserve"
   width="3840"
   height="1998.6667"
   viewBox="0 0 3840 1998.6667"
   sodipodi:docname="jf669_brightness2.svg"
   inkscape:version="1.0.2 (e86c870879, 2021-01-15)"><metadata
     id="metadata8"><rdf:RDF><cc:Work
         rdf:about=""><dc:format>image/svg+xml</dc:format><dc:type
           rdf:resource="http://purl.org/dc/dcmitype/StillImage" /><dc:title></dc:title></cc:Work></rdf:RDF></metadata><defs
     id="defs6"><clipPath
       clipPathUnits="userSpaceOnUse"
       id="clipPath20"><path
         d="M 0,14985 H 28800 V 0 H 0 Z"
         id="path18" /></clipPath></defs><sodipodi:namedview
     pagecolor="#ffffff"
     bordercolor="#666666"
     borderopacity="1"
     objecttolerance="10"
     gridtolerance="10"
     guidetolerance="10"
     inkscape:pageopacity="0"
     inkscape:pageshadow="2"
     inkscape:window-width="3840"
     inkscape:window-height="2099"
     id="namedview4"
     showgrid="false"
     inkscape:zoom="0.7132391"
     inkscape:cx="1947.1386"
     inkscape:cy="1115.562"
     inkscape:window-x="0"
     inkscape:window-y="37"
     inkscape:window-maximized="1"
     inkscape:current-layer="g10" /><g
     id="g10"
     inkscape:groupmode="layer"
     inkscape:label="ink_ext_XXXXXX"
     transform="matrix(1.3333333,0,0,-1.3333333,0,1998.6667)"><g
       id="g14"
       transform="scale(0.1)"><g
         id="g16"
         clip-path="url(#clipPath20)"><path
           d="M 0,0 H 28800 V 14985 H 0 Z"
           style="fill:#ffffff;fill-opacity:1;fill-rule:nonzero;stroke:none"
           id="path22" /></g></g><path
       d="M 0,0 H 2880 V 1498.5 H 0 Z"
       style="fill:#ffffff;fill-opacity:1;fill-rule:nonzero;stroke:none;stroke-width:0.1"
       id="path24" /><path
       d="M 374.25,165 H 1338 V 1386 H 374.25 Z"
       style="fill:#ffffff;fill-opacity:1;fill-rule:nonzero;stroke:none;stroke-width:0.1"
       id="path26" /><path
       d="M 374.25,165 H 1338"
       style="fill:none;stroke:#262626;stroke-width:0.50025;stroke-linecap:square;stroke-linejoin:round;stroke-miterlimit:10;stroke-dasharray:none;stroke-opacity:1"
       id="path28" /><path
       d="M 374.25,1386 H 1338"
       style="fill:none;stroke:#262626;stroke-width:0.50025;stroke-linecap:square;stroke-linejoin:round;stroke-miterlimit:10;stroke-dasharray:none;stroke-opacity:1"
       id="path30" /><path
       d="m 374.25,165 v 12.21"
       style="fill:none;stroke:#262626;stroke-width:0.50025;stroke-linecap:square;stroke-linejoin:round;stroke-miterlimit:10;stroke-dasharray:none;stroke-opacity:1"
       id="path32" /><path
       d="m 494.719,165 v 12.21"
       style="fill:none;stroke:#262626;stroke-width:0.50025;stroke-linecap:square;stroke-linejoin:round;stroke-miterlimit:10;stroke-dasharray:none;stroke-opacity:1"
       id="path34" /><path
       d="m 615.188,165 v 12.21"
       style="fill:none;stroke:#262626;stroke-width:0.50025;stroke-linecap:square;stroke-linejoin:round;stroke-miterlimit:10;stroke-dasharray:none;stroke-opacity:1"
       id="path36" /><path
       d="m 735.656,165 v 12.21"
       style="fill:none;stroke:#262626;stroke-width:0.50025;stroke-linecap:square;stroke-linejoin:round;stroke-miterlimit:10;stroke-dasharray:none;stroke-opacity:1"
       id="path38" /><path
       d="m 856.125,165 v 12.21"
       style="fill:none;stroke:#262626;stroke-width:0.50025;stroke-linecap:square;stroke-linejoin:round;stroke-miterlimit:10;stroke-dasharray:none;stroke-opacity:1"
       id="path40" /><path
       d="m 976.594,165 v 12.21"
       style="fill:none;stroke:#262626;stroke-width:0.50025;stroke-linecap:square;stroke-linejoin:round;stroke-miterlimit:10;stroke-dasharray:none;stroke-opacity:1"
       id="path42" /><path
       d="m 1097.06,165 v 12.21"
       style="fill:none;stroke:#262626;stroke-width:0.50025;stroke-linecap:square;stroke-linejoin:round;stroke-miterlimit:10;stroke-dasharray:none;stroke-opacity:1"
       id="path44" /><path
       d="m 1217.53,165 v 12.21"
       style="fill:none;stroke:#262626;stroke-width:0.50025;stroke-linecap:square;stroke-linejoin:round;stroke-miterlimit:10;stroke-dasharray:none;stroke-opacity:1"
       id="path46" /><path
       d="m 1338,165 v 12.21"
       style="fill:none;stroke:#262626;stroke-width:0.50025;stroke-linecap:square;stroke-linejoin:round;stroke-miterlimit:10;stroke-dasharray:none;stroke-opacity:1"
       id="path48" /><path
       d="m 374.25,1386 v -12.21"
       style="fill:none;stroke:#262626;stroke-width:0.50025;stroke-linecap:square;stroke-linejoin:round;stroke-miterlimit:10;stroke-dasharray:none;stroke-opacity:1"
       id="path50" /><path
       d="m 494.719,1386 v -12.21"
       style="fill:none;stroke:#262626;stroke-width:0.50025;stroke-linecap:square;stroke-linejoin:round;stroke-miterlimit:10;stroke-dasharray:none;stroke-opacity:1"
       id="path52" /><path
       d="m 615.188,1386 v -12.21"
       style="fill:none;stroke:#262626;stroke-width:0.50025;stroke-linecap:square;stroke-linejoin:round;stroke-miterlimit:10;stroke-dasharray:none;stroke-opacity:1"
       id="path54" /><path
       d="m 735.656,1386 v -12.21"
       style="fill:none;stroke:#262626;stroke-width:0.50025;stroke-linecap:square;stroke-linejoin:round;stroke-miterlimit:10;stroke-dasharray:none;stroke-opacity:1"
       id="path56" /><path
       d="m 856.125,1386 v -12.21"
       style="fill:none;stroke:#262626;stroke-width:0.50025;stroke-linecap:square;stroke-linejoin:round;stroke-miterlimit:10;stroke-dasharray:none;stroke-opacity:1"
       id="path58" /><path
       d="m 976.594,1386 v -12.21"
       style="fill:none;stroke:#262626;stroke-width:0.50025;stroke-linecap:square;stroke-linejoin:round;stroke-miterlimit:10;stroke-dasharray:none;stroke-opacity:1"
       id="path60" /><path
       d="m 1097.06,1386 v -12.21"
       style="fill:none;stroke:#262626;stroke-width:0.50025;stroke-linecap:square;stroke-linejoin:round;stroke-miterlimit:10;stroke-dasharray:none;stroke-opacity:1"
       id="path62" /><path
       d="m 1217.53,1386 v -12.21"
       style="fill:none;stroke:#262626;stroke-width:0.50025;stroke-linecap:square;stroke-linejoin:round;stroke-miterlimit:10;stroke-dasharray:none;stroke-opacity:1"
       id="path64" /><path
       d="m 1338,1386 v -12.21"
       style="fill:none;stroke:#262626;stroke-width:0.50025;stroke-linecap:square;stroke-linejoin:round;stroke-miterlimit:10;stroke-dasharray:none;stroke-opacity:1"
       id="path66" /><g
       id="g68"><text
         transform="matrix(1,0,0,-1,355.125,145.75)"
         style="font-variant:normal;font-weight:normal;font-size:15px;font-family:Helvetica;-inkscape-font-specification:Helvetica;writing-mode:lr-tb;fill:#262626;fill-opacity:1;fill-rule:nonzero;stroke:none"
         id="text72"><tspan
           x="0 8.3400002 16.68 25.02 120.46875 128.80875 137.14874 145.48875 240.9375 249.2775 257.61749 265.95749 361.40625 369.74625 378.08624 386.42624 481.875 490.215 498.55499 506.89499 602.34375 610.68378 619.02374 627.36377 722.8125 731.15253 739.49249 747.83252 843.28125 851.62128 859.96124 868.30127 963.75 972.09003 980.42999 988.77002"
           y="0"
           sodipodi:role="line"
           id="tspan70">110011101120113011401150116011701180</tspan></text></g><path
       d="M 374.25,165 V 1386"
       style="fill:none;stroke:#262626;stroke-width:0.50025;stroke-linecap:square;stroke-linejoin:round;stroke-miterlimit:10;stroke-dasharray:none;stroke-opacity:1"
       id="path74" /><path
       d="M 1338,165 V 1386"
       style="fill:none;stroke:#262626;stroke-width:0.50025;stroke-linecap:square;stroke-linejoin:round;stroke-miterlimit:10;stroke-dasharray:none;stroke-opacity:1"
       id="path76" /><path
       d="m 374.25,165 h 12.21"
       style="fill:none;stroke:#262626;stroke-width:0.50025;stroke-linecap:square;stroke-linejoin:round;stroke-miterlimit:10;stroke-dasharray:none;stroke-opacity:1"
       id="path78" /><path
       d="m 374.25,317.625 h 12.21"
       style="fill:none;stroke:#262626;stroke-width:0.50025;stroke-linecap:square;stroke-linejoin:round;stroke-miterlimit:10;stroke-dasharray:none;stroke-opacity:1"
       id="path80" /><path
       d="m 374.25,470.25 h 12.21"
       style="fill:none;stroke:#262626;stroke-width:0.50025;stroke-linecap:square;stroke-linejoin:round;stroke-miterlimit:10;stroke-dasharray:none;stroke-opacity:1"
       id="path82" /><path
       d="m 374.25,622.875 h 12.21"
       style="fill:none;stroke:#262626;stroke-width:0.50025;stroke-linecap:square;stroke-linejoin:round;stroke-miterlimit:10;stroke-dasharray:none;stroke-opacity:1"
       id="path84" /><path
       d="m 374.25,775.5 h 12.21"
       style="fill:none;stroke:#262626;stroke-width:0.50025;stroke-linecap:square;stroke-linejoin:round;stroke-miterlimit:10;stroke-dasharray:none;stroke-opacity:1"
       id="path86" /><path
       d="m 374.25,928.125 h 12.21"
       style="fill:none;stroke:#262626;stroke-width:0.50025;stroke-linecap:square;stroke-linejoin:round;stroke-miterlimit:10;stroke-dasharray:none;stroke-opacity:1"
       id="path88" /><path
       d="m 374.25,1080.75 h 12.21"
       style="fill:none;stroke:#262626;stroke-width:0.50025;stroke-linecap:square;stroke-linejoin:round;stroke-miterlimit:10;stroke-dasharray:none;stroke-opacity:1"
       id="path90" /><path
       d="m 374.25,1233.38 h 12.21"
       style="fill:none;stroke:#262626;stroke-width:0.50025;stroke-linecap:square;stroke-linejoin:round;stroke-miterlimit:10;stroke-dasharray:none;stroke-opacity:1"
       id="path92" /><path
       d="m 374.25,1386 h 12.21"
       style="fill:none;stroke:#262626;stroke-width:0.50025;stroke-linecap:square;stroke-linejoin:round;stroke-miterlimit:10;stroke-dasharray:none;stroke-opacity:1"
       id="path94" /><path
       d="m 1338,165 h -12.21"
       style="fill:none;stroke:#262626;stroke-width:0.50025;stroke-linecap:square;stroke-linejoin:round;stroke-miterlimit:10;stroke-dasharray:none;stroke-opacity:1"
       id="path96" /><path
       d="m 1338,317.625 h -12.21"
       style="fill:none;stroke:#262626;stroke-width:0.50025;stroke-linecap:square;stroke-linejoin:round;stroke-miterlimit:10;stroke-dasharray:none;stroke-opacity:1"
       id="path98" /><path
       d="m 1338,470.25 h -12.21"
       style="fill:none;stroke:#262626;stroke-width:0.50025;stroke-linecap:square;stroke-linejoin:round;stroke-miterlimit:10;stroke-dasharray:none;stroke-opacity:1"
       id="path100" /><path
       d="m 1338,622.875 h -12.21"
       style="fill:none;stroke:#262626;stroke-width:0.50025;stroke-linecap:square;stroke-linejoin:round;stroke-miterlimit:10;stroke-dasharray:none;stroke-opacity:1"
       id="path102" /><path
       d="m 1338,775.5 h -12.21"
       style="fill:none;stroke:#262626;stroke-width:0.50025;stroke-linecap:square;stroke-linejoin:round;stroke-miterlimit:10;stroke-dasharray:none;stroke-opacity:1"
       id="path104" /><path
       d="m 1338,928.125 h -12.21"
       style="fill:none;stroke:#262626;stroke-width:0.50025;stroke-linecap:square;stroke-linejoin:round;stroke-miterlimit:10;stroke-dasharray:none;stroke-opacity:1"
       id="path106" /><path
       d="m 1338,1080.75 h -12.21"
       style="fill:none;stroke:#262626;stroke-width:0.50025;stroke-linecap:square;stroke-linejoin:round;stroke-miterlimit:10;stroke-dasharray:none;stroke-opacity:1"
       id="path108" /><path
       d="m 1338,1233.38 h -12.21"
       style="fill:none;stroke:#262626;stroke-width:0.50025;stroke-linecap:square;stroke-linejoin:round;stroke-miterlimit:10;stroke-dasharray:none;stroke-opacity:1"
       id="path110" /><path
       d="m 1338,1386 h -12.21"
       style="fill:none;stroke:#262626;stroke-width:0.50025;stroke-linecap:square;stroke-linejoin:round;stroke-miterlimit:10;stroke-dasharray:none;stroke-opacity:1"
       id="path112" /><g
       id="g114"><text
         transform="matrix(1,0,0,-1,345.25,159.75)"
         style="font-variant:normal;font-weight:normal;font-size:15px;font-family:Helvetica;-inkscape-font-specification:Helvetica;writing-mode:lr-tb;fill:#262626;fill-opacity:1;fill-rule:nonzero;stroke:none"
         id="text134"><tspan
           x="0 8.3400002 12.51"
           y="0"
           sodipodi:role="line"
           id="tspan116">0.5</tspan><tspan
           x="14.25"
           y="-152.625"
           id="tspan118">1</tspan><tspan
           x="0 8.3400002 12.51"
           y="-305.25"
           sodipodi:role="line"
           id="tspan120">1.5</tspan><tspan
           x="14.25"
           y="-457.875"
           id="tspan122">2</tspan><tspan
           x="0 8.3400002 12.51"
           y="-610.5"
           sodipodi:role="line"
           id="tspan124">2.5</tspan><tspan
           x="14.25"
           y="-763.125"
           id="tspan126">3</tspan><tspan
           x="0 8.3400002 12.51"
           y="-915.75"
           sodipodi:role="line"
           id="tspan128">3.5</tspan><tspan
           x="14.25"
           y="-1068.375"
           id="tspan130">4</tspan><tspan
           x="0 8.3400002 12.51"
           y="-1221"
           sodipodi:role="line"
           id="tspan132">4.5</tspan></text></g><path
       d="m 376.454,1390.18 c 0,0.08 0.023,0.15 0.069,0.21 l 3.129,3.11 -3.129,3.12 c -0.046,0.05 -0.069,0.12 -0.069,0.2 0,0.07 0.029,0.14 0.087,0.21 0.059,0.06 0.131,0.09 0.217,0.09 0.07,0 0.144,-0.03 0.223,-0.09 l 3.105,-3.11 3.094,3.11 c 0.086,0.06 0.16,0.09 0.222,0.09 0.078,0 0.147,-0.03 0.206,-0.09 0.058,-0.06 0.088,-0.13 0.088,-0.21 0,-0.08 -0.024,-0.15 -0.071,-0.2 l -3.117,-3.12 3.117,-3.11 c 0.047,-0.06 0.071,-0.13 0.071,-0.21 0,-0.08 -0.03,-0.15 -0.088,-0.21 -0.059,-0.06 -0.128,-0.09 -0.206,-0.09 -0.078,0 -0.152,0.04 -0.222,0.12 l -3.094,3.08 -3.105,-3.08 c -0.071,-0.08 -0.145,-0.12 -0.223,-0.12 -0.086,0 -0.158,0.03 -0.217,0.1 -0.058,0.07 -0.087,0.13 -0.087,0.2"
       style="fill:#262626;fill-opacity:1;fill-rule:nonzero;stroke:none;stroke-width:0.1"
       id="path136" /><g
       id="g138"><text
         transform="matrix(1,0,0,-1,386.25,1389.75)"
         style="font-variant:normal;font-weight:normal;font-size:15px;font-family:Helvetica;-inkscape-font-specification:Helvetica;writing-mode:lr-tb;fill:#262626;fill-opacity:1;fill-rule:nonzero;stroke:none"
         id="text142"><tspan
           x="0 8.3400002"
           y="0"
           sodipodi:role="line"
           id="tspan140">10</tspan></text><text
         transform="matrix(1,0,0,-1,405.75,1397.25)"
         style="font-variant:normal;font-weight:normal;font-size:12px;font-family:Helvetica;-inkscape-font-specification:Helvetica;writing-mode:lr-tb;fill:#262626;fill-opacity:1;fill-rule:nonzero;stroke:none"
         id="text146"><tspan
           x="0"
           y="0"
           id="tspan144">7</tspan></text></g><g
       id="g148"
       transform="matrix(2.2192516,0,0,2.2192516,-1040.9049,-1691.5895)"><text
         transform="matrix(1,0,0,-1,733.127,1393.59)"
         style="font-variant:normal;font-weight:bold;font-size:16.5px;font-family:Helvetica;-inkscape-font-specification:Helvetica-Bold;writing-mode:lr-tb;fill:#000000;fill-opacity:1;fill-rule:nonzero;stroke:none"
         id="text152"><tspan
           x="0 10.0815 16.5 21.087 31.168501 41.25 46.744499 56.826 66 75.174004 84.348 88.934998 93.522003 103.6035 113.685 123.7665 129.261 139.3425 149.424 154.011 163.185 173.26649 183.34801 193.4295 198.924"
           y="0"
           sodipodi:role="line"
           id="tspan150">brightness, photon counts</tspan></text></g><path
       d="m 374.25,1138.88 120.469,-68.35 120.469,28.77 120.468,265.75 120.469,-367.799 120.469,-407.325 120.466,-210.704 120.47,74.236 120.47,22.399"
       style="fill:none;stroke:#0072bd;stroke-width:2.00025;stroke-linecap:butt;stroke-linejoin:round;stroke-miterlimit:10;stroke-dasharray:none;stroke-opacity:1"
       id="path154" /><path
       d="M 374.25,990.732 494.719,878.257 615.188,920.997 735.656,1189.68 856.125,889.75 976.594,513.84 1097.06,310.575 1217.53,400.556 1338,425.459"
       style="fill:none;stroke:#ff0000;stroke-width:2.00025;stroke-linecap:butt;stroke-linejoin:round;stroke-miterlimit:10;stroke-dasharray:none;stroke-opacity:1"
       id="path156" /><path
       d="m 1642.5,165 h 963.75 V 1386 H 1642.5 Z"
       style="fill:#ffffff;fill-opacity:1;fill-rule:nonzero;stroke:none;stroke-width:0.1"
       id="path158" /><path
       d="m 1642.5,165 h 963.75"
       style="fill:none;stroke:#262626;stroke-width:0.50025;stroke-linecap:square;stroke-linejoin:round;stroke-miterlimit:10;stroke-dasharray:none;stroke-opacity:1"
       id="path160" /><path
       d="m 1642.5,1386 h 963.75"
       style="fill:none;stroke:#262626;stroke-width:0.50025;stroke-linecap:square;stroke-linejoin:round;stroke-miterlimit:10;stroke-dasharray:none;stroke-opacity:1"
       id="path162" /><path
       d="m 1642.5,165 v 12.21"
       style="fill:none;stroke:#262626;stroke-width:0.50025;stroke-linecap:square;stroke-linejoin:round;stroke-miterlimit:10;stroke-dasharray:none;stroke-opacity:1"
       id="path164" /><path
       d="m 1762.97,165 v 12.21"
       style="fill:none;stroke:#262626;stroke-width:0.50025;stroke-linecap:square;stroke-linejoin:round;stroke-miterlimit:10;stroke-dasharray:none;stroke-opacity:1"
       id="path166" /><path
       d="m 1883.44,165 v 12.21"
       style="fill:none;stroke:#262626;stroke-width:0.50025;stroke-linecap:square;stroke-linejoin:round;stroke-miterlimit:10;stroke-dasharray:none;stroke-opacity:1"
       id="path168" /><path
       d="m 2003.91,165 v 12.21"
       style="fill:none;stroke:#262626;stroke-width:0.50025;stroke-linecap:square;stroke-linejoin:round;stroke-miterlimit:10;stroke-dasharray:none;stroke-opacity:1"
       id="path170" /><path
       d="m 2124.38,165 v 12.21"
       style="fill:none;stroke:#262626;stroke-width:0.50025;stroke-linecap:square;stroke-linejoin:round;stroke-miterlimit:10;stroke-dasharray:none;stroke-opacity:1"
       id="path172" /><path
       d="m 2244.84,165 v 12.21"
       style="fill:none;stroke:#262626;stroke-width:0.50025;stroke-linecap:square;stroke-linejoin:round;stroke-miterlimit:10;stroke-dasharray:none;stroke-opacity:1"
       id="path174" /><path
       d="m 2365.31,165 v 12.21"
       style="fill:none;stroke:#262626;stroke-width:0.50025;stroke-linecap:square;stroke-linejoin:round;stroke-miterlimit:10;stroke-dasharray:none;stroke-opacity:1"
       id="path176" /><path
       d="m 2485.78,165 v 12.21"
       style="fill:none;stroke:#262626;stroke-width:0.50025;stroke-linecap:square;stroke-linejoin:round;stroke-miterlimit:10;stroke-dasharray:none;stroke-opacity:1"
       id="path178" /><path
       d="m 2606.25,165 v 12.21"
       style="fill:none;stroke:#262626;stroke-width:0.50025;stroke-linecap:square;stroke-linejoin:round;stroke-miterlimit:10;stroke-dasharray:none;stroke-opacity:1"
       id="path180" /><path
       d="m 1642.5,1386 v -12.21"
       style="fill:none;stroke:#262626;stroke-width:0.50025;stroke-linecap:square;stroke-linejoin:round;stroke-miterlimit:10;stroke-dasharray:none;stroke-opacity:1"
       id="path182" /><path
       d="m 1762.97,1386 v -12.21"
       style="fill:none;stroke:#262626;stroke-width:0.50025;stroke-linecap:square;stroke-linejoin:round;stroke-miterlimit:10;stroke-dasharray:none;stroke-opacity:1"
       id="path184" /><path
       d="m 1883.44,1386 v -12.21"
       style="fill:none;stroke:#262626;stroke-width:0.50025;stroke-linecap:square;stroke-linejoin:round;stroke-miterlimit:10;stroke-dasharray:none;stroke-opacity:1"
       id="path186" /><path
       d="m 2003.91,1386 v -12.21"
       style="fill:none;stroke:#262626;stroke-width:0.50025;stroke-linecap:square;stroke-linejoin:round;stroke-miterlimit:10;stroke-dasharray:none;stroke-opacity:1"
       id="path188" /><path
       d="m 2124.38,1386 v -12.21"
       style="fill:none;stroke:#262626;stroke-width:0.50025;stroke-linecap:square;stroke-linejoin:round;stroke-miterlimit:10;stroke-dasharray:none;stroke-opacity:1"
       id="path190" /><path
       d="m 2244.84,1386 v -12.21"
       style="fill:none;stroke:#262626;stroke-width:0.50025;stroke-linecap:square;stroke-linejoin:round;stroke-miterlimit:10;stroke-dasharray:none;stroke-opacity:1"
       id="path192" /><path
       d="m 2365.31,1386 v -12.21"
       style="fill:none;stroke:#262626;stroke-width:0.50025;stroke-linecap:square;stroke-linejoin:round;stroke-miterlimit:10;stroke-dasharray:none;stroke-opacity:1"
       id="path194" /><path
       d="m 2485.78,1386 v -12.21"
       style="fill:none;stroke:#262626;stroke-width:0.50025;stroke-linecap:square;stroke-linejoin:round;stroke-miterlimit:10;stroke-dasharray:none;stroke-opacity:1"
       id="path196" /><path
       d="m 2606.25,1386 v -12.21"
       style="fill:none;stroke:#262626;stroke-width:0.50025;stroke-linecap:square;stroke-linejoin:round;stroke-miterlimit:10;stroke-dasharray:none;stroke-opacity:1"
       id="path198" /><g
       id="g200"><text
         transform="matrix(1,0,0,-1,1623.38,145.75)"
         style="font-variant:normal;font-weight:normal;font-size:15px;font-family:Helvetica;-inkscape-font-specification:Helvetica;writing-mode:lr-tb;fill:#262626;fill-opacity:1;fill-rule:nonzero;stroke:none"
         id="text204"><tspan
           x="0 8.3400002 16.68 25.02 120.46875 128.80875 137.14874 145.48875 240.9375 249.2775 257.61749 265.95749 361.40625 369.74625 378.08624 386.42624 481.875 490.215 498.55499 506.89499 602.34375 610.68378 619.02374 627.36377 722.8125 731.15253 739.49249 747.83252 843.28125 851.62128 859.96124 868.30127 963.75 972.09003 980.42999 988.77002"
           y="0"
           sodipodi:role="line"
           id="tspan202">110011101120113011401150116011701180</tspan></text></g><path
       d="M 1642.5,165 V 1386"
       style="fill:none;stroke:#262626;stroke-width:0.50025;stroke-linecap:square;stroke-linejoin:round;stroke-miterlimit:10;stroke-dasharray:none;stroke-opacity:1"
       id="path206" /><path
       d="M 2606.25,165 V 1386"
       style="fill:none;stroke:#262626;stroke-width:0.50025;stroke-linecap:square;stroke-linejoin:round;stroke-miterlimit:10;stroke-dasharray:none;stroke-opacity:1"
       id="path208" /><path
       d="m 1642.5,165 h 12.21"
       style="fill:none;stroke:#262626;stroke-width:0.50025;stroke-linecap:square;stroke-linejoin:round;stroke-miterlimit:10;stroke-dasharray:none;stroke-opacity:1"
       id="path210" /><path
       d="m 1642.5,572 h 12.21"
       style="fill:none;stroke:#262626;stroke-width:0.50025;stroke-linecap:square;stroke-linejoin:round;stroke-miterlimit:10;stroke-dasharray:none;stroke-opacity:1"
       id="path212" /><path
       d="m 1642.5,979 h 12.21"
       style="fill:none;stroke:#262626;stroke-width:0.50025;stroke-linecap:square;stroke-linejoin:round;stroke-miterlimit:10;stroke-dasharray:none;stroke-opacity:1"
       id="path214" /><path
       d="m 1642.5,1386 h 12.21"
       style="fill:none;stroke:#262626;stroke-width:0.50025;stroke-linecap:square;stroke-linejoin:round;stroke-miterlimit:10;stroke-dasharray:none;stroke-opacity:1"
       id="path216" /><path
       d="m 2606.25,165 h -12.21"
       style="fill:none;stroke:#262626;stroke-width:0.50025;stroke-linecap:square;stroke-linejoin:round;stroke-miterlimit:10;stroke-dasharray:none;stroke-opacity:1"
       id="path218" /><path
       d="m 2606.25,572 h -12.21"
       style="fill:none;stroke:#262626;stroke-width:0.50025;stroke-linecap:square;stroke-linejoin:round;stroke-miterlimit:10;stroke-dasharray:none;stroke-opacity:1"
       id="path220" /><path
       d="m 2606.25,979 h -12.21"
       style="fill:none;stroke:#262626;stroke-width:0.50025;stroke-linecap:square;stroke-linejoin:round;stroke-miterlimit:10;stroke-dasharray:none;stroke-opacity:1"
       id="path222" /><path
       d="m 2606.25,1386 h -12.21"
       style="fill:none;stroke:#262626;stroke-width:0.50025;stroke-linecap:square;stroke-linejoin:round;stroke-miterlimit:10;stroke-dasharray:none;stroke-opacity:1"
       id="path224" /><g
       id="g226"><text
         transform="matrix(1,0,0,-1,1622.5,159.75)"
         style="font-variant:normal;font-weight:normal;font-size:15px;font-family:Helvetica;-inkscape-font-specification:Helvetica;writing-mode:lr-tb;fill:#262626;fill-opacity:1;fill-rule:nonzero;stroke:none"
         id="text236"><tspan
           x="0 4.9949999"
           y="0"
           sodipodi:role="line"
           id="tspan228">-5</tspan><tspan
           x="5.25"
           y="-407"
           id="tspan230">0</tspan><tspan
           x="5.25"
           y="-814"
           id="tspan232">5</tspan><tspan
           x="-4.5 3.8399999"
           y="-1221"
           sodipodi:role="line"
           id="tspan234">10</tspan></text></g><g
       id="g238"
       transform="matrix(2.2646325,0,0,2.2646325,-2598.5631,-1748.9586)"><text
         transform="matrix(1,0,0,-1,1978.5,1393.59)"
         style="font-variant:normal;font-weight:bold;font-size:16.5px;font-family:Helvetica;-inkscape-font-specification:Helvetica-Bold;writing-mode:lr-tb;fill:#000000;fill-opacity:1;fill-rule:nonzero;stroke:none"
         id="text242"><tspan
           x="0 10.0815 14.6685 23.842501 33.016499 42.190498 52.271999 56.859001 63.2775 72.4515 77.945999 87.120003 91.707001 96.293999 110.9625 115.5495 130.218 134.80499 144.88651 154.968 160.46249 169.63651 174.2235 179.718 188.892 198.9735 209.05499 215.4735 225.55499 234.729"
           y="0"
           sodipodi:role="line"
           id="tspan240">bleach rate, %/minute (approx)</tspan></text></g><path
       d="m 1642.5,566.037 120.47,51.522 120.47,-18.525 120.47,82.91 120.47,-42.267 120.46,-55.025 120.47,115.691 120.47,-109.499 120.47,107.975"
       style="fill:none;stroke:#0072bd;stroke-width:2.00025;stroke-linecap:butt;stroke-linejoin:round;stroke-miterlimit:10;stroke-dasharray:none;stroke-opacity:1"
       id="path244" /><path
       d="m 1642.5,569.202 120.47,-97.516 120.47,-6.366 120.47,251.063 120.47,-151.873 120.46,222.674 120.47,-595.362 120.47,1033.158 120.47,-99.37"
       style="fill:none;stroke:#ff0000;stroke-width:2.00025;stroke-linecap:butt;stroke-linejoin:round;stroke-miterlimit:10;stroke-dasharray:none;stroke-opacity:1"
       id="path246" /></g></svg>
