<?xml version="1.0" encoding="UTF-8" standalone="no"?>
<svg
   xmlns:dc="http://purl.org/dc/elements/1.1/"
   xmlns:cc="http://creativecommons.org/ns#"
   xmlns:rdf="http://www.w3.org/1999/02/22-rdf-syntax-ns#"
   xmlns:svg="http://www.w3.org/2000/svg"
   xmlns="http://www.w3.org/2000/svg"
   xmlns:sodipodi="http://sodipodi.sourceforge.net/DTD/sodipodi-0.dtd"
   xmlns:inkscape="http://www.inkscape.org/namespaces/inkscape"
   style="fill-opacity:1; color-rendering:auto; color-interpolation:auto; text-rendering:auto; stroke:black; stroke-linecap:square; stroke-miterlimit:10; shape-rendering:auto; stroke-opacity:1; fill:black; stroke-dasharray:none; font-weight:normal; stroke-width:1; font-family:'Dialog'; font-style:normal; stroke-linejoin:miter; font-size:12px; stroke-dashoffset:0; image-rendering:auto;"
   width="1936"
   height="900"
   version="1.1"
   id="svg233"
   sodipodi:docname="jf669_excitation.svg"
   inkscape:export-filename="/home/tlh24/ao-bergamo/matlab/jf669_excitation.png"
   inkscape:export-xdpi="120"
   inkscape:export-ydpi="120"
   inkscape:version="1.0.2 (e86c870879, 2021-01-15)">
  <metadata
     id="metadata237">
    <rdf:RDF>
      <cc:Work
         rdf:about="">
        <dc:format>image/svg+xml</dc:format>
        <dc:type
           rdf:resource="http://purl.org/dc/dcmitype/StillImage" />
      </cc:Work>
    </rdf:RDF>
  </metadata>
  <sodipodi:namedview
     pagecolor="#ffffff"
     bordercolor="#666666"
     borderopacity="1"
     objecttolerance="10"
     gridtolerance="10"
     guidetolerance="10"
     inkscape:pageopacity="0"
     inkscape:pageshadow="2"
     inkscape:window-width="3840"
     inkscape:window-height="2095"
     id="namedview235"
     showgrid="false"
     inkscape:zoom="1.5839192"
     inkscape:cx="924.29684"
     inkscape:cy="451.11402"
     inkscape:window-x="0"
     inkscape:window-y="41"
     inkscape:window-maximized="1"
     inkscape:current-layer="svg233" />
  <!--Generated by the Batik Graphics2D SVG Generator-->
  <defs
     id="genericDefs">
    <defs
       id="defs1">
      <clipPath
         clipPathUnits="userSpaceOnUse"
         id="clipPath1">
        <path
           d="M0 0 L1936 0 L1936 900 L0 900 L0 0 Z"
           id="path3" />
      </clipPath>
    </defs>
  </defs>
  <path
     style="color-interpolation:sRGB;fill:#ffffff;stroke:none;color-rendering:optimizeSpeed;image-rendering:optimizeSpeed;shape-rendering:crispEdges;text-rendering:optimizeSpeed"
     d="M 252,802 H 899 V 68 H 252 Z"
     id="path13" />
  <g
     style="color-interpolation:linearRGB;fill:#262626;stroke:#262626;stroke-width:2.467;stroke-linejoin:round;color-rendering:optimizeQuality;image-rendering:optimizeQuality;text-rendering:geometricPrecision;stroke-miterlimit:10;stroke-dasharray:none"
     id="g29">
    <line
       y2="802"
       style="fill:none;stroke-width:2.467;stroke-miterlimit:10;stroke-dasharray:none"
       x1="252"
       x2="899"
       y1="802"
       id="line17" />
    <line
       y2="794.65997"
       style="fill:none;stroke-width:2.467;stroke-miterlimit:10;stroke-dasharray:none"
       x1="252"
       x2="252"
       y1="802"
       id="line19" />
    <line
       y2="794.65997"
       style="fill:none;stroke-width:2.467;stroke-miterlimit:10;stroke-dasharray:none"
       x1="413.75"
       x2="413.75"
       y1="802"
       id="line21" />
    <line
       y2="794.65997"
       style="fill:none;stroke-width:2.467;stroke-miterlimit:10;stroke-dasharray:none"
       x1="575.5"
       x2="575.5"
       y1="802"
       id="line23" />
    <line
       y2="794.65997"
       style="fill:none;stroke-width:2.467;stroke-miterlimit:10;stroke-dasharray:none"
       x1="737.25"
       x2="737.25"
       y1="802"
       id="line25" />
    <line
       y2="794.65997"
       style="fill:none;stroke-width:2.467;stroke-miterlimit:10;stroke-dasharray:none"
       x1="899"
       x2="899"
       y1="802"
       id="line27" />
  </g>
  <g
     transform="translate(252,808.6667)"
     style="font-size:20px;font-family:SansSerif;color-interpolation:linearRGB;fill:#262626;stroke:#262626;color-rendering:optimizeQuality;image-rendering:optimizeQuality;text-rendering:geometricPrecision"
     id="g33">
    <path
       style="stroke:none"
       d="m -23.0156,17.3438 h 3.2187 V 6.2188 l -3.5,0.7031 V 5.125 l 3.4844,-0.7031 h 1.9687 v 12.9219 h 3.2188 V 19 h -8.3906 z m 12.7246,0 h 3.2187 V 6.2188 l -3.5,0.7031 V 5.125 l 3.4844,-0.7031 h 1.9688 v 12.9219 h 3.2187 V 19 H -10.291 Z M 6.3086,5.7188 q -1.5313,0 -2.2969,1.5 -0.7656,1.5 -0.7656,4.5 0,3 0.7656,4.5 0.7656,1.5 2.2969,1.5 1.5312,0 2.2969,-1.5 0.7656,-1.5 0.7656,-4.5 0,-3 -0.7656,-4.5 -0.7657,-1.5 -2.2969,-1.5 z m 0,-1.5626 q 2.4531,0 3.7422,1.9376 1.289,1.9374 1.289,5.625 0,3.6874 -1.289,5.625 -1.2891,1.9374 -3.7422,1.9374 -2.4531,0 -3.75,-1.9374 -1.2969,-1.9376 -1.2969,-5.625 0,-3.6876 1.2969,-5.625 1.2969,-1.9376 3.75,-1.9376 z m 12.7246,1.5626 q -1.5312,0 -2.2969,1.5 -0.7656,1.5 -0.7656,4.5 0,3 0.7656,4.5 0.7657,1.5 2.2969,1.5 1.5313,0 2.2969,-1.5 0.7656,-1.5 0.7656,-4.5 0,-3 -0.7656,-4.5 -0.7656,-1.5 -2.2969,-1.5 z m 0,-1.5626 q 2.4531,0 3.7422,1.9376 1.2891,1.9374 1.2891,5.625 0,3.6874 -1.2891,5.625 -1.2891,1.9374 -3.7422,1.9374 -2.4531,0 -3.75,-1.9374 -1.2969,-1.9376 -1.2969,-5.625 0,-3.6876 1.2969,-5.625 1.2969,-1.9376 3.75,-1.9376 z"
       id="path31" />
  </g>
  <g
     transform="translate(413.75,808.6667)"
     style="font-size:20px;font-family:SansSerif;color-interpolation:linearRGB;fill:#262626;stroke:#262626;color-rendering:optimizeQuality;image-rendering:optimizeQuality;text-rendering:geometricPrecision"
     id="g37">
    <path
       style="stroke:none"
       d="m -23.0156,17.3438 h 3.2187 V 6.2188 l -3.5,0.7031 V 5.125 l 3.4844,-0.7031 h 1.9687 v 12.9219 h 3.2188 V 19 h -8.3906 z m 12.7246,0 h 3.2187 V 6.2188 l -3.5,0.7031 V 5.125 l 3.4844,-0.7031 h 1.9688 v 12.9219 h 3.2187 V 19 H -10.291 Z M 2.1055,4.4219 h 7.75 V 6.0781 H 3.918 V 9.6562 Q 4.3398,9.5 4.7695,9.4297 5.1992,9.3594 5.6367,9.3594 q 2.4375,0 3.8672,1.3359 1.4297,1.3359 1.4297,3.6328 0,2.3438 -1.4688,3.6485 -1.4687,1.3046 -4.1406,1.3046 -0.9062,0 -1.8594,-0.1562 -0.9531,-0.1562 -1.9687,-0.4688 v -1.9843 q 0.875,0.4843 1.8125,0.7187 0.9375,0.2344 1.9844,0.2344 1.6875,0 2.6718,-0.8906 0.9844,-0.8906 0.9844,-2.4063 0,-1.5312 -0.9844,-2.4219 -0.9843,-0.8906 -2.6718,-0.8906 -0.7969,0 -1.5782,0.1797 Q 2.9336,11.375 2.1055,11.75 Z m 16.9277,1.2969 q -1.5312,0 -2.2969,1.5 -0.7656,1.5 -0.7656,4.5 0,3 0.7656,4.5 0.7657,1.5 2.2969,1.5 1.5313,0 2.2969,-1.5 0.7656,-1.5 0.7656,-4.5 0,-3 -0.7656,-4.5 -0.7656,-1.5 -2.2969,-1.5 z m 0,-1.5626 q 2.4531,0 3.7422,1.9376 1.2891,1.9374 1.2891,5.625 0,3.6874 -1.2891,5.625 -1.2891,1.9374 -3.7422,1.9374 -2.4531,0 -3.75,-1.9374 -1.2969,-1.9376 -1.2969,-5.625 0,-3.6876 1.2969,-5.625 1.2969,-1.9376 3.75,-1.9376 z"
       id="path35" />
  </g>
  <g
     transform="translate(575.5,808.6667)"
     style="font-size:20px;font-family:SansSerif;color-interpolation:linearRGB;fill:#262626;stroke:#262626;color-rendering:optimizeQuality;image-rendering:optimizeQuality;text-rendering:geometricPrecision"
     id="g41">
    <path
       style="stroke:none"
       d="m -23.0156,17.3438 h 3.2187 V 6.2188 l -3.5,0.7031 V 5.125 l 3.4844,-0.7031 h 1.9687 v 12.9219 h 3.2188 V 19 h -8.3906 z m 14.084,0 h 6.875 V 19 h -9.25 v -1.6562 q 1.125,-1.1719 3.0625,-3.125 1.9375,-1.9532 2.4375,-2.5313 0.9375,-1.0625 1.3125,-1.7969 0.375,-0.7344 0.375,-1.4531 0,-1.1563 -0.8125,-1.8906 -0.8125,-0.7344 -2.125,-0.7344 -0.9219,0 -1.9532,0.3203 -1.0312,0.3203 -2.2031,0.9766 V 5.125 q 1.1875,-0.4844 2.2266,-0.7266 1.039,-0.2422 1.8984,-0.2422 2.2656,0 3.6094,1.1329 1.3437,1.1328 1.3437,3.0234 0,0.9063 -0.3359,1.7109 -0.3359,0.8047 -1.2266,1.8985 -0.2343,0.2812 -1.5468,1.6328 -1.3125,1.3515 -3.6875,3.7891 z M 6.3086,5.7188 q -1.5313,0 -2.2969,1.5 -0.7656,1.5 -0.7656,4.5 0,3 0.7656,4.5 0.7656,1.5 2.2969,1.5 1.5312,0 2.2969,-1.5 0.7656,-1.5 0.7656,-4.5 0,-3 -0.7656,-4.5 -0.7657,-1.5 -2.2969,-1.5 z m 0,-1.5626 q 2.4531,0 3.7422,1.9376 1.289,1.9374 1.289,5.625 0,3.6874 -1.289,5.625 -1.2891,1.9374 -3.7422,1.9374 -2.4531,0 -3.75,-1.9374 -1.2969,-1.9376 -1.2969,-5.625 0,-3.6876 1.2969,-5.625 1.2969,-1.9376 3.75,-1.9376 z m 12.7246,1.5626 q -1.5312,0 -2.2969,1.5 -0.7656,1.5 -0.7656,4.5 0,3 0.7656,4.5 0.7657,1.5 2.2969,1.5 1.5313,0 2.2969,-1.5 0.7656,-1.5 0.7656,-4.5 0,-3 -0.7656,-4.5 -0.7656,-1.5 -2.2969,-1.5 z m 0,-1.5626 q 2.4531,0 3.7422,1.9376 1.2891,1.9374 1.2891,5.625 0,3.6874 -1.2891,5.625 -1.2891,1.9374 -3.7422,1.9374 -2.4531,0 -3.75,-1.9374 -1.2969,-1.9376 -1.2969,-5.625 0,-3.6876 1.2969,-5.625 1.2969,-1.9376 3.75,-1.9376 z"
       id="path39" />
  </g>
  <g
     transform="translate(737.25,808.6667)"
     style="font-size:20px;font-family:SansSerif;color-interpolation:linearRGB;fill:#262626;stroke:#262626;color-rendering:optimizeQuality;image-rendering:optimizeQuality;text-rendering:geometricPrecision"
     id="g45">
    <path
       style="stroke:none"
       d="m -23.0156,17.3438 h 3.2187 V 6.2188 l -3.5,0.7031 V 5.125 l 3.4844,-0.7031 h 1.9687 v 12.9219 h 3.2188 V 19 h -8.3906 z m 14.084,0 h 6.875 V 19 h -9.25 v -1.6562 q 1.125,-1.1719 3.0625,-3.125 1.9375,-1.9532 2.4375,-2.5313 0.9375,-1.0625 1.3125,-1.7969 0.375,-0.7344 0.375,-1.4531 0,-1.1563 -0.8125,-1.8906 -0.8125,-0.7344 -2.125,-0.7344 -0.9219,0 -1.9532,0.3203 -1.0312,0.3203 -2.2031,0.9766 V 5.125 q 1.1875,-0.4844 2.2266,-0.7266 1.039,-0.2422 1.8984,-0.2422 2.2656,0 3.6094,1.1329 1.3437,1.1328 1.3437,3.0234 0,0.9063 -0.3359,1.7109 -0.3359,0.8047 -1.2266,1.8985 -0.2343,0.2812 -1.5468,1.6328 -1.3125,1.3515 -3.6875,3.7891 z M 2.1055,4.4219 h 7.75 V 6.0781 H 3.918 V 9.6562 Q 4.3398,9.5 4.7695,9.4297 5.1992,9.3594 5.6367,9.3594 q 2.4375,0 3.8672,1.3359 1.4297,1.3359 1.4297,3.6328 0,2.3438 -1.4688,3.6485 -1.4687,1.3046 -4.1406,1.3046 -0.9062,0 -1.8594,-0.1562 -0.9531,-0.1562 -1.9687,-0.4688 v -1.9843 q 0.875,0.4843 1.8125,0.7187 0.9375,0.2344 1.9844,0.2344 1.6875,0 2.6718,-0.8906 0.9844,-0.8906 0.9844,-2.4063 0,-1.5312 -0.9844,-2.4219 -0.9843,-0.8906 -2.6718,-0.8906 -0.7969,0 -1.5782,0.1797 Q 2.9336,11.375 2.1055,11.75 Z m 16.9277,1.2969 q -1.5312,0 -2.2969,1.5 -0.7656,1.5 -0.7656,4.5 0,3 0.7656,4.5 0.7657,1.5 2.2969,1.5 1.5313,0 2.2969,-1.5 0.7656,-1.5 0.7656,-4.5 0,-3 -0.7656,-4.5 -0.7656,-1.5 -2.2969,-1.5 z m 0,-1.5626 q 2.4531,0 3.7422,1.9376 1.2891,1.9374 1.2891,5.625 0,3.6874 -1.2891,5.625 -1.2891,1.9374 -3.7422,1.9374 -2.4531,0 -3.75,-1.9374 -1.2969,-1.9376 -1.2969,-5.625 0,-3.6876 1.2969,-5.625 1.2969,-1.9376 3.75,-1.9376 z"
       id="path43" />
  </g>
  <g
     transform="translate(899,808.6667)"
     style="font-size:20px;font-family:SansSerif;color-interpolation:linearRGB;fill:#262626;stroke:#262626;color-rendering:optimizeQuality;image-rendering:optimizeQuality;text-rendering:geometricPrecision"
     id="g49">
    <path
       style="stroke:none"
       d="m -23.0156,17.3438 h 3.2187 V 6.2188 l -3.5,0.7031 V 5.125 l 3.4844,-0.7031 h 1.9687 v 12.9219 h 3.2188 V 19 h -8.3906 z M -4.666,11.1406 q 1.4219,0.2969 2.2187,1.2578 0.7969,0.961 0.7969,2.3672 0,2.1563 -1.4844,3.336 -1.4843,1.1796 -4.2187,1.1796 -0.9219,0 -1.8906,-0.1796 -0.9688,-0.1797 -2,-0.5391 v -1.9063 q 0.8125,0.4844 1.789,0.7266 0.9766,0.2422 2.0391,0.2422 1.8594,0 2.8281,-0.7344 0.9688,-0.7344 0.9688,-2.125 0,-1.2968 -0.8985,-2.0234 -0.8984,-0.7266 -2.5078,-0.7266 h -1.7031 v -1.625 h 1.7812 q 1.4532,0 2.2188,-0.5781 0.7656,-0.5781 0.7656,-1.6719 0,-1.125 -0.7891,-1.7265 -0.789,-0.6016 -2.2734,-0.6016 -0.8125,0 -1.7422,0.1797 -0.9297,0.1797 -2.039,0.539 v -1.75 q 1.125,-0.3124 2.1015,-0.4687 0.9766,-0.1563 1.8516,-0.1563 2.25,0 3.5547,1.0235 1.3047,1.0234 1.3047,2.7578 0,1.2031 -0.6954,2.0391 -0.6953,0.8359 -1.9765,1.164 z M 6.3086,5.7188 q -1.5313,0 -2.2969,1.5 -0.7656,1.5 -0.7656,4.5 0,3 0.7656,4.5 0.7656,1.5 2.2969,1.5 1.5312,0 2.2969,-1.5 0.7656,-1.5 0.7656,-4.5 0,-3 -0.7656,-4.5 -0.7657,-1.5 -2.2969,-1.5 z m 0,-1.5626 q 2.4531,0 3.7422,1.9376 1.289,1.9374 1.289,5.625 0,3.6874 -1.289,5.625 -1.2891,1.9374 -3.7422,1.9374 -2.4531,0 -3.75,-1.9374 -1.2969,-1.9376 -1.2969,-5.625 0,-3.6876 1.2969,-5.625 1.2969,-1.9376 3.75,-1.9376 z m 12.7246,1.5626 q -1.5312,0 -2.2969,1.5 -0.7656,1.5 -0.7656,4.5 0,3 0.7656,4.5 0.7657,1.5 2.2969,1.5 1.5313,0 2.2969,-1.5 0.7656,-1.5 0.7656,-4.5 0,-3 -0.7656,-4.5 -0.7656,-1.5 -2.2969,-1.5 z m 0,-1.5626 q 2.4531,0 3.7422,1.9376 1.2891,1.9374 1.2891,5.625 0,3.6874 -1.2891,5.625 -1.2891,1.9374 -3.7422,1.9374 -2.4531,0 -3.75,-1.9374 -1.2969,-1.9376 -1.2969,-5.625 0,-3.6876 1.2969,-5.625 1.2969,-1.9376 3.75,-1.9376 z"
       id="path47" />
  </g>
  <g
     style="color-interpolation:linearRGB;fill:#262626;stroke:#262626;stroke-width:2.467;stroke-linejoin:round;color-rendering:optimizeQuality;image-rendering:optimizeQuality;text-rendering:geometricPrecision;stroke-miterlimit:10;stroke-dasharray:none"
     id="g67">
    <line
       y2="68"
       style="fill:none;stroke-width:2.467;stroke-miterlimit:10;stroke-dasharray:none"
       x1="252"
       x2="252"
       y1="802"
       id="line51" />
    <line
       y2="802"
       style="fill:none;stroke-width:2.467;stroke-miterlimit:10;stroke-dasharray:none"
       x1="252"
       x2="259.34"
       y1="802"
       id="line53" />
    <line
       y2="679.66669"
       style="fill:none;stroke-width:2.467;stroke-miterlimit:10;stroke-dasharray:none"
       x1="252"
       x2="259.34"
       y1="679.66669"
       id="line55" />
    <line
       y2="557.33331"
       style="fill:none;stroke-width:2.467;stroke-miterlimit:10;stroke-dasharray:none"
       x1="252"
       x2="259.34"
       y1="557.33331"
       id="line57" />
    <line
       y2="435"
       style="fill:none;stroke-width:2.467;stroke-miterlimit:10;stroke-dasharray:none"
       x1="252"
       x2="259.34"
       y1="435"
       id="line59" />
    <line
       y2="312.66669"
       style="fill:none;stroke-width:2.467;stroke-miterlimit:10;stroke-dasharray:none"
       x1="252"
       x2="259.34"
       y1="312.66669"
       id="line61" />
    <line
       y2="190.3333"
       style="fill:none;stroke-width:2.467;stroke-miterlimit:10;stroke-dasharray:none"
       x1="252"
       x2="259.34"
       y1="190.3333"
       id="line63" />
    <line
       y2="68"
       style="fill:none;stroke-width:2.467;stroke-miterlimit:10;stroke-dasharray:none"
       x1="252"
       x2="259.34"
       y1="68"
       id="line65" />
  </g>
  <g
     transform="translate(245.3333,802)"
     style="font-size:20px;font-family:SansSerif;color-interpolation:linearRGB;fill:#262626;stroke:#262626;color-rendering:optimizeQuality;image-rendering:optimizeQuality;text-rendering:geometricPrecision"
     id="g71">
    <path
       style="stroke:none"
       d="m -9.1562,5.3438 h 6.875 V 7 h -9.25 V 5.3438 q 1.125,-1.1719 3.0624,-3.125 1.9376,-1.9532 2.4376,-2.5313 0.9374,-1.0625 1.3124,-1.7969 0.375,-0.7344 0.375,-1.4531 0,-1.1563 -0.8124,-1.8906 -0.8126,-0.7344 -2.125,-0.7344 -0.9219,0 -1.9532,0.3203 -1.0312,0.3203 -2.2031,0.9766 V -6.875 q 1.1875,-0.4844 2.2266,-0.7266 1.039,-0.2422 1.8984,-0.2422 2.2656,0 3.6094,1.1329 1.3437,1.1328 1.3437,3.0234 0,0.9063 -0.3359,1.7109 -0.3359,0.8047 -1.2266,1.8985 -0.2343,0.2812 -1.5469,1.6328 -1.3124,1.3515 -3.6874,3.7891 z"
       id="path69" />
  </g>
  <g
     transform="translate(245.3333,679.6667)"
     style="font-size:20px;font-family:SansSerif;color-interpolation:linearRGB;fill:#262626;stroke:#262626;color-rendering:optimizeQuality;image-rendering:optimizeQuality;text-rendering:geometricPrecision"
     id="g75">
    <path
       style="stroke:none"
       d="m -5.4375,-5.8594 -4.9844,7.7813 h 4.9844 z m -0.5156,-1.7187 h 2.4687 v 9.5 h 2.0938 V 3.5625 H -3.4844 V 7 H -5.4375 V 3.5625 h -6.5781 V 1.6562 Z"
       id="path73" />
  </g>
  <g
     transform="translate(245.3333,557.3333)"
     style="font-size:20px;font-family:SansSerif;color-interpolation:linearRGB;fill:#262626;stroke:#262626;color-rendering:optimizeQuality;image-rendering:optimizeQuality;text-rendering:geometricPrecision"
     id="g79">
    <path
       style="stroke:none"
       d="m -6.3906,-1.0781 q -1.3282,0 -2.1094,0.9062 -0.7812,0.9063 -0.7812,2.5 0,1.5625 0.7812,2.4766 0.7812,0.9141 2.1094,0.9141 1.3281,0 2.1015,-0.9141 0.7735,-0.9141 0.7735,-2.4766 0,-1.5937 -0.7735,-2.5 -0.7734,-0.9062 -2.1015,-0.9062 z m 3.9062,-6.1875 v 1.7968 Q -3.2188,-5.8125 -3.9766,-6 q -0.7578,-0.1875 -1.5078,-0.1875 -1.9531,0 -2.9844,1.3203 -1.0312,1.3203 -1.1718,3.9922 0.5781,-0.8594 1.4453,-1.3125 0.8672,-0.4531 1.9141,-0.4531 2.2031,0 3.4765,1.3359 1.2735,1.3359 1.2735,3.6328 0,2.2344 -1.3282,3.5938 -1.3281,1.3593 -3.5312,1.3593 -2.5313,0 -3.875,-1.9374 -1.3438,-1.9376 -1.3438,-5.625 0,-3.4532 1.6406,-5.5079 1.6407,-2.0547 4.4063,-2.0547 0.75,0 1.5078,0.1485 0.7578,0.1484 1.5703,0.4297 z"
       id="path77" />
  </g>
  <g
     transform="translate(245.3333,435)"
     style="font-size:20px;font-family:SansSerif;color-interpolation:linearRGB;fill:#262626;stroke:#262626;color-rendering:optimizeQuality;image-rendering:optimizeQuality;text-rendering:geometricPrecision"
     id="g83">
    <path
       style="stroke:none"
       d="m -6.6406,0.0781 q -1.4063,0 -2.211,0.75 -0.8046,0.75 -0.8046,2.0625 0,1.3282 0.8046,2.0782 0.8047,0.75 2.211,0.75 1.4062,0 2.2187,-0.7579 0.8125,-0.7578 0.8125,-2.0703 0,-1.3125 -0.8047,-2.0625 -0.8047,-0.75 -2.2265,-0.75 z m -1.9688,-0.8437 q -1.2812,-0.3125 -1.9844,-1.1797 -0.7031,-0.8672 -0.7031,-2.1172 0,-1.75 1.2422,-2.7656 1.2422,-1.0157 3.4141,-1.0157 2.1718,0 3.414,1.0157 1.2422,1.0156 1.2422,2.7656 0,1.25 -0.7109,2.1172 -0.7109,0.8672 -1.9609,1.1797 1.4218,0.3281 2.2187,1.2968 0.7969,0.9688 0.7969,2.3594 0,2.125 -1.2969,3.2578 -1.2969,1.1328 -3.7031,1.1328 -2.4063,0 -3.7032,-1.1328 -1.2968,-1.1328 -1.2968,-3.2578 0,-1.3906 0.7968,-2.3594 0.7969,-0.9687 2.2344,-1.2968 z M -9.3438,-3.875 q 0,1.125 0.711,1.7578 0.7109,0.6328 1.9922,0.6328 1.2656,0 1.9844,-0.6328 0.7187,-0.6328 0.7187,-1.7578 0,-1.1406 -0.7187,-1.7734 -0.7188,-0.6328 -1.9844,-0.6328 -1.2813,0 -1.9922,0.6328 -0.711,0.6328 -0.711,1.7734 z"
       id="path81" />
  </g>
  <g
     transform="translate(245.3333,312.6667)"
     style="font-size:20px;font-family:SansSerif;color-interpolation:linearRGB;fill:#262626;stroke:#262626;color-rendering:optimizeQuality;image-rendering:optimizeQuality;text-rendering:geometricPrecision"
     id="g87">
    <path
       style="stroke:none"
       d="m -23.5156,5.3438 h 3.2187 v -11.125 l -3.5,0.7031 V -6.875 l 3.4844,-0.7031 h 1.9687 V 5.3438 h 3.2188 V 7 h -8.3906 z M -6.916,-6.2812 q -1.5313,0 -2.2969,1.5 -0.7656,1.5 -0.7656,4.5 0,3 0.7656,4.5 0.7656,1.5 2.2969,1.5 1.5312,0 2.2969,-1.5 0.7656,-1.5 0.7656,-4.5 0,-3 -0.7656,-4.5 -0.7657,-1.5 -2.2969,-1.5 z m 0,-1.5626 q 2.4531,0 3.7422,1.9376 1.289,1.9374 1.289,5.625 0,3.6874 -1.289,5.625 -1.2891,1.9374 -3.7422,1.9374 -2.4531,0 -3.75,-1.9374 -1.2969,-1.9376 -1.2969,-5.625 0,-3.6876 1.2969,-5.625 1.2969,-1.9376 3.75,-1.9376 z"
       id="path85" />
  </g>
  <g
     transform="translate(245.3333,190.3333)"
     style="font-size:20px;font-family:SansSerif;color-interpolation:linearRGB;fill:#262626;stroke:#262626;color-rendering:optimizeQuality;image-rendering:optimizeQuality;text-rendering:geometricPrecision"
     id="g91">
    <path
       style="stroke:none"
       d="m -23.5156,5.3438 h 3.2187 v -11.125 l -3.5,0.7031 V -6.875 l 3.4844,-0.7031 h 1.9687 V 5.3438 h 3.2188 V 7 h -8.3906 z m 14.084,0 h 6.875 V 7 h -9.25 V 5.3438 q 1.125,-1.1719 3.0625,-3.125 1.9375,-1.9532 2.4375,-2.5313 0.9375,-1.0625 1.3125,-1.7969 0.375,-0.7344 0.375,-1.4531 0,-1.1563 -0.8125,-1.8906 -0.8125,-0.7344 -2.125,-0.7344 -0.9219,0 -1.9532,0.3203 -1.0312,0.3203 -2.2031,0.9766 V -6.875 q 1.1875,-0.4844 2.2266,-0.7266 1.039,-0.2422 1.8984,-0.2422 2.2656,0 3.6094,1.1329 1.3437,1.1328 1.3437,3.0234 0,0.9063 -0.3359,1.7109 -0.3359,0.8047 -1.2266,1.8985 -0.2343,0.2812 -1.5468,1.6328 -1.3125,1.3515 -3.6875,3.7891 z"
       id="path89" />
  </g>
  <g
     transform="translate(245.3333,68)"
     style="font-size:20px;font-family:SansSerif;color-interpolation:linearRGB;fill:#262626;stroke:#262626;color-rendering:optimizeQuality;image-rendering:optimizeQuality;text-rendering:geometricPrecision"
     id="g95">
    <path
       style="stroke:none"
       d="m -23.5156,5.3438 h 3.2187 v -11.125 l -3.5,0.7031 V -6.875 l 3.4844,-0.7031 h 1.9687 V 5.3438 h 3.2188 V 7 h -8.3906 z m 17.8027,-11.2032 -4.9844,7.7813 h 4.9844 z m -0.5156,-1.7187 h 2.4687 v 9.5 H -1.666 V 3.5625 H -3.7598 V 7 H -5.7129 V 3.5625 H -12.291 V 1.6562 Z"
       id="path93" />
  </g>
  <g
     transform="translate(252,63)"
     style="font-size:20px;font-family:mwb_cmsy10;color-interpolation:linearRGB;fill:#262626;stroke:#262626;color-rendering:optimizeQuality;image-rendering:optimizeQuality;text-rendering:geometricPrecision"
     id="g99">
    <path
       style="stroke:none"
       d="m 2.9375,-0.5781 q 0,-0.1563 0.0937,-0.2813 L 7.2031,-5 3.0312,-9.1562 q -0.0937,-0.1094 -0.0937,-0.2657 0,-0.1562 0.1172,-0.2812 0.1172,-0.125 0.2891,-0.125 0.1406,0 0.2968,0.125 l 4.1406,4.1406 4.125,-4.1406 q 0.1719,-0.125 0.2969,-0.125 0.1563,0 0.2735,0.1172 0.1172,0.1171 0.1172,0.289 0,0.1563 -0.0938,0.2657 L 8.3438,-5 12.5,-0.8594 q 0.0938,0.125 0.0938,0.2813 0,0.1719 -0.1172,0.289 -0.1172,0.1172 -0.2735,0.1172 -0.1562,0 -0.2969,-0.1562 L 7.7812,-4.4375 3.6406,-0.3281 Q 3.5,-0.1719 3.3438,-0.1719 q -0.1719,0 -0.2891,-0.1328 -0.1172,-0.1328 -0.1172,-0.2734 z"
       id="path97" />
  </g>
  <g
     transform="translate(268,63)"
     style="font-size:20px;font-family:SansSerif;color-interpolation:linearRGB;fill:#262626;stroke:#262626;color-rendering:optimizeQuality;image-rendering:optimizeQuality;text-rendering:geometricPrecision"
     id="g103">
    <path
       style="stroke:none"
       d="m 2.4844,-1.6562 h 3.2187 v -11.125 l -3.5,0.7031 v -1.7969 l 3.4844,-0.7031 H 7.6562 V -1.6562 H 10.875 V 0 H 2.4844 Z m 16.5996,-11.625 q -1.5313,0 -2.2969,1.5 -0.7656,1.5 -0.7656,4.5 0,3 0.7656,4.5 0.7656,1.5 2.2969,1.5 1.5312,0 2.2969,-1.5 0.7656,-1.5 0.7656,-4.5 0,-3 -0.7656,-4.5 -0.7657,-1.5 -2.2969,-1.5 z m 0,-1.5626 q 2.4531,0 3.7422,1.9376 1.289,1.9374 1.289,5.625 0,3.6874 -1.289,5.625 -1.2891,1.9374 -3.7422,1.9374 -2.4531,0 -3.75,-1.9374 -1.2969,-1.9376 -1.2969,-5.625 0,-3.6876 1.2969,-5.625 1.2969,-1.9376 3.75,-1.9376 z"
       id="path101" />
  </g>
  <g
     transform="translate(294,53)"
     style="font-size:16px;font-family:SansSerif;color-interpolation:linearRGB;fill:#262626;stroke:#262626;color-rendering:optimizeQuality;image-rendering:optimizeQuality;text-rendering:geometricPrecision"
     id="g107">
    <path
       style="stroke:none"
       d="m 1.7344,-11.6719 h 6.1875 v 1.3281 h -4.75 v 2.8594 q 0.3437,-0.1094 0.6875,-0.1718 0.3437,-0.0626 0.6875,-0.0626 1.9531,0 3.0937,1.0704 1.1406,1.0703 1.1406,2.8984 0,1.8906 -1.1718,2.9375 -1.1719,1.0469 -3.2969,1.0469 -0.7344,0 -1.5,-0.1328 -0.7656,-0.1328 -1.5781,-0.3828 v -1.5782 q 0.7031,0.375 1.4531,0.5625 0.75,0.1875 1.5937,0.1875 1.3438,0 2.1329,-0.7109 0.789,-0.7109 0.789,-1.9297 0,-1.2188 -0.789,-1.9297 -0.7891,-0.7109 -2.1329,-0.7109 -0.6406,0 -1.2656,0.1406 -0.625,0.1406 -1.2812,0.4375 z"
       id="path105" />
  </g>
  <g
     transform="matrix(1.2706181,0,0,1.2706181,653.60359,36.821314)"
     style="font-weight:bold;font-size:22px;font-family:SansSerif;color-interpolation:linearRGB;color-rendering:optimizeQuality;image-rendering:optimizeQuality;text-rendering:geometricPrecision"
     id="g111">
    <path
       style="stroke:none"
       d="m -256.75,-8.4844 q 1.2344,0 1.8828,-0.8984 0.6484,-0.8984 0.6484,-2.6172 0,-1.7188 -0.6484,-2.625 -0.6484,-0.9062 -1.8828,-0.9062 -1.2344,0 -1.8984,0.9062 -0.6641,0.9062 -0.6641,2.625 0,1.7031 0.6641,2.6094 0.664,0.9062 1.8984,0.9062 z m -2.5625,-7.7812 q 0.7969,-1.0625 1.7656,-1.5625 0.9688,-0.5 2.2188,-0.5 2.2343,0 3.664,1.7734 1.4297,1.7735 1.4297,4.5547 0,2.7812 -1.4297,4.5469 -1.4297,1.7656 -3.664,1.7656 -1.25,0 -2.2188,-0.5 -0.9687,-0.5 -1.7656,-1.5469 V -6 h -3.8437 v -16.7188 h 3.8437 z m 20.8418,1.5156 q -0.5,-0.2344 -1,-0.3516 -0.5,-0.1172 -1,-0.1172 -1.4844,0 -2.2891,0.9532 -0.8047,0.9531 -0.8047,2.7187 V -6 h -3.8437 v -12.0312 h 3.8437 v 1.9687 q 0.75,-1.1719 1.711,-1.7187 0.9609,-0.5469 2.3047,-0.5469 0.1875,0 0.414,0.0156 0.2266,0.0156 0.6641,0.0781 z m 1.9121,-3.2812 h 3.8438 V -6 h -3.8438 z m 0,-4.6876 h 3.8438 v 3.1407 h -3.8438 z m 15.7285,14.6719 q -0.7969,1.0625 -1.75,1.5547 -0.9531,0.4922 -2.2187,0.4922 -2.1875,0 -3.6328,-1.7344 -1.4454,-1.7344 -1.4454,-4.4218 0,-2.7032 1.4454,-4.4219 1.4453,-1.7188 3.6328,-1.7188 1.2656,0 2.2187,0.4922 0.9531,0.4922 1.75,1.5547 v -1.7812 h 3.875 v 10.8124 q 0,2.9063 -1.8359,4.4376 -1.836,1.5312 -5.3203,1.5312 -1.125,0 -2.1719,-0.1719 -1.0469,-0.1719 -2.125,-0.5312 v -3 q 1.0156,0.5937 1.9844,0.875 0.9687,0.2812 1.9375,0.2812 1.8906,0 2.7734,-0.8281 0.8828,-0.8281 0.8828,-2.5938 z m -2.5312,-7.4843 q -1.1875,0 -1.8594,0.8828 -0.6719,0.8828 -0.6719,2.4922 0,1.6562 0.6485,2.5078 0.6484,0.8515 1.8828,0.8515 1.2031,0 1.8672,-0.8828 0.664,-0.8828 0.664,-2.4765 0,-1.6094 -0.664,-2.4922 -0.6641,-0.8828 -1.8672,-0.8828 z m 22.1855,2.2031 V -6 h -3.8594 v -1.1875 -4.4063 q 0,-1.5781 -0.0703,-2.164 -0.0703,-0.586 -0.2422,-0.8672 -0.2187,-0.375 -0.6093,-0.5859 -0.3907,-0.211 -0.8907,-0.211 -1.2031,0 -1.8906,0.9297 -0.6875,0.9297 -0.6875,2.5703 V -6 h -3.8437 v -16.7188 h 3.8437 v 6.4532 q 0.875,-1.0625 1.8516,-1.5625 0.9765,-0.5 2.164,-0.5 2.0782,0 3.1563,1.2812 1.0781,1.2813 1.0781,3.7188 z m 7.7715,-8.125 v 3.4219 h 3.9688 v 2.75 h -3.9688 v 5.1093 q 0,0.8281 0.3359,1.125 0.336,0.2969 1.3204,0.2969 h 1.9687 V -6 h -3.2969 q -2.2656,0 -3.2187,-0.9531 -0.9531,-0.9531 -0.9531,-3.2188 v -5.1093 h -1.9063 v -2.75 h 1.9063 v -3.4219 z m 18.4072,8.125 V -6 h -3.8593 v -1.1875 -4.4219 q 0,-1.5625 -0.0704,-2.1484 -0.0703,-0.586 -0.2421,-0.8672 -0.2188,-0.375 -0.6094,-0.5859 -0.3906,-0.211 -0.8906,-0.211 -1.2032,0 -1.8907,0.9297 -0.6875,0.9297 -0.6875,2.5703 V -6 h -3.8437 v -12.0312 h 3.8437 v 1.7656 q 0.875,-1.0625 1.8516,-1.5625 0.9766,-0.5 2.1641,-0.5 2.0781,0 3.1562,1.2812 1.0781,1.2813 1.0781,3.7188 z m 15.584,1.2812 v 1.0938 h -9 q 0.1406,1.3593 0.9844,2.0312 0.8437,0.6719 2.3437,0.6719 1.2188,0 2.4922,-0.3594 1.2735,-0.3594 2.6016,-1.0937 v 2.9687 q -1.3594,0.5156 -2.7188,0.7813 -1.3593,0.2656 -2.7343,0.2656 -3.2657,0 -5.0703,-1.6641 -1.8047,-1.664 -1.8047,-4.6484 0,-2.9531 1.7734,-4.6406 1.7734,-1.6875 4.8828,-1.6875 2.8438,0 4.5469,1.7109 1.7031,1.711 1.7031,4.5703 z m -3.9531,-1.2812 q 0,-1.0938 -0.6406,-1.7657 -0.6407,-0.6718 -1.6719,-0.6718 -1.1094,0 -1.8125,0.625 -0.7031,0.625 -0.875,1.8125 z m 16.2646,-4.3281 v 2.9218 q -1.2343,-0.5156 -2.3828,-0.7734 -1.1484,-0.2578 -2.1797,-0.2578 -1.0937,0 -1.625,0.2734 -0.5312,0.2734 -0.5312,0.8516 0,0.4531 0.4062,0.7031 0.4063,0.25 1.4375,0.3594 l 0.6875,0.0937 q 2.9532,0.3906 3.9688,1.25 1.0156,0.8594 1.0156,2.6875 0,1.9219 -1.4141,2.8907 -1.414,0.9687 -4.2265,0.9687 -1.2031,0 -2.4688,-0.1875 -1.2656,-0.1875 -2.6093,-0.5625 v -2.9219 q 1.1406,0.5625 2.3515,0.836 1.211,0.2734 2.461,0.2734 1.125,0 1.6953,-0.3125 0.5703,-0.3125 0.5703,-0.9219 0,-0.5156 -0.3985,-0.7656 -0.3984,-0.25 -1.5546,-0.3906 l -0.6875,-0.0938 q -2.5625,-0.3125 -3.5938,-1.1875 -1.0312,-0.875 -1.0312,-2.6406 0,-1.9063 1.3125,-2.8359 1.3125,-0.9297 4.0156,-0.9297 1.0625,0 2.2344,0.164 1.1718,0.1641 2.5468,0.5079 z m 13.0948,0 v 2.9218 q -1.2344,-0.5156 -2.3828,-0.7734 -1.1485,-0.2578 -2.1797,-0.2578 -1.0938,0 -1.625,0.2734 -0.5313,0.2734 -0.5313,0.8516 0,0.4531 0.4063,0.7031 0.4062,0.25 1.4375,0.3594 l 0.6875,0.0937 q 2.9531,0.3906 3.9687,1.25 1.0156,0.8594 1.0156,2.6875 0,1.9219 -1.414,2.8907 -1.4141,0.9687 -4.2266,0.9687 -1.2031,0 -2.4687,-0.1875 -1.2657,-0.1875 -2.6094,-0.5625 v -2.9219 q 1.1406,0.5625 2.3516,0.836 1.2109,0.2734 2.4609,0.2734 1.125,0 1.6953,-0.3125 0.5703,-0.3125 0.5703,-0.9219 0,-0.5156 -0.3984,-0.7656 -0.3985,-0.25 -1.5547,-0.3906 l -0.6875,-0.0938 q -2.5625,-0.3125 -3.5938,-1.1875 -1.0312,-0.875 -1.0312,-2.6406 0,-1.9063 1.3125,-2.8359 1.3125,-0.9297 4.0156,-0.9297 1.0625,0 2.2344,0.164 1.1719,0.1641 2.5469,0.5079 z m 4.0947,7.5 h 3.8594 v 3.2812 l -2.6563,4 h -2.2812 l 1.0781,-4 z m 19.4541,2.4218 v 6.3125 h -3.8438 v -16.6093 h 3.8438 v 1.7656 q 0.7969,-1.0625 1.7656,-1.5625 0.9688,-0.5 2.2188,-0.5 2.2343,0 3.664,1.7734 1.4297,1.7735 1.4297,4.5547 0,2.7812 -1.4297,4.5469 -1.4297,1.7656 -3.664,1.7656 -1.25,0 -2.2188,-0.5 -0.9687,-0.5 -1.7656,-1.5469 z m 2.5625,-7.7968 q -1.2344,0 -1.8984,0.9062 -0.6641,0.9062 -0.6641,2.625 0,1.7031 0.6641,2.6094 0.664,0.9062 1.8984,0.9062 1.2344,0 1.8828,-0.8984 0.6484,-0.8984 0.6484,-2.6172 0,-1.7188 -0.6484,-2.625 -0.6484,-0.9062 -1.8828,-0.9062 z m 21.4355,2.2031 V -6 h -3.8593 v -1.1875 -4.4063 q 0,-1.5781 -0.0703,-2.164 -0.0704,-0.586 -0.2422,-0.8672 -0.2188,-0.375 -0.6094,-0.5859 -0.3906,-0.211 -0.8906,-0.211 -1.2032,0 -1.8907,0.9297 -0.6875,0.9297 -0.6875,2.5703 V -6 h -3.8437 v -16.7188 h 3.8437 v 6.4532 q 0.875,-1.0625 1.8516,-1.5625 0.9766,-0.5 2.1641,-0.5 2.0781,0 3.1562,1.2812 1.0781,1.2813 1.0781,3.7188 z m 9.3028,-2.25 q -1.2813,0 -1.9532,0.9219 -0.6718,0.9218 -0.6718,2.6562 0,1.7188 0.6718,2.6406 0.6719,0.9219 1.9532,0.9219 1.25,0 1.914,-0.9219 0.6641,-0.9218 0.6641,-2.6406 0,-1.7344 -0.6641,-2.6562 -0.664,-0.9219 -1.914,-0.9219 z m 0,-2.75 q 3.0937,0 4.8437,1.6797 1.75,1.6796 1.75,4.6484 0,2.9531 -1.75,4.6328 -1.75,1.6797 -4.8437,1.6797 -3.125,0 -4.875,-1.6797 -1.75,-1.6797 -1.75,-4.6328 0,-2.9688 1.75,-4.6484 1.75,-1.6797 4.875,-1.6797 z m 13.583,-3.125 v 3.4219 h 3.9687 v 2.75 h -3.9687 v 5.1093 q 0,0.8281 0.3359,1.125 0.336,0.2969 1.3203,0.2969 h 1.9688 V -6 h -3.2969 q -2.2656,0 -3.2187,-0.9531 -0.9532,-0.9531 -0.9532,-3.2188 v -5.1093 h -1.9062 v -2.75 h 1.9062 v -3.4219 z m 12.0478,5.875 q -1.2812,0 -1.9531,0.9219 -0.6719,0.9218 -0.6719,2.6562 0,1.7188 0.6719,2.6406 0.6719,0.9219 1.9531,0.9219 1.25,0 1.9141,-0.9219 0.6641,-0.9218 0.6641,-2.6406 0,-1.7344 -0.6641,-2.6562 -0.6641,-0.9219 -1.9141,-0.9219 z m 0,-2.75 q 3.0938,0 4.8438,1.6797 1.75,1.6796 1.75,4.6484 0,2.9531 -1.75,4.6328 -1.75,1.6797 -4.8438,1.6797 -3.125,0 -4.875,-1.6797 -1.75,-1.6797 -1.75,-4.6328 0,-2.9688 1.75,-4.6484 1.75,-1.6797 4.875,-1.6797 z m 21.4737,5 V -6 h -3.8594 v -1.1875 -4.4219 q 0,-1.5625 -0.0703,-2.1484 -0.0703,-0.586 -0.2422,-0.8672 -0.2188,-0.375 -0.6094,-0.5859 -0.3906,-0.211 -0.8906,-0.211 -1.2031,0 -1.8906,0.9297 -0.6875,0.9297 -0.6875,2.5703 V -6 h -3.8438 v -12.0312 h 3.8438 v 1.7656 q 0.875,-1.0625 1.8515,-1.5625 0.9766,-0.5 2.1641,-0.5 2.0781,0 3.1562,1.2812 1.0782,1.2813 1.0782,3.7188 z m 20.9463,-4.3281 v 3.1406 q -0.7813,-0.5469 -1.5704,-0.8047 -0.789,-0.2578 -1.6328,-0.2578 -1.6093,0 -2.5078,0.9453 -0.8984,0.9453 -0.8984,2.6328 0,1.6875 0.8984,2.625 0.8985,0.9375 2.5078,0.9375 0.9063,0 1.711,-0.2656 0.8047,-0.2657 1.4922,-0.7969 v 3.1406 q -0.8907,0.3438 -1.8204,0.5078 -0.9296,0.1641 -1.8671,0.1641 -3.25,0 -5.086,-1.6719 -1.8359,-1.6718 -1.8359,-4.6406 0,-2.9844 1.8359,-4.6562 1.836,-1.6719 5.086,-1.6719 0.9375,0 1.8593,0.1719 0.9219,0.1718 1.8282,0.5 z m 9.0566,2.0781 q -1.2813,0 -1.9531,0.9219 -0.6719,0.9218 -0.6719,2.6562 0,1.7188 0.6719,2.6406 0.6718,0.9219 1.9531,0.9219 1.25,0 1.9141,-0.9219 0.664,-0.9218 0.664,-2.6406 0,-1.7344 -0.664,-2.6562 -0.6641,-0.9219 -1.9141,-0.9219 z m 0,-2.75 q 3.0937,0 4.8437,1.6797 1.75,1.6796 1.75,4.6484 0,2.9531 -1.75,4.6328 -1.75,1.6797 -4.8437,1.6797 -3.125,0 -4.875,-1.6797 -1.75,-1.6797 -1.75,-4.6328 0,-2.9688 1.75,-4.6484 1.75,-1.6797 4.875,-1.6797 z m 9.2549,7.6406 v -7.3437 h 3.875 v 1.2031 q 0,0.9843 -0.0156,2.4609 -0.0157,1.4766 -0.0157,1.961 0,1.4531 0.0782,2.0937 0.0781,0.6406 0.25,0.9219 0.25,0.375 0.625,0.5859 0.375,0.2109 0.875,0.2109 1.2031,0 1.8906,-0.9296 0.6875,-0.9297 0.6875,-2.5704 v -5.9374 h 3.8437 V -6 h -3.8437 v -1.7344 q -0.875,1.0469 -1.8438,1.5469 -0.9687,0.5 -2.1406,0.5 -2.0781,0 -3.1719,-1.2813 Q 9.2051,-8.25 9.2051,-10.6875 Z m 27.8808,-2.6406 V -6 h -3.8593 v -1.1875 -4.4219 q 0,-1.5625 -0.0704,-2.1484 -0.0703,-0.586 -0.2421,-0.8672 -0.2188,-0.375 -0.6094,-0.5859 -0.3906,-0.211 -0.8906,-0.211 -1.2032,0 -1.8907,0.9297 -0.6875,0.9297 -0.6875,2.5703 V -6 h -3.8437 v -12.0312 h 3.8437 v 1.7656 q 0.875,-1.0625 1.8516,-1.5625 0.9766,-0.5 2.1641,-0.5 2.0781,0 3.1562,1.2812 1.0781,1.2813 1.0781,3.7188 z m 7.7715,-8.125 v 3.4219 h 3.9688 v 2.75 h -3.9688 v 5.1093 q 0,0.8281 0.336,1.125 0.3359,0.2969 1.3203,0.2969 h 1.9687 V -6 h -3.2969 q -2.2656,0 -3.2187,-0.9531 -0.9531,-0.9531 -0.9531,-3.2188 v -5.1093 h -1.9063 v -2.75 h 1.9063 v -3.4219 z m 15.7197,3.7969 v 2.9218 q -1.2343,-0.5156 -2.3828,-0.7734 -1.1484,-0.2578 -2.1797,-0.2578 -1.0937,0 -1.625,0.2734 -0.5312,0.2734 -0.5312,0.8516 0,0.4531 0.4062,0.7031 0.4063,0.25 1.4375,0.3594 l 0.6875,0.0937 q 2.9532,0.3906 3.9688,1.25 1.0156,0.8594 1.0156,2.6875 0,1.9219 -1.414,2.8907 -1.4141,0.9687 -4.2266,0.9687 -1.2031,0 -2.4688,-0.1875 -1.2656,-0.1875 -2.6093,-0.5625 v -2.9219 q 1.1406,0.5625 2.3515,0.836 1.211,0.2734 2.461,0.2734 1.125,0 1.6953,-0.3125 0.5703,-0.3125 0.5703,-0.9219 0,-0.5156 -0.3984,-0.7656 -0.3985,-0.25 -1.5547,-0.3906 l -0.6875,-0.0938 q -2.5625,-0.3125 -3.5938,-1.1875 -1.0312,-0.875 -1.0312,-2.6406 0,-1.9063 1.3125,-2.8359 1.3125,-0.9297 4.0156,-0.9297 1.0625,0 2.2344,0.164 1.1718,0.1641 2.5468,0.5079 z m 15.1602,-4.375 h 2.375 l -5.6562,18.0781 h -2.375 z m 23.0381,6 q 0.7344,-1.125 1.7344,-1.711 1,-0.5859 2.2031,-0.5859 2.0781,0 3.1641,1.2812 1.0859,1.2813 1.0859,3.7188 V -6 h -3.875 v -6.2812 q 0.0156,-0.125 0.0234,-0.2813 0.008,-0.1563 0.008,-0.4375 0,-1.2656 -0.375,-1.8438 -0.375,-0.5781 -1.2187,-0.5781 -1.0938,0 -1.6953,0.9063 -0.6016,0.9062 -0.6172,2.6094 V -6 h -3.8594 v -6.2812 q 0,-1.9844 -0.3437,-2.5626 -0.3438,-0.5781 -1.2344,-0.5781 -1.1094,0 -1.7109,0.9063 -0.6016,0.9062 -0.6016,2.5937 V -6 h -3.8594 v -12.0312 h 3.8594 v 1.7656 q 0.7187,-1.0313 1.6328,-1.5469 0.9141,-0.5156 2.0234,-0.5156 1.25,0 2.2032,0.6015 0.9531,0.6016 1.4531,1.6954 z m 10.5801,-6 h 3.9687 l 2.7656,11.6406 2.75,-11.6406 h 3.9844 l 2.75,11.6406 2.7656,-11.6406 h 3.9375 L 128.4961,-6 h -4.7656 L 120.8242,-18.1875 117.9336,-6 h -4.7656 z m 45.1289,9.9843 v 1.0938 h -9 q 0.1406,1.3593 0.9844,2.0312 0.8437,0.6719 2.3437,0.6719 1.2187,0 2.4922,-0.3594 1.2734,-0.3594 2.6015,-1.0937 v 2.9687 q -1.3593,0.5156 -2.7187,0.7813 -1.3594,0.2656 -2.7344,0.2656 -3.2656,0 -5.0703,-1.6641 -1.8047,-1.664 -1.8047,-4.6484 0,-2.9531 1.7735,-4.6406 1.7734,-1.6875 4.8828,-1.6875 2.8437,0 4.5468,1.7109 1.7032,1.711 1.7032,4.5703 z m -3.9532,-1.2812 q 0,-1.0938 -0.6406,-1.7657 -0.6406,-0.6718 -1.6718,-0.6718 -1.1094,0 -1.8126,0.625 -0.7031,0.625 -0.875,1.8125 z m 9.9053,1.1719 -4.3437,-5.875 h 4.0781 l 2.4531,3.5624 2.5,-3.5624 h 4.0625 l -4.3437,5.8593 4.5625,6.1719 h -4.0782 L 162.624,-9.7969 159.9521,-6 h -4.0781 z m 20.8623,-5.5 v 3.1406 q -0.7812,-0.5469 -1.5703,-0.8047 -0.789,-0.2578 -1.6328,-0.2578 -1.6094,0 -2.5078,0.9453 -0.8984,0.9453 -0.8984,2.6328 0,1.6875 0.8984,2.625 0.8984,0.9375 2.5078,0.9375 0.9063,0 1.7109,-0.2656 0.8047,-0.2657 1.4922,-0.7969 v 3.1406 q -0.8906,0.3438 -1.8203,0.5078 -0.9297,0.1641 -1.8672,0.1641 -3.25,0 -5.0859,-1.6719 -1.8359,-1.6718 -1.8359,-4.6406 0,-2.9844 1.8359,-4.6562 1.8359,-1.6719 5.0859,-1.6719 0.9375,0 1.8594,0.1719 0.9219,0.1718 1.8281,0.5 z m 3.3223,-0.375 h 3.8437 V -6 h -3.8437 z m 0,-4.6876 h 3.8437 v 3.1407 h -3.8437 z m 11.7441,1.2657 v 3.4219 h 3.9688 v 2.75 h -3.9688 v 5.1093 q 0,0.8281 0.336,1.125 0.3359,0.2969 1.3203,0.2969 h 1.9687 V -6 h -3.2968 q -2.2657,0 -3.2188,-0.9531 -0.9531,-0.9531 -0.9531,-3.2188 v -5.1093 h -1.9063 v -2.75 h 1.9063 v -3.4219 z m 11.7041,10.0312 q -1.2031,0 -1.8047,0.4141 -0.6015,0.414 -0.6015,1.2109 0,0.7188 0.4844,1.1328 0.4843,0.4141 1.3593,0.4141 1.0782,0 1.8203,-0.7734 0.7422,-0.7735 0.7422,-1.9454 v -0.4531 z m 5.875,-1.4375 V -6 h -3.875 v -1.7812 q -0.7656,1.0937 -1.7343,1.5937 -0.9688,0.5 -2.3594,0.5 -1.8594,0 -3.0235,-1.0937 -1.164,-1.0938 -1.164,-2.8282 0,-2.1094 1.4531,-3.1015 1.4531,-0.9922 4.5625,-0.9922 h 2.2656 V -14 q 0,-0.9219 -0.7187,-1.3438 -0.7188,-0.4218 -2.2344,-0.4218 -1.25,0 -2.3125,0.25 -1.0625,0.25 -1.9687,0.7344 v -2.9219 q 1.2343,-0.3125 2.4765,-0.4688 1.2422,-0.1562 2.4922,-0.1562 3.2656,0 4.7031,1.289 1.4375,1.2891 1.4375,4.1797 z m 7.7832,-8.5937 v 3.4219 h 3.9688 v 2.75 h -3.9688 v 5.1093 q 0,0.8281 0.336,1.125 0.3359,0.2969 1.3203,0.2969 h 1.9687 V -6 h -3.2968 q -2.2657,0 -3.2188,-0.9531 -0.9531,-0.9531 -0.9531,-3.2188 v -5.1093 h -1.9063 v -2.75 h 1.9063 v -3.4219 z m 6.3135,3.4219 h 3.8438 V -6 h -3.8438 z m 0,-4.6876 h 3.8438 v 3.1407 h -3.8438 z m 13.2754,7.1407 q -1.2812,0 -1.9531,0.9219 -0.6719,0.9218 -0.6719,2.6562 0,1.7188 0.6719,2.6406 0.6719,0.9219 1.9531,0.9219 1.25,0 1.9141,-0.9219 0.664,-0.9218 0.664,-2.6406 0,-1.7344 -0.664,-2.6562 -0.6641,-0.9219 -1.9141,-0.9219 z m 0,-2.75 q 3.0938,0 4.8438,1.6797 1.75,1.6796 1.75,4.6484 0,2.9531 -1.75,4.6328 -1.75,1.6797 -4.8438,1.6797 -3.125,0 -4.875,-1.6797 -1.75,-1.6797 -1.75,-4.6328 0,-2.9688 1.75,-4.6484 1.75,-1.6797 4.875,-1.6797 z m 21.4736,5 V -6 h -3.8593 v -1.1875 -4.4219 q 0,-1.5625 -0.0703,-2.1484 -0.0704,-0.586 -0.2422,-0.8672 -0.2188,-0.375 -0.6094,-0.5859 -0.3906,-0.211 -0.8906,-0.211 -1.2032,0 -1.8907,0.9297 -0.6875,0.9297 -0.6875,2.5703 V -6 h -3.8437 v -12.0312 h 3.8437 v 1.7656 q 0.875,-1.0625 1.8516,-1.5625 0.9766,-0.5 2.1641,-0.5 2.0781,0 3.1562,1.2812 1.0781,1.2813 1.0781,3.7188 z"
       id="path109" />
  </g>
  <g
     style="color-interpolation:linearRGB;fill:#0072bd;stroke:#0072bd;stroke-width:2.6667;stroke-linecap:butt;stroke-linejoin:round;color-rendering:optimizeQuality;image-rendering:optimizeQuality;text-rendering:geometricPrecision"
     id="g117">
    <path
       d="m 316.7,617.7118 32.35,-140.0436 32.35,35.6718 32.35,39.5657 32.35,148.9622 32.35,-124.8788 32.35,-99.1655 32.35,-87.7576 32.35,-43.0865 32.35,-13.8613 16.175,-140.3429 16.175,-30.8889 16.175,-41.4924 16.175,12.6083 32.35,160.3989 32.35,118.3528 32.35,2.5688 32.35,26.155 32.35,104.0703 32.35,136.9847 32.35,51.1736"
       style="fill:none;fill-rule:evenodd"
       id="path113" />
    <path
       d="m 316.7,617.7118 32.35,-140.0436 32.35,35.6718 32.35,39.5657 32.35,148.9622 32.35,-124.8788 32.35,-99.1655 32.35,-87.7576 32.35,-43.0865 32.35,-13.8613 16.175,-140.3429 16.175,-30.8889 16.175,-41.4924 16.175,12.6083 32.35,160.3989 32.35,118.3528 32.35,2.5688 32.35,26.155 32.35,104.0703 32.35,136.9847 32.35,51.1736"
       style="fill:none;fill-rule:evenodd;stroke:#d95319"
       id="path115" />
  </g>
  <g
     style="color-interpolation:sRGB;fill:#ffffff;stroke:#ffffff;color-rendering:optimizeSpeed;image-rendering:optimizeSpeed;shape-rendering:crispEdges;text-rendering:optimizeSpeed"
     id="g121">
    <path
       style="stroke:none"
       d="m 1104,802 h 647 V 68 h -647 z"
       id="path119" />
  </g>
  <g
     style="color-interpolation:linearRGB;fill:#262626;stroke:#262626;stroke-width:2.467;stroke-linejoin:round;color-rendering:optimizeQuality;image-rendering:optimizeQuality;text-rendering:geometricPrecision;stroke-miterlimit:10;stroke-dasharray:none"
     id="g135">
    <line
       y2="802"
       style="fill:none;stroke-width:2.467;stroke-miterlimit:10;stroke-dasharray:none"
       x1="1104"
       x2="1751"
       y1="802"
       id="line123" />
    <line
       y2="794.65997"
       style="fill:none;stroke-width:2.467;stroke-miterlimit:10;stroke-dasharray:none"
       x1="1104"
       x2="1104"
       y1="802"
       id="line125" />
    <line
       y2="794.65997"
       style="fill:none;stroke-width:2.467;stroke-miterlimit:10;stroke-dasharray:none"
       x1="1265.75"
       x2="1265.75"
       y1="802"
       id="line127" />
    <line
       y2="794.65997"
       style="fill:none;stroke-width:2.467;stroke-miterlimit:10;stroke-dasharray:none"
       x1="1427.5"
       x2="1427.5"
       y1="802"
       id="line129" />
    <line
       y2="794.65997"
       style="fill:none;stroke-width:2.467;stroke-miterlimit:10;stroke-dasharray:none"
       x1="1589.25"
       x2="1589.25"
       y1="802"
       id="line131" />
    <line
       y2="794.65997"
       style="fill:none;stroke-width:2.467;stroke-miterlimit:10;stroke-dasharray:none"
       x1="1751"
       x2="1751"
       y1="802"
       id="line133" />
  </g>
  <g
     transform="translate(1104,808.6666)"
     style="font-size:20px;font-family:SansSerif;color-interpolation:linearRGB;fill:#262626;stroke:#262626;color-rendering:optimizeQuality;image-rendering:optimizeQuality;text-rendering:geometricPrecision"
     id="g139">
    <path
       style="stroke:none"
       d="m -23.0156,17.3438 h 3.2187 V 6.2188 l -3.5,0.7031 V 5.125 l 3.4844,-0.7031 h 1.9687 v 12.9219 h 3.2188 V 19 h -8.3906 z m 12.7246,0 h 3.2187 V 6.2188 l -3.5,0.7031 V 5.125 l 3.4844,-0.7031 h 1.9688 v 12.9219 h 3.2187 V 19 H -10.291 Z M 6.3086,5.7188 q -1.5313,0 -2.2969,1.5 -0.7656,1.5 -0.7656,4.5 0,3 0.7656,4.5 0.7656,1.5 2.2969,1.5 1.5312,0 2.2969,-1.5 0.7656,-1.5 0.7656,-4.5 0,-3 -0.7656,-4.5 -0.7657,-1.5 -2.2969,-1.5 z m 0,-1.5626 q 2.4531,0 3.7422,1.9376 1.289,1.9374 1.289,5.625 0,3.6874 -1.289,5.625 -1.2891,1.9374 -3.7422,1.9374 -2.4531,0 -3.75,-1.9374 -1.2969,-1.9376 -1.2969,-5.625 0,-3.6876 1.2969,-5.625 1.2969,-1.9376 3.75,-1.9376 z m 12.7246,1.5626 q -1.5312,0 -2.2969,1.5 -0.7656,1.5 -0.7656,4.5 0,3 0.7656,4.5 0.7657,1.5 2.2969,1.5 1.5313,0 2.2969,-1.5 0.7656,-1.5 0.7656,-4.5 0,-3 -0.7656,-4.5 -0.7656,-1.5 -2.2969,-1.5 z m 0,-1.5626 q 2.4531,0 3.7422,1.9376 1.2891,1.9374 1.2891,5.625 0,3.6874 -1.2891,5.625 -1.2891,1.9374 -3.7422,1.9374 -2.4531,0 -3.75,-1.9374 -1.2969,-1.9376 -1.2969,-5.625 0,-3.6876 1.2969,-5.625 1.2969,-1.9376 3.75,-1.9376 z"
       id="path137" />
  </g>
  <g
     transform="translate(1265.75,808.6666)"
     style="font-size:20px;font-family:SansSerif;color-interpolation:linearRGB;fill:#262626;stroke:#262626;color-rendering:optimizeQuality;image-rendering:optimizeQuality;text-rendering:geometricPrecision"
     id="g143">
    <path
       style="stroke:none"
       d="m -23.0156,17.3438 h 3.2187 V 6.2188 l -3.5,0.7031 V 5.125 l 3.4844,-0.7031 h 1.9687 v 12.9219 h 3.2188 V 19 h -8.3906 z m 12.7246,0 h 3.2187 V 6.2188 l -3.5,0.7031 V 5.125 l 3.4844,-0.7031 h 1.9688 v 12.9219 h 3.2187 V 19 H -10.291 Z M 2.1055,4.4219 h 7.75 V 6.0781 H 3.918 V 9.6562 Q 4.3398,9.5 4.7695,9.4297 5.1992,9.3594 5.6367,9.3594 q 2.4375,0 3.8672,1.3359 1.4297,1.3359 1.4297,3.6328 0,2.3438 -1.4688,3.6485 -1.4687,1.3046 -4.1406,1.3046 -0.9062,0 -1.8594,-0.1562 -0.9531,-0.1562 -1.9687,-0.4688 v -1.9843 q 0.875,0.4843 1.8125,0.7187 0.9375,0.2344 1.9844,0.2344 1.6875,0 2.6718,-0.8906 0.9844,-0.8906 0.9844,-2.4063 0,-1.5312 -0.9844,-2.4219 -0.9843,-0.8906 -2.6718,-0.8906 -0.7969,0 -1.5782,0.1797 Q 2.9336,11.375 2.1055,11.75 Z m 16.9277,1.2969 q -1.5312,0 -2.2969,1.5 -0.7656,1.5 -0.7656,4.5 0,3 0.7656,4.5 0.7657,1.5 2.2969,1.5 1.5313,0 2.2969,-1.5 0.7656,-1.5 0.7656,-4.5 0,-3 -0.7656,-4.5 -0.7656,-1.5 -2.2969,-1.5 z m 0,-1.5626 q 2.4531,0 3.7422,1.9376 1.2891,1.9374 1.2891,5.625 0,3.6874 -1.2891,5.625 -1.2891,1.9374 -3.7422,1.9374 -2.4531,0 -3.75,-1.9374 -1.2969,-1.9376 -1.2969,-5.625 0,-3.6876 1.2969,-5.625 1.2969,-1.9376 3.75,-1.9376 z"
       id="path141" />
  </g>
  <g
     transform="translate(1427.5,808.6666)"
     style="font-size:20px;font-family:SansSerif;color-interpolation:linearRGB;fill:#262626;stroke:#262626;color-rendering:optimizeQuality;image-rendering:optimizeQuality;text-rendering:geometricPrecision"
     id="g147">
    <path
       style="stroke:none"
       d="m -23.0156,17.3438 h 3.2187 V 6.2188 l -3.5,0.7031 V 5.125 l 3.4844,-0.7031 h 1.9687 v 12.9219 h 3.2188 V 19 h -8.3906 z m 14.084,0 h 6.875 V 19 h -9.25 v -1.6562 q 1.125,-1.1719 3.0625,-3.125 1.9375,-1.9532 2.4375,-2.5313 0.9375,-1.0625 1.3125,-1.7969 0.375,-0.7344 0.375,-1.4531 0,-1.1563 -0.8125,-1.8906 -0.8125,-0.7344 -2.125,-0.7344 -0.9219,0 -1.9532,0.3203 -1.0312,0.3203 -2.2031,0.9766 V 5.125 q 1.1875,-0.4844 2.2266,-0.7266 1.039,-0.2422 1.8984,-0.2422 2.2656,0 3.6094,1.1329 1.3437,1.1328 1.3437,3.0234 0,0.9063 -0.3359,1.7109 -0.3359,0.8047 -1.2266,1.8985 -0.2343,0.2812 -1.5468,1.6328 -1.3125,1.3515 -3.6875,3.7891 z M 6.3086,5.7188 q -1.5313,0 -2.2969,1.5 -0.7656,1.5 -0.7656,4.5 0,3 0.7656,4.5 0.7656,1.5 2.2969,1.5 1.5312,0 2.2969,-1.5 0.7656,-1.5 0.7656,-4.5 0,-3 -0.7656,-4.5 -0.7657,-1.5 -2.2969,-1.5 z m 0,-1.5626 q 2.4531,0 3.7422,1.9376 1.289,1.9374 1.289,5.625 0,3.6874 -1.289,5.625 -1.2891,1.9374 -3.7422,1.9374 -2.4531,0 -3.75,-1.9374 -1.2969,-1.9376 -1.2969,-5.625 0,-3.6876 1.2969,-5.625 1.2969,-1.9376 3.75,-1.9376 z m 12.7246,1.5626 q -1.5312,0 -2.2969,1.5 -0.7656,1.5 -0.7656,4.5 0,3 0.7656,4.5 0.7657,1.5 2.2969,1.5 1.5313,0 2.2969,-1.5 0.7656,-1.5 0.7656,-4.5 0,-3 -0.7656,-4.5 -0.7656,-1.5 -2.2969,-1.5 z m 0,-1.5626 q 2.4531,0 3.7422,1.9376 1.2891,1.9374 1.2891,5.625 0,3.6874 -1.2891,5.625 -1.2891,1.9374 -3.7422,1.9374 -2.4531,0 -3.75,-1.9374 -1.2969,-1.9376 -1.2969,-5.625 0,-3.6876 1.2969,-5.625 1.2969,-1.9376 3.75,-1.9376 z"
       id="path145" />
  </g>
  <g
     transform="translate(1589.25,808.6666)"
     style="font-size:20px;font-family:SansSerif;color-interpolation:linearRGB;fill:#262626;stroke:#262626;color-rendering:optimizeQuality;image-rendering:optimizeQuality;text-rendering:geometricPrecision"
     id="g151">
    <path
       style="stroke:none"
       d="m -23.0156,17.3438 h 3.2187 V 6.2188 l -3.5,0.7031 V 5.125 l 3.4844,-0.7031 h 1.9687 v 12.9219 h 3.2188 V 19 h -8.3906 z m 14.084,0 h 6.875 V 19 h -9.25 v -1.6562 q 1.125,-1.1719 3.0625,-3.125 1.9375,-1.9532 2.4375,-2.5313 0.9375,-1.0625 1.3125,-1.7969 0.375,-0.7344 0.375,-1.4531 0,-1.1563 -0.8125,-1.8906 -0.8125,-0.7344 -2.125,-0.7344 -0.9219,0 -1.9532,0.3203 -1.0312,0.3203 -2.2031,0.9766 V 5.125 q 1.1875,-0.4844 2.2266,-0.7266 1.039,-0.2422 1.8984,-0.2422 2.2656,0 3.6094,1.1329 1.3437,1.1328 1.3437,3.0234 0,0.9063 -0.3359,1.7109 -0.3359,0.8047 -1.2266,1.8985 -0.2343,0.2812 -1.5468,1.6328 -1.3125,1.3515 -3.6875,3.7891 z M 2.1055,4.4219 h 7.75 V 6.0781 H 3.918 V 9.6562 Q 4.3398,9.5 4.7695,9.4297 5.1992,9.3594 5.6367,9.3594 q 2.4375,0 3.8672,1.3359 1.4297,1.3359 1.4297,3.6328 0,2.3438 -1.4688,3.6485 -1.4687,1.3046 -4.1406,1.3046 -0.9062,0 -1.8594,-0.1562 -0.9531,-0.1562 -1.9687,-0.4688 v -1.9843 q 0.875,0.4843 1.8125,0.7187 0.9375,0.2344 1.9844,0.2344 1.6875,0 2.6718,-0.8906 0.9844,-0.8906 0.9844,-2.4063 0,-1.5312 -0.9844,-2.4219 -0.9843,-0.8906 -2.6718,-0.8906 -0.7969,0 -1.5782,0.1797 Q 2.9336,11.375 2.1055,11.75 Z m 16.9277,1.2969 q -1.5312,0 -2.2969,1.5 -0.7656,1.5 -0.7656,4.5 0,3 0.7656,4.5 0.7657,1.5 2.2969,1.5 1.5313,0 2.2969,-1.5 0.7656,-1.5 0.7656,-4.5 0,-3 -0.7656,-4.5 -0.7656,-1.5 -2.2969,-1.5 z m 0,-1.5626 q 2.4531,0 3.7422,1.9376 1.2891,1.9374 1.2891,5.625 0,3.6874 -1.2891,5.625 -1.2891,1.9374 -3.7422,1.9374 -2.4531,0 -3.75,-1.9374 -1.2969,-1.9376 -1.2969,-5.625 0,-3.6876 1.2969,-5.625 1.2969,-1.9376 3.75,-1.9376 z"
       id="path149" />
  </g>
  <g
     transform="translate(1751,808.6666)"
     style="font-size:20px;font-family:SansSerif;color-interpolation:linearRGB;fill:#262626;stroke:#262626;color-rendering:optimizeQuality;image-rendering:optimizeQuality;text-rendering:geometricPrecision"
     id="g155">
    <path
       style="stroke:none"
       d="m -23.0156,17.3438 h 3.2187 V 6.2188 l -3.5,0.7031 V 5.125 l 3.4844,-0.7031 h 1.9687 v 12.9219 h 3.2188 V 19 h -8.3906 z M -4.666,11.1406 q 1.4219,0.2969 2.2187,1.2578 0.7969,0.961 0.7969,2.3672 0,2.1563 -1.4844,3.336 -1.4843,1.1796 -4.2187,1.1796 -0.9219,0 -1.8906,-0.1796 -0.9688,-0.1797 -2,-0.5391 v -1.9063 q 0.8125,0.4844 1.789,0.7266 0.9766,0.2422 2.0391,0.2422 1.8594,0 2.8281,-0.7344 0.9688,-0.7344 0.9688,-2.125 0,-1.2968 -0.8985,-2.0234 -0.8984,-0.7266 -2.5078,-0.7266 h -1.7031 v -1.625 h 1.7812 q 1.4532,0 2.2188,-0.5781 0.7656,-0.5781 0.7656,-1.6719 0,-1.125 -0.7891,-1.7265 -0.789,-0.6016 -2.2734,-0.6016 -0.8125,0 -1.7422,0.1797 -0.9297,0.1797 -2.039,0.539 v -1.75 q 1.125,-0.3124 2.1015,-0.4687 0.9766,-0.1563 1.8516,-0.1563 2.25,0 3.5547,1.0235 1.3047,1.0234 1.3047,2.7578 0,1.2031 -0.6954,2.0391 -0.6953,0.8359 -1.9765,1.164 z M 6.3086,5.7188 q -1.5313,0 -2.2969,1.5 -0.7656,1.5 -0.7656,4.5 0,3 0.7656,4.5 0.7656,1.5 2.2969,1.5 1.5312,0 2.2969,-1.5 0.7656,-1.5 0.7656,-4.5 0,-3 -0.7656,-4.5 -0.7657,-1.5 -2.2969,-1.5 z m 0,-1.5626 q 2.4531,0 3.7422,1.9376 1.289,1.9374 1.289,5.625 0,3.6874 -1.289,5.625 -1.2891,1.9374 -3.7422,1.9374 -2.4531,0 -3.75,-1.9374 -1.2969,-1.9376 -1.2969,-5.625 0,-3.6876 1.2969,-5.625 1.2969,-1.9376 3.75,-1.9376 z m 12.7246,1.5626 q -1.5312,0 -2.2969,1.5 -0.7656,1.5 -0.7656,4.5 0,3 0.7656,4.5 0.7657,1.5 2.2969,1.5 1.5313,0 2.2969,-1.5 0.7656,-1.5 0.7656,-4.5 0,-3 -0.7656,-4.5 -0.7656,-1.5 -2.2969,-1.5 z m 0,-1.5626 q 2.4531,0 3.7422,1.9376 1.2891,1.9374 1.2891,5.625 0,3.6874 -1.2891,5.625 -1.2891,1.9374 -3.7422,1.9374 -2.4531,0 -3.75,-1.9374 -1.2969,-1.9376 -1.2969,-5.625 0,-3.6876 1.2969,-5.625 1.2969,-1.9376 3.75,-1.9376 z"
       id="path153" />
  </g>
  <g
     style="color-interpolation:linearRGB;fill:#262626;stroke:#262626;stroke-width:2.467;stroke-linejoin:round;color-rendering:optimizeQuality;image-rendering:optimizeQuality;text-rendering:geometricPrecision;stroke-miterlimit:10;stroke-dasharray:none"
     id="g179">
    <line
       y2="68"
       style="fill:none;stroke-width:2.467;stroke-miterlimit:10;stroke-dasharray:none"
       x1="1104"
       x2="1104"
       y1="802"
       id="line157" />
    <line
       y2="802"
       style="fill:none;stroke-width:2.467;stroke-miterlimit:10;stroke-dasharray:none"
       x1="1104"
       x2="1111.34"
       y1="802"
       id="line159" />
    <line
       y2="720.44452"
       style="fill:none;stroke-width:2.467;stroke-miterlimit:10;stroke-dasharray:none"
       x1="1104"
       x2="1111.34"
       y1="720.44452"
       id="line161" />
    <line
       y2="638.88892"
       style="fill:none;stroke-width:2.467;stroke-miterlimit:10;stroke-dasharray:none"
       x1="1104"
       x2="1111.34"
       y1="638.88892"
       id="line163" />
    <line
       y2="557.33331"
       style="fill:none;stroke-width:2.467;stroke-miterlimit:10;stroke-dasharray:none"
       x1="1104"
       x2="1111.34"
       y1="557.33331"
       id="line165" />
    <line
       y2="475.7778"
       style="fill:none;stroke-width:2.467;stroke-miterlimit:10;stroke-dasharray:none"
       x1="1104"
       x2="1111.34"
       y1="475.7778"
       id="line167" />
    <line
       y2="394.2222"
       style="fill:none;stroke-width:2.467;stroke-miterlimit:10;stroke-dasharray:none"
       x1="1104"
       x2="1111.34"
       y1="394.2222"
       id="line169" />
    <line
       y2="312.66669"
       style="fill:none;stroke-width:2.467;stroke-miterlimit:10;stroke-dasharray:none"
       x1="1104"
       x2="1111.34"
       y1="312.66669"
       id="line171" />
    <line
       y2="231.1111"
       style="fill:none;stroke-width:2.467;stroke-miterlimit:10;stroke-dasharray:none"
       x1="1104"
       x2="1111.34"
       y1="231.1111"
       id="line173" />
    <line
       y2="149.5556"
       style="fill:none;stroke-width:2.467;stroke-miterlimit:10;stroke-dasharray:none"
       x1="1104"
       x2="1111.34"
       y1="149.5556"
       id="line175" />
    <line
       y2="68"
       style="fill:none;stroke-width:2.467;stroke-miterlimit:10;stroke-dasharray:none"
       x1="1104"
       x2="1111.34"
       y1="68"
       id="line177" />
  </g>
  <g
     transform="translate(1097.3334,802)"
     style="font-size:20px;font-family:SansSerif;color-interpolation:linearRGB;fill:#262626;stroke:#262626;color-rendering:optimizeQuality;image-rendering:optimizeQuality;text-rendering:geometricPrecision"
     id="g183">
    <path
       style="stroke:none"
       d="m -19.0156,0.7188 h 5.25 v 1.6093 h -5.25 z m 13.7949,-6.5782 -4.9844,7.7813 h 4.9844 z m -0.5156,-1.7187 h 2.4687 v 9.5 h 2.0938 V 3.5625 H -3.2676 V 7 H -5.2207 V 3.5625 h -6.5781 V 1.6562 Z"
       id="path181" />
  </g>
  <g
     transform="translate(1097.3334,720.4445)"
     style="font-size:20px;font-family:SansSerif;color-interpolation:linearRGB;fill:#262626;stroke:#262626;color-rendering:optimizeQuality;image-rendering:optimizeQuality;text-rendering:geometricPrecision"
     id="g187">
    <path
       style="stroke:none"
       d="m -19.0156,0.7188 h 5.25 v 1.6093 h -5.25 z m 14.3418,-1.5782 q 1.4218,0.2969 2.2187,1.2578 0.7969,0.961 0.7969,2.3672 0,2.1563 -1.4844,3.336 -1.4844,1.1796 -4.2187,1.1796 -0.9219,0 -1.8907,-0.1796 -0.9687,-0.1797 -2,-0.5391 V 4.6562 q 0.8125,0.4844 1.7891,0.7266 0.9766,0.2422 2.0391,0.2422 1.8593,0 2.8281,-0.7344 0.9687,-0.7344 0.9687,-2.125 0,-1.2968 -0.8984,-2.0234 -0.8984,-0.7266 -2.5078,-0.7266 h -1.7031 v -1.625 h 1.7812 q 1.4531,0 2.2188,-0.5781 0.7656,-0.5781 0.7656,-1.6719 0,-1.125 -0.7891,-1.7265 -0.789,-0.6016 -2.2734,-0.6016 -0.8125,0 -1.7422,0.1797 -0.9297,0.1797 -2.0391,0.539 v -1.75 q 1.125,-0.3124 2.1016,-0.4687 0.9766,-0.1563 1.8516,-0.1563 2.25,0 3.5547,1.0235 1.3046,1.0234 1.3046,2.7578 0,1.2031 -0.6953,2.0391 -0.6953,0.8359 -1.9765,1.164 z"
       id="path185" />
  </g>
  <g
     transform="translate(1097.3334,638.8889)"
     style="font-size:20px;font-family:SansSerif;color-interpolation:linearRGB;fill:#262626;stroke:#262626;color-rendering:optimizeQuality;image-rendering:optimizeQuality;text-rendering:geometricPrecision"
     id="g191">
    <path
       style="stroke:none"
       d="m -19.0156,0.7188 h 5.25 v 1.6093 h -5.25 z m 10.0761,4.625 h 6.875 V 7 h -9.25 V 5.3438 q 1.125,-1.1719 3.0625,-3.125 1.9375,-1.9532 2.4375,-2.5313 0.9375,-1.0625 1.3125,-1.7969 0.375,-0.7344 0.375,-1.4531 0,-1.1563 -0.8125,-1.8906 -0.8125,-0.7344 -2.125,-0.7344 -0.9218,0 -1.9531,0.3203 -1.0312,0.3203 -2.2031,0.9766 V -6.875 q 1.1875,-0.4844 2.2266,-0.7266 1.039,-0.2422 1.8984,-0.2422 2.2656,0 3.6094,1.1329 1.3437,1.1328 1.3437,3.0234 0,0.9063 -0.3359,1.7109 -0.336,0.8047 -1.2266,1.8985 -0.2344,0.2812 -1.5469,1.6328 -1.3125,1.3515 -3.6875,3.7891 z"
       id="path189" />
  </g>
  <g
     transform="translate(1097.3334,557.3333)"
     style="font-size:20px;font-family:SansSerif;color-interpolation:linearRGB;fill:#262626;stroke:#262626;color-rendering:optimizeQuality;image-rendering:optimizeQuality;text-rendering:geometricPrecision"
     id="g195">
    <path
       style="stroke:none"
       d="m -19.0156,0.7188 h 5.25 v 1.6093 h -5.25 z m 8.7168,4.625 h 3.2187 v -11.125 l -3.5,0.7031 V -6.875 l 3.4844,-0.7031 H -5.127 V 5.3438 h 3.2188 V 7 h -8.3906 z"
       id="path193" />
  </g>
  <g
     transform="translate(1097.3334,475.7778)"
     style="font-size:20px;font-family:SansSerif;color-interpolation:linearRGB;fill:#262626;stroke:#262626;color-rendering:optimizeQuality;image-rendering:optimizeQuality;text-rendering:geometricPrecision"
     id="g199">
    <path
       style="stroke:none"
       d="m -6.6406,-6.2812 q -1.5313,0 -2.2969,1.5 -0.7656,1.5 -0.7656,4.5 0,3 0.7656,4.5 0.7656,1.5 2.2969,1.5 1.5312,0 2.2968,-1.5 0.7657,-1.5 0.7657,-4.5 0,-3 -0.7657,-4.5 -0.7656,-1.5 -2.2968,-1.5 z m 0,-1.5626 q 2.4531,0 3.7422,1.9376 1.289,1.9374 1.289,5.625 0,3.6874 -1.289,5.625 -1.2891,1.9374 -3.7422,1.9374 -2.4532,0 -3.75,-1.9374 -1.2969,-1.9376 -1.2969,-5.625 0,-3.6876 1.2969,-5.625 1.2968,-1.9376 3.75,-1.9376 z"
       id="path197" />
  </g>
  <g
     transform="translate(1097.3334,394.2222)"
     style="font-size:20px;font-family:SansSerif;color-interpolation:linearRGB;fill:#262626;stroke:#262626;color-rendering:optimizeQuality;image-rendering:optimizeQuality;text-rendering:geometricPrecision"
     id="g203">
    <path
       style="stroke:none"
       d="m -10.5156,5.3438 h 3.2187 v -11.125 l -3.5,0.7031 V -6.875 l 3.4844,-0.7031 h 1.9687 V 5.3438 H -2.125 V 7 h -8.3906 z"
       id="path201" />
  </g>
  <g
     transform="translate(1097.3334,312.6667)"
     style="font-size:20px;font-family:SansSerif;color-interpolation:linearRGB;fill:#262626;stroke:#262626;color-rendering:optimizeQuality;image-rendering:optimizeQuality;text-rendering:geometricPrecision"
     id="g207">
    <path
       style="stroke:none"
       d="m -9.1562,5.3438 h 6.875 V 7 h -9.25 V 5.3438 q 1.125,-1.1719 3.0624,-3.125 1.9376,-1.9532 2.4376,-2.5313 0.9374,-1.0625 1.3124,-1.7969 0.375,-0.7344 0.375,-1.4531 0,-1.1563 -0.8124,-1.8906 -0.8126,-0.7344 -2.125,-0.7344 -0.9219,0 -1.9532,0.3203 -1.0312,0.3203 -2.2031,0.9766 V -6.875 q 1.1875,-0.4844 2.2266,-0.7266 1.039,-0.2422 1.8984,-0.2422 2.2656,0 3.6094,1.1329 1.3437,1.1328 1.3437,3.0234 0,0.9063 -0.3359,1.7109 -0.3359,0.8047 -1.2266,1.8985 -0.2343,0.2812 -1.5469,1.6328 -1.3124,1.3515 -3.6874,3.7891 z"
       id="path205" />
  </g>
  <g
     transform="translate(1097.3334,231.1111)"
     style="font-size:20px;font-family:SansSerif;color-interpolation:linearRGB;fill:#262626;stroke:#262626;color-rendering:optimizeQuality;image-rendering:optimizeQuality;text-rendering:geometricPrecision"
     id="g211">
    <path
       style="stroke:none"
       d="m -4.8906,-0.8594 q 1.4218,0.2969 2.2187,1.2578 0.7969,0.961 0.7969,2.3672 0,2.1563 -1.4844,3.336 -1.4844,1.1796 -4.2187,1.1796 -0.9219,0 -1.8907,-0.1796 -0.9687,-0.1797 -2,-0.5391 V 4.6562 q 0.8126,0.4844 1.7891,0.7266 0.9766,0.2422 2.0391,0.2422 1.8594,0 2.8281,-0.7344 0.9687,-0.7344 0.9687,-2.125 0,-1.2968 -0.8984,-2.0234 Q -5.6406,0.0156 -7.25,0.0156 h -1.7031 v -1.625 h 1.7812 q 1.4531,0 2.2188,-0.5781 0.7656,-0.5781 0.7656,-1.6719 0,-1.125 -0.7891,-1.7265 -0.789,-0.6016 -2.2734,-0.6016 -0.8125,0 -1.7422,0.1797 -0.9297,0.1797 -2.039,0.539 v -1.75 q 1.125,-0.3124 2.1015,-0.4687 0.9766,-0.1563 1.8516,-0.1563 2.25,0 3.5547,1.0235 1.3046,1.0234 1.3046,2.7578 0,1.2031 -0.6953,2.0391 -0.6953,0.8359 -1.9765,1.164 z"
       id="path209" />
  </g>
  <g
     transform="translate(1097.3334,149.5556)"
     style="font-size:20px;font-family:SansSerif;color-interpolation:linearRGB;fill:#262626;stroke:#262626;color-rendering:optimizeQuality;image-rendering:optimizeQuality;text-rendering:geometricPrecision"
     id="g215">
    <path
       style="stroke:none"
       d="m -5.4375,-5.8594 -4.9844,7.7813 h 4.9844 z m -0.5156,-1.7187 h 2.4687 v 9.5 h 2.0938 V 3.5625 H -3.4844 V 7 H -5.4375 V 3.5625 h -6.5781 V 1.6562 Z"
       id="path213" />
  </g>
  <g
     transform="translate(1097.3334,68)"
     style="font-size:20px;font-family:SansSerif;color-interpolation:linearRGB;fill:#262626;stroke:#262626;color-rendering:optimizeQuality;image-rendering:optimizeQuality;text-rendering:geometricPrecision"
     id="g219">
    <path
       style="stroke:none"
       d="m -10.8438,-7.5781 h 7.75 v 1.6562 h -5.9374 v 3.5781 q 0.4218,-0.1562 0.8515,-0.2265 0.4297,-0.0703 0.8672,-0.0703 2.4375,0 3.8672,1.3359 1.4297,1.3359 1.4297,3.6328 0,2.3438 -1.4688,3.6485 -1.4687,1.3046 -4.1406,1.3046 -0.9062,0 -1.8594,-0.1562 -0.9531,-0.1562 -1.9687,-0.4688 V 4.6719 q 0.875,0.4843 1.8125,0.7187 0.9375,0.2344 1.9844,0.2344 1.6874,0 2.6718,-0.8906 Q -4,3.8438 -4,2.3281 q 0,-1.5312 -0.9844,-2.4219 -0.9844,-0.8906 -2.6718,-0.8906 -0.7969,0 -1.5782,0.1797 -0.7812,0.1797 -1.6094,0.5547 z"
       id="path217" />
  </g>
  <g
     transform="matrix(1.3497941,0,0,1.3497941,1502.751,37.93113)"
     style="font-weight:bold;font-size:22px;font-family:SansSerif;color-interpolation:linearRGB;color-rendering:optimizeQuality;image-rendering:optimizeQuality;text-rendering:geometricPrecision"
     id="g223">
    <path
       style="stroke:none"
       d="m -186.25,-8.4844 q 1.2344,0 1.8828,-0.8984 0.6484,-0.8984 0.6484,-2.6172 0,-1.7188 -0.6484,-2.625 -0.6484,-0.9062 -1.8828,-0.9062 -1.2344,0 -1.8984,0.9062 -0.6641,0.9062 -0.6641,2.625 0,1.7031 0.6641,2.6094 0.664,0.9062 1.8984,0.9062 z m -2.5625,-7.7812 q 0.7969,-1.0625 1.7656,-1.5625 0.9688,-0.5 2.2188,-0.5 2.2343,0 3.664,1.7734 1.4297,1.7735 1.4297,4.5547 0,2.7812 -1.4297,4.5469 -1.4297,1.7656 -3.664,1.7656 -1.25,0 -2.2188,-0.5 -0.9687,-0.5 -1.7656,-1.5469 V -6 h -3.8437 v -16.7188 h 3.8437 z m 11.9043,-6.4532 h 3.8437 V -6 h -3.8437 z m 19.5566,10.6719 v 1.0938 h -9 q 0.1407,1.3593 0.9844,2.0312 0.8438,0.6719 2.3438,0.6719 1.2187,0 2.4922,-0.3594 1.2734,-0.3594 2.6015,-1.0937 v 2.9687 q -1.3594,0.5156 -2.7187,0.7813 -1.3594,0.2656 -2.7344,0.2656 -3.2656,0 -5.0703,-1.6641 -1.8047,-1.664 -1.8047,-4.6484 0,-2.9531 1.7734,-4.6406 1.7735,-1.6875 4.8828,-1.6875 2.8438,0 4.5469,1.7109 1.7031,1.711 1.7031,4.5703 z m -3.9531,-1.2812 q 0,-1.0938 -0.6406,-1.7657 -0.6406,-0.6718 -1.6719,-0.6718 -1.1094,0 -1.8125,0.625 -0.7031,0.625 -0.875,1.8125 z m 12.249,1.9062 q -1.2031,0 -1.8047,0.4141 -0.6015,0.414 -0.6015,1.2109 0,0.7188 0.4844,1.1328 0.4843,0.4141 1.3593,0.4141 1.0782,0 1.8203,-0.7734 0.7422,-0.7735 0.7422,-1.9454 v -0.4531 z m 5.875,-1.4375 V -6 h -3.875 v -1.7812 q -0.7656,1.0937 -1.7343,1.5937 -0.9688,0.5 -2.3594,0.5 -1.8594,0 -3.0235,-1.0937 -1.164,-1.0938 -1.164,-2.8282 0,-2.1094 1.4531,-3.1015 1.4531,-0.9922 4.5625,-0.9922 h 2.2656 V -14 q 0,-0.9219 -0.7187,-1.3438 -0.7188,-0.4218 -2.2344,-0.4218 -1.25,0 -2.3125,0.25 -1.0625,0.25 -1.9687,0.7344 v -2.9219 q 1.2343,-0.3125 2.4765,-0.4688 1.2422,-0.1562 2.4922,-0.1562 3.2656,0 4.7031,1.289 1.4375,1.2891 1.4375,4.1797 z m 13.2989,-4.7968 v 3.1406 q -0.7813,-0.5469 -1.5703,-0.8047 -0.7891,-0.2578 -1.6329,-0.2578 -1.6093,0 -2.5078,0.9453 -0.8984,0.9453 -0.8984,2.6328 0,1.6875 0.8984,2.625 0.8985,0.9375 2.5078,0.9375 0.9063,0 1.711,-0.2656 0.8047,-0.2657 1.4922,-0.7969 v 3.1406 q -0.8907,0.3438 -1.8203,0.5078 -0.9297,0.1641 -1.8672,0.1641 -3.25,0 -5.086,-1.6719 -1.8359,-1.6718 -1.8359,-4.6406 0,-2.9844 1.8359,-4.6562 1.836,-1.6719 5.086,-1.6719 0.9375,0 1.8593,0.1719 0.9219,0.1718 1.8282,0.5 z m 15.416,4.3281 V -6 h -3.8594 v -1.1875 -4.4063 q 0,-1.5781 -0.0703,-2.164 -0.0703,-0.586 -0.2422,-0.8672 -0.2187,-0.375 -0.6094,-0.5859 -0.3906,-0.211 -0.8906,-0.211 -1.2031,0 -1.8906,0.9297 -0.6875,0.9297 -0.6875,2.5703 V -6 h -3.8438 v -16.7188 h 3.8438 v 6.4532 q 0.875,-1.0625 1.8515,-1.5625 0.9766,-0.5 2.1641,-0.5 2.0781,0 3.1563,1.2812 1.0781,1.2813 1.0781,3.7188 z m 20.165,-1.4219 q -0.5,-0.2344 -1,-0.3516 -0.5,-0.1172 -1,-0.1172 -1.4844,0 -2.289,0.9532 -0.8047,0.9531 -0.8047,2.7187 V -6 h -3.8438 v -12.0312 h 3.8438 v 1.9687 q 0.75,-1.1719 1.7109,-1.7187 0.9609,-0.5469 2.3047,-0.5469 0.1875,0 0.4141,0.0156 0.2265,0.0156 0.664,0.0781 z m 7.3028,3.3281 q -1.2032,0 -1.8047,0.4141 -0.6016,0.414 -0.6016,1.2109 0,0.7188 0.4844,1.1328 0.4844,0.4141 1.3594,0.4141 1.0781,0 1.8203,-0.7734 0.7422,-0.7735 0.7422,-1.9454 v -0.4531 z m 5.875,-1.4375 V -6 h -3.875 v -1.7812 q -0.7657,1.0937 -1.7344,1.5937 -0.9688,0.5 -2.3594,0.5 -1.8594,0 -3.0234,-1.0937 -1.1641,-1.0938 -1.1641,-2.8282 0,-2.1094 1.4531,-3.1015 1.4532,-0.9922 4.5625,-0.9922 h 2.2657 V -14 q 0,-0.9219 -0.7188,-1.3438 -0.7187,-0.4218 -2.2344,-0.4218 -1.25,0 -2.3125,0.25 -1.0625,0.25 -1.9687,0.7344 v -2.9219 q 1.2344,-0.3125 2.4765,-0.4688 1.2422,-0.1562 2.4922,-0.1562 3.2657,0 4.7032,1.289 1.4375,1.2891 1.4375,4.1797 z m 7.7832,-8.5937 v 3.4219 h 3.9687 v 2.75 h -3.9687 v 5.1093 q 0,0.8281 0.3359,1.125 0.3359,0.2969 1.3203,0.2969 h 1.9688 V -6 h -3.2969 q -2.2656,0 -3.2188,-0.9531 -0.9531,-0.9531 -0.9531,-3.2188 v -5.1093 h -1.9062 v -2.75 h 1.9062 v -3.4219 z m 18.3291,9.4062 v 1.0938 h -9 q 0.1406,1.3593 0.9843,2.0312 0.8438,0.6719 2.3438,0.6719 1.2187,0 2.4922,-0.3594 1.2734,-0.3594 2.6015,-1.0937 v 2.9687 q -1.3593,0.5156 -2.7187,0.7813 -1.3594,0.2656 -2.7344,0.2656 -3.2656,0 -5.0703,-1.6641 -1.8047,-1.664 -1.8047,-4.6484 0,-2.9531 1.7734,-4.6406 1.7735,-1.6875 4.8829,-1.6875 2.8437,0 4.5468,1.7109 1.7032,1.711 1.7032,4.5703 z m -3.9532,-1.2812 q 0,-1.0938 -0.6406,-1.7657 -0.6406,-0.6718 -1.6719,-0.6718 -1.1093,0 -1.8125,0.625 -0.7031,0.625 -0.875,1.8125 z m 7.2647,3.1719 h 3.8594 v 3.2812 l -2.6563,4 h -2.2812 l 1.0781,-4 z m 30.8135,-2.4688 q -0.7657,0 -1.1797,0.6641 -0.4141,0.664 -0.4141,1.8828 0,1.2343 0.4141,1.8984 0.414,0.6641 1.1797,0.6641 0.7812,0 1.1875,-0.6641 0.4062,-0.6641 0.4062,-1.8984 0,-1.2188 -0.4141,-1.8828 -0.414,-0.6641 -1.1796,-0.6641 z m 0,-1.7969 q 2,0 3.1484,1.1563 1.1484,1.1562 1.1484,3.1875 0,2.0312 -1.1484,3.2109 -1.1484,1.1797 -3.1484,1.1797 -2,0 -3.1563,-1.1797 -1.1562,-1.1797 -1.1562,-3.2109 0,-2.0157 1.1562,-3.1797 1.1563,-1.1641 3.1563,-1.1641 z m -9.8438,8.7344 h -2.375 l 10.0156,-16.6406 h 2.3907 z m -2.2031,-16.6406 q 2,0 3.1406,1.164 1.1406,1.1641 1.1406,3.1953 0,2.0313 -1.1406,3.2032 -1.1406,1.1718 -3.1406,1.1718 -2,0 -3.1485,-1.1718 -1.1484,-1.1719 -1.1484,-3.2032 0,-2.0312 1.1484,-3.1953 1.1485,-1.164 3.1485,-1.164 z m 0,1.7969 q -0.7813,0 -1.1953,0.6718 -0.4141,0.6719 -0.4141,1.8906 0,1.2344 0.4141,1.9063 0.414,0.6719 1.1953,0.6719 0.7656,0 1.1797,-0.6719 0.414,-0.6719 0.414,-1.9063 0,-1.2187 -0.414,-1.8906 -0.4141,-0.6718 -1.1797,-0.6718 z m 22.6992,-1.5 h 2.375 l -5.6562,18.0781 h -2.375 z m 15.3789,6 q 0.7344,-1.125 1.7344,-1.711 1,-0.5859 2.2031,-0.5859 2.0781,0 3.1641,1.2812 1.0859,1.2813 1.0859,3.7188 V -6 H 9.458 v -6.2812 q 0.0156,-0.125 0.0234,-0.2813 0.0079,-0.1563 0.0079,-0.4375 0,-1.2656 -0.375,-1.8438 -0.375,-0.5781 -1.2188,-0.5781 -1.0937,0 -1.6953,0.9063 -0.6016,0.9062 -0.6172,2.6094 V -6 H 1.7236 v -6.2812 q 0,-1.9844 -0.3437,-2.5626 -0.3438,-0.5781 -1.2344,-0.5781 -1.1094,0 -1.7109,0.9063 -0.6016,0.9062 -0.6016,2.5937 V -6 h -3.8594 v -12.0312 h 3.8594 v 1.7656 q 0.7188,-1.0313 1.6328,-1.5469 0.9141,-0.5156 2.0235,-0.5156 1.25,0 2.2031,0.6015 0.9531,0.6016 1.4531,1.6954 z m 11.7676,-2 h 3.8437 V -6 h -3.8437 z m 0,-4.6876 h 3.8437 v 3.1407 h -3.8437 z m 19.6348,9.3907 V -6 h -3.8594 v -1.1875 -4.4219 q 0,-1.5625 -0.0703,-2.1484 -0.0703,-0.586 -0.2422,-0.8672 -0.2188,-0.375 -0.6094,-0.5859 -0.3906,-0.211 -0.8906,-0.211 -1.2031,0 -1.8906,0.9297 -0.6875,0.9297 -0.6875,2.5703 V -6 h -3.8438 v -12.0312 h 3.8438 v 1.7656 q 0.875,-1.0625 1.8515,-1.5625 0.9766,-0.5 2.1641,-0.5 2.0781,0 3.1562,1.2812 1.0782,1.2813 1.0782,3.7188 z m 3.4433,2.6406 v -7.3437 h 3.875 v 1.2031 q 0,0.9843 -0.0156,2.4609 -0.0156,1.4766 -0.0156,1.961 0,1.4531 0.0781,2.0937 0.0781,0.6406 0.25,0.9219 0.25,0.375 0.625,0.5859 0.375,0.2109 0.875,0.2109 1.2031,0 1.8906,-0.9296 0.6875,-0.9297 0.6875,-2.5704 v -5.9374 H 52.085 V -6 h -3.8438 v -1.7344 q -0.875,1.0469 -1.8437,1.5469 -0.9688,0.5 -2.1407,0.5 -2.0781,0 -3.1718,-1.2813 -1.0938,-1.2812 -1.0938,-3.7187 z m 19.9902,-10.7656 v 3.4219 h 3.9688 v 2.75 h -3.9688 v 5.1093 q 0,0.8281 0.336,1.125 0.3359,0.2969 1.3203,0.2969 h 1.9687 V -6 h -3.2968 q -2.2657,0 -3.2188,-0.9531 -0.9531,-0.9531 -0.9531,-3.2188 v -5.1093 h -1.9063 v -2.75 h 1.9063 v -3.4219 z m 18.3291,9.4062 v 1.0938 h -9 q 0.1407,1.3593 0.9844,2.0312 0.8438,0.6719 2.3438,0.6719 1.2187,0 2.4922,-0.3594 1.2734,-0.3594 2.6015,-1.0937 v 2.9687 q -1.3594,0.5156 -2.7187,0.7813 -1.3594,0.2656 -2.7344,0.2656 -3.2656,0 -5.0703,-1.6641 -1.8047,-1.664 -1.8047,-4.6484 0,-2.9531 1.7734,-4.6406 1.7735,-1.6875 4.8828,-1.6875 2.8438,0 4.5469,1.7109 1.7031,1.711 1.7031,4.5703 z m -3.9531,-1.2812 q 0,-1.0938 -0.6406,-1.7657 -0.6406,-0.6718 -1.6719,-0.6718 -1.1094,0 -1.8125,0.625 -0.7031,0.625 -0.875,1.8125 z m 20.9707,10.2343 h -3.1875 q -1.6562,-2.6562 -2.4375,-5.0468 -0.7812,-2.3906 -0.7812,-4.75 0,-2.3438 0.789,-4.7578 0.7891,-2.4141 2.4297,-5.0391 h 3.1875 q -1.375,2.5469 -2.0625,4.9766 -0.6875,2.4297 -0.6875,4.8047 0,2.375 0.6797,4.8124 0.6797,2.4376 2.0703,5 z m 8.9922,-8.3281 q -1.2031,0 -1.8047,0.4141 -0.6015,0.414 -0.6015,1.2109 0,0.7188 0.4843,1.1328 0.4844,0.4141 1.3594,0.4141 1.0781,0 1.8203,-0.7734 0.7422,-0.7735 0.7422,-1.9454 v -0.4531 z m 5.875,-1.4375 V -6 h -3.875 v -1.7812 q -0.7656,1.0937 -1.7344,1.5937 -0.9687,0.5 -2.3593,0.5 -1.8594,0 -3.0235,-1.0937 -1.164,-1.0938 -1.164,-2.8282 0,-2.1094 1.4531,-3.1015 1.4531,-0.9922 4.5625,-0.9922 h 2.2656 V -14 q 0,-0.9219 -0.7187,-1.3438 -0.7188,-0.4218 -2.2344,-0.4218 -1.25,0 -2.3125,0.25 -1.0625,0.25 -1.9688,0.7344 v -2.9219 q 1.2344,-0.3125 2.4766,-0.4688 1.2422,-0.1562 2.4922,-0.1562 3.2656,0 4.7031,1.289 1.4375,1.2891 1.4375,4.1797 z m 7.4238,5.125 v 6.3125 h -3.8437 v -16.6093 h 3.8437 v 1.7656 q 0.7969,-1.0625 1.7657,-1.5625 0.9687,-0.5 2.2187,-0.5 2.2344,0 3.6641,1.7734 1.4297,1.7735 1.4297,4.5547 0,2.7812 -1.4297,4.5469 -1.4297,1.7656 -3.6641,1.7656 -1.25,0 -2.2187,-0.5 -0.9688,-0.5 -1.7657,-1.5469 z m 2.5625,-7.7968 q -1.2343,0 -1.8984,0.9062 -0.6641,0.9062 -0.6641,2.625 0,1.7031 0.6641,2.6094 0.6641,0.9062 1.8984,0.9062 1.2344,0 1.8829,-0.8984 0.6484,-0.8984 0.6484,-2.6172 0,-1.7188 -0.6484,-2.625 -0.6485,-0.9062 -1.8829,-0.9062 z m 13.1856,7.7968 v 6.3125 h -3.8438 v -16.6093 h 3.8438 v 1.7656 q 0.7969,-1.0625 1.7656,-1.5625 0.9688,-0.5 2.2188,-0.5 2.2343,0 3.664,1.7734 1.4297,1.7735 1.4297,4.5547 0,2.7812 -1.4297,4.5469 -1.4297,1.7656 -3.664,1.7656 -1.25,0 -2.2188,-0.5 -0.9687,-0.5 -1.7656,-1.5469 z m 2.5625,-7.7968 q -1.2344,0 -1.8985,0.9062 -0.664,0.9062 -0.664,2.625 0,1.7031 0.664,2.6094 0.6641,0.9062 1.8985,0.9062 1.2344,0 1.8828,-0.8984 0.6484,-0.8984 0.6484,-2.6172 0,-1.7188 -0.6484,-2.625 -0.6484,-0.9062 -1.8828,-0.9062 z m 18.2793,0.7812 q -0.5,-0.2344 -1,-0.3516 -0.5,-0.1172 -1,-0.1172 -1.4844,0 -2.2891,0.9532 -0.8047,0.9531 -0.8047,2.7187 V -6 h -3.8437 v -12.0312 h 3.8437 v 1.9687 q 0.75,-1.1719 1.711,-1.7187 0.9609,-0.5469 2.3047,-0.5469 0.1875,0 0.414,0.0156 0.2266,0.0156 0.6641,0.0781 z m 7.6465,-0.8281 q -1.2813,0 -1.9532,0.9219 -0.6718,0.9218 -0.6718,2.6562 0,1.7188 0.6718,2.6406 0.6719,0.9219 1.9532,0.9219 1.25,0 1.914,-0.9219 0.6641,-0.9218 0.6641,-2.6406 0,-1.7344 -0.6641,-2.6562 -0.664,-0.9219 -1.914,-0.9219 z m 0,-2.75 q 3.0937,0 4.8437,1.6797 1.75,1.6796 1.75,4.6484 0,2.9531 -1.75,4.6328 -1.75,1.6797 -4.8437,1.6797 -3.125,0 -4.875,-1.6797 -1.75,-1.6797 -1.75,-4.6328 0,-2.9688 1.75,-4.6484 1.75,-1.6797 4.875,-1.6797 z m 12.4267,6.1719 -4.3437,-5.875 h 4.0781 l 2.4531,3.5624 2.5,-3.5624 h 4.0625 l -4.3437,5.8593 L 183.251,-6 h -4.0781 L 176.4697,-9.7969 173.7979,-6 h -4.0782 z m 11.0655,9.0624 q 1.375,-2.5624 2.0625,-5 0.6875,-2.4374 0.6875,-4.8124 0,-2.375 -0.6875,-4.8047 -0.6875,-2.4297 -2.0625,-4.9766 h 3.1875 q 1.625,2.625 2.4218,5.0391 0.7969,2.414 0.7969,4.7578 0,2.3594 -0.7891,4.75 -0.789,2.3906 -2.4296,5.0468 z"
       id="path221" />
  </g>
  <g
     style="color-interpolation:linearRGB;fill:#ff0000;stroke:#ff0000;stroke-width:2.6667;stroke-linecap:butt;stroke-linejoin:round;color-rendering:optimizeQuality;image-rendering:optimizeQuality;text-rendering:geometricPrecision"
     id="g229">
    <path
       d="m 1168.7,796.6978 32.35,-515.887 32.35,40.5175 32.35,-26.7216 32.35,-191.2541 32.35,109.9736 32.35,147.5138 32.35,9.9689 32.35,49.2401 32.35,45.7652 16.175,-176.0079 16.175,234.4319 16.175,-73.6157 16.175,-23.7747 32.35,10.6995 32.35,87.7388 32.35,-162.6947 32.35,-106.0701 32.35,87.7357 32.35,343.6636 L 1751,132.254"
       style="fill:none;fill-rule:evenodd"
       id="path225" />
    <path
       d="m 1168.7,796.6978 32.35,-515.887 32.35,40.5175 32.35,-26.7216 32.35,-191.2541 32.35,109.9736 32.35,147.5138 32.35,9.9689 32.35,49.2401 32.35,45.7652 16.175,-176.0079 16.175,234.4319 16.175,-73.6157 16.175,-23.7747 32.35,10.6995 32.35,87.7388 32.35,-162.6947 32.35,-106.0701 32.35,87.7357 32.35,343.6636 L 1751,132.254"
       style="fill:none;fill-rule:evenodd"
       id="path227" />
  </g>
  <text
     xml:space="preserve"
     style="font-style:normal;font-weight:normal;font-size:40px;line-height:1.25;font-family:sans-serif;fill:#000000;fill-opacity:1;stroke:none"
     x="444.65741"
     y="880.91052"
     id="text1064"><tspan
       sodipodi:role="line"
       id="tspan1062"
       x="444.65741"
       y="880.91052">wavelength, nm</tspan></text>
  <text
     xml:space="preserve"
     style="font-style:normal;font-weight:normal;font-size:40px;line-height:1.25;font-family:sans-serif;fill:#000000;fill-opacity:1;stroke:none"
     x="1309.0623"
     y="878.43341"
     id="text1068"><tspan
       sodipodi:role="line"
       id="tspan1066"
       x="1309.0623"
       y="878.43341">wavelength, nm</tspan></text>
</svg>
